  0
SECTION
  2
HEADER
  9
$ACADVER
  1
AC1015
  9
$ACADMAINTVER
 70
     6
  9
$DWGCODEPAGE
  3
ANSI_1252
  9
$INSBASE
 10
0.0
 20
0.0
 30
0.0
  9
$EXTMIN
 10
0.0
 20
0.0
 30
0.0
  9
$EXTMAX
 10
24.0
 20
48.0
 30
0.0
  9
$LIMMIN
 10
0.0
 20
0.0
  9
$LIMMAX
 10
24.0
 20
48.0
  9
$ORTHOMODE
 70
     0
  9
$REGENMODE
 70
     1
  9
$FILLMODE
 70
     1
  9
$QTEXTMODE
 70
     0
  9
$MIRRTEXT
 70
     1
  9
$LTSCALE
 40
1.0
  9
$ATTMODE
 70
     1
  9
$TEXTSIZE
 40
0.1377952756
  9
$TRACEWID
 40
0.05
  9
$TEXTSTYLE
  7
Standard
  9
$CLAYER
  8
0
  9
$CELTYPE
  6
ByLayer
  9
$CECOLOR
 62
   256
  9
$CELTSCALE
 40
1.0
  9
$DISPSILH
 70
     0
  9
$DIMSCALE
 40
1.0
  9
$DIMASZ
 40
0.1181102362
  9
$DIMEXO
 40
0.0393700787
  9
$DIMDLI
 40
0.38
  9
$DIMRND
 40
0.0
  9
$DIMDLE
 40
0.0
  9
$DIMEXE
 40
0.0393700787
  9
$DIMTP
 40
0.0
  9
$DIMTM
 40
0.0
  9
$DIMTXT
 40
0.1377952756
  9
$DIMCEN
 40
0.09
  9
$DIMTSZ
 40
0.0
  9
$DIMTOL
 70
     0
  9
$DIMLIM
 70
     0
  9
$DIMTIH
 70
     1
  9
$DIMTOH
 70
     1
  9
$DIMSE1
 70
     0
  9
$DIMSE2
 70
     0
  9
$DIMTAD
 70
     1
  9
$DIMZIN
 70
     0
  9
$DIMBLK
  1

  9
$DIMASO
 70
     1
  9
$DIMSHO
 70
     1
  9
$DIMPOST
  1

  9
$DIMAPOST
  1

  9
$DIMALT
 70
     0
  9
$DIMALTD
 70
     2
  9
$DIMALTF
 40
25.4
  9
$DIMLFAC
 40
1.0
  9
$DIMTOFL
 70
     0
  9
$DIMTVP
 40
0.0
  9
$DIMTIX
 70
     0
  9
$DIMSOXD
 70
     0
  9
$DIMSAH
 70
     0
  9
$DIMBLK1
  1

  9
$DIMBLK2
  1

  9
$DIMSTYLE
  2
Standard
  9
$DIMCLRD
 70
     0
  9
$DIMCLRE
 70
     0
  9
$DIMCLRT
 70
     0
  9
$DIMTFAC
 40
1.0
  9
$DIMGAP
 40
0.06
  9
$DIMJUST
 70
     0
  9
$DIMSD1
 70
     0
  9
$DIMSD2
 70
     0
  9
$DIMTOLJ
 70
     1
  9
$DIMTZIN
 70
     0
  9
$DIMALTZ
 70
     0
  9
$DIMALTTZ
 70
     0
  9
$DIMUPT
 70
     0
  9
$DIMDEC
 70
     2
  9
$DIMTDEC
 70
     3
  9
$DIMALTU
 70
     2
  9
$DIMALTTD
 70
     2
  9
$DIMTXSTY
  7
Standard
  9
$DIMAUNIT
 70
     0
  9
$DIMADEC
 70
     2
  9
$DIMALTRND
 40
0.0
  9
$DIMAZIN
 70
     0
  9
$DIMDSEP
 70
    46
  9
$DIMATFIT
 70
     3
  9
$DIMFRAC
 70
     0
  9
$DIMLDRBLK
  1

  9
$DIMLUNIT
 70
     2
  9
$DIMLWD
 70
    -2
  9
$DIMLWE
 70
    -2
  9
$DIMTMOVE
 70
     0
  9
$LUNITS
 70
     2
  9
$LUPREC
 70
     2
  9
$SKETCHINC
 40
0.1
  9
$FILLETRAD
 40
0.5
  9
$AUNITS
 70
     0
  9
$AUPREC
 70
     2
  9
$MENU
  1
.
  9
$ELEVATION
 40
0.0
  9
$PELEVATION
 40
0.0
  9
$THICKNESS
 40
0.0
  9
$LIMCHECK
 70
     0
  9
$CHAMFERA
 40
0.0
  9
$CHAMFERB
 40
0.0
  9
$CHAMFERC
 40
0.0
  9
$CHAMFERD
 40
0.0
  9
$SKPOLY
 70
     0
  9
$TDCREATE
 40
2458087.804267257
  9
$TDUCREATE
 40
2458088.01260059
  9
$TDUPDATE
 40
2458087.804268021
  9
$TDUUPDATE
 40
2458088.012601354
  9
$TDINDWG
 40
0.0000000116
  9
$TDUSRTIMER
 40
0.0000000116
  9
$USRTIMER
 70
     1
  9
$ANGBASE
 50
0.0
  9
$ANGDIR
 70
     0
  9
$PDMODE
 70
     0
  9
$PDSIZE
 40
-1.0
  9
$PLINEWID
 40
0.0
  9
$SPLFRAME
 70
     0
  9
$SPLINETYPE
 70
     6
  9
$SPLINESEGS
 70
     8
  9
$HANDSEED
  5
386
  9
$SURFTAB1
 70
     6
  9
$SURFTAB2
 70
     6
  9
$SURFTYPE
 70
     6
  9
$SURFU
 70
     6
  9
$SURFV
 70
     6
  9
$UCSBASE
  2

  9
$UCSNAME
  2

  9
$UCSORG
 10
0.0
 20
0.0
 30
0.0
  9
$UCSXDIR
 10
1.0
 20
0.0
 30
0.0
  9
$UCSYDIR
 10
0.0
 20
1.0
 30
0.0
  9
$UCSORTHOREF
  2

  9
$UCSORTHOVIEW
 70
     0
  9
$UCSORGTOP
 10
0.0
 20
0.0
 30
0.0
  9
$UCSORGBOTTOM
 10
0.0
 20
0.0
 30
0.0
  9
$UCSORGLEFT
 10
0.0
 20
0.0
 30
0.0
  9
$UCSORGRIGHT
 10
0.0
 20
0.0
 30
0.0
  9
$UCSORGFRONT
 10
0.0
 20
0.0
 30
0.0
  9
$UCSORGBACK
 10
0.0
 20
0.0
 30
0.0
  9
$PUCSBASE
  2

  9
$PUCSNAME
  2

  9
$PUCSORG
 10
0.0
 20
0.0
 30
0.0
  9
$PUCSXDIR
 10
1.0
 20
0.0
 30
0.0
  9
$PUCSYDIR
 10
0.0
 20
1.0
 30
0.0
  9
$PUCSORTHOREF
  2

  9
$PUCSORTHOVIEW
 70
     0
  9
$PUCSORGTOP
 10
0.0
 20
0.0
 30
0.0
  9
$PUCSORGBOTTOM
 10
0.0
 20
0.0
 30
0.0
  9
$PUCSORGLEFT
 10
0.0
 20
0.0
 30
0.0
  9
$PUCSORGRIGHT
 10
0.0
 20
0.0
 30
0.0
  9
$PUCSORGFRONT
 10
0.0
 20
0.0
 30
0.0
  9
$PUCSORGBACK
 10
0.0
 20
0.0
 30
0.0
  9
$USERI1
 70
     0
  9
$USERI2
 70
     0
  9
$USERI3
 70
     0
  9
$USERI4
 70
     0
  9
$USERI5
 70
     0
  9
$USERR1
 40
0.0
  9
$USERR2
 40
0.0
  9
$USERR3
 40
0.0
  9
$USERR4
 40
0.0
  9
$USERR5
 40
0.0
  9
$WORLDVIEW
 70
     1
  9
$SHADEDGE
 70
     3
  9
$SHADEDIF
 70
    70
  9
$TILEMODE
 70
     1
  9
$MAXACTVP
 70
    64
  9
$PINSBASE
 10
0.0
 20
0.0
 30
0.0
  9
$PLIMCHECK
 70
     0
  9
$PEXTMIN
 10
1.0000000000E+20
 20
1.0000000000E+20
 30
1.0000000000E+20
  9
$PEXTMAX
 10
-1.0000000000E+20
 20
-1.0000000000E+20
 30
-1.0000000000E+20
  9
$PLIMMIN
 10
0.0
 20
0.0
  9
$PLIMMAX
 10
12.0
 20
9.0
  9
$UNITMODE
 70
     0
  9
$VISRETAIN
 70
     1
  9
$PLINEGEN
 70
     0
  9
$PSLTSCALE
 70
     1
  9
$TREEDEPTH
 70
  3020
  9
$CMLSTYLE
  2
Standard
  9
$CMLJUST
 70
     0
  9
$CMLSCALE
 40
1.0
  9
$PROXYGRAPHICS
 70
     1
  9
$MEASUREMENT
 70
     0
  9
$CELWEIGHT
370
    -1
  9
$ENDCAPS
280
     0
  9
$JOINSTYLE
280
     0
  9
$LWDISPLAY
290
     1
  9
$INSUNITS
 70
     1
  9
$HYPERLINKBASE
  1

  9
$STYLESHEET
  1

  9
$XEDIT
290
     1
  9
$CEPSNTYPE
380
     0
  9
$PSTYLEMODE
290
     1
  9
$FINGERPRINTGUID
  2
{27356B85-F892-4766-B6BB-953B236497ED}
  9
$VERSIONGUID
  2
{FAEB1C32-E019-11D5-929B-00C0DF256EC4}
  9
$EXTNAMES
290
     1
  9
$PSVPSCALE
 40
0.0
  9
$OLESTARTUP
290
     0
  0
ENDSEC
  0
SECTION
  2
CLASSES
  0
CLASS
  1
ACDBDICTIONARYWDFLT
  2
AcDbDictionaryWithDefault
  3
ObjectDBX Classes
 90
        0
280
     0
281
     0
  0
CLASS
  1
VISUALSTYLE
  2
AcDbVisualStyle
  3
ObjectDBX Classes
 90
     4095
280
     0
281
     0
  0
CLASS
  1
MATERIAL
  2
AcDbMaterial
  3
ObjectDBX Classes
 90
     1153
280
     0
281
     0
  0
CLASS
  1
SCALE
  2
AcDbScale
  3
ObjectDBX Classes
 90
     1153
280
     0
281
     0
  0
CLASS
  1
TABLESTYLE
  2
AcDbTableStyle
  3
ObjectDBX Classes
 90
     4095
280
     0
281
     0
  0
CLASS
  1
MLEADERSTYLE
  2
AcDbMLeaderStyle
  3
ACDB_MLEADERSTYLE_CLASS
 90
     4095
280
     0
281
     0
  0
CLASS
  1
SUN
  2
AcDbSun
  3
SCENEOE
 90
     1153
280
     0
281
     0
  0
CLASS
  1
ACDBPLACEHOLDER
  2
AcDbPlaceHolder
  3
ObjectDBX Classes
 90
        0
280
     0
281
     0
  0
CLASS
  1
LAYOUT
  2
AcDbLayout
  3
ObjectDBX Classes
 90
        0
280
     0
281
     0
  0
ENDSEC
  0
SECTION
  2
TABLES
  0
TABLE
  2
VPORT
  5
8
330
0
100
AcDbSymbolTable
 70
     1
  0
VPORT
  5
29
330
8
100
AcDbSymbolTableRecord
100
AcDbViewportTableRecord
  2
*Active
 70
     0
 10
0.0
 20
0.0
 11
1.0
 21
1.0
 12
12.0
 22
24.0
 13
0.0
 23
0.0
 14
0.5
 24
0.5
 15
0.5
 25
0.5
 16
0.0
 26
0.0
 36
1.0
 17
0.0
 27
0.0
 37
0.0
 40
48.0
 41
0.5
 42
50.0
 43
0.0
 44
0.0
 50
0.0
 51
0.0
 71
     0
 72
  2000
 73
     1
 74
     3
 75
     0
 76
     0
 77
     0
 78
     0
281
     0
 65
     1
110
0.0
120
0.0
130
0.0
111
1.0
121
0.0
131
0.0
112
0.0
122
1.0
132
0.0
 79
     0
146
0.0
  0
ENDTAB
  0
TABLE
  2
LTYPE
  5
5
330
0
100
AcDbSymbolTable
 70
     6
  0
LTYPE
  5
14
330
5
100
AcDbSymbolTableRecord
100
AcDbLinetypeTableRecord
  2
ByBlock
 70
     0
  3

 72
    65
 73
     0
 40
0.0
  0
LTYPE
  5
15
330
5
100
AcDbSymbolTableRecord
100
AcDbLinetypeTableRecord
  2
ByLayer
 70
     0
  3

 72
    65
 73
     0
 40
0.0
  0
LTYPE
  5
16
330
5
100
AcDbSymbolTableRecord
100
AcDbLinetypeTableRecord
  2
Continuous
 70
     0
  3
Solid line
 72
    65
 73
     0
 40
0.0
  0
LTYPE
  5
6E
330
5
100
AcDbSymbolTableRecord
100
AcDbLinetypeTableRecord
  2
HIDDEN
 70
     0
  3
Hidden __ __ __ __ __ __ __ __ __ __ __ __ __ __
 72
    65
 73
     2
 40
0.075
 49
0.05
 74
     0
 49
-0.025
 74
     0
  0
LTYPE
  5
6F
330
5
100
AcDbSymbolTableRecord
100
AcDbLinetypeTableRecord
  2
PHANTOM
 70
     0
  3
Phantom ______  __  __  ______  __  __  ______
 72
    65
 73
     6
 40
0.5
 49
0.25
 74
     0
 49
-0.05
 74
     0
 49
0.05
 74
     0
 49
-0.05
 74
     0
 49
0.05
 74
     0
 49
-0.05
 74
     0
  0
LTYPE
  5
70
330
5
100
AcDbSymbolTableRecord
100
AcDbLinetypeTableRecord
  2
CENTER
 70
     0
  3
Center ____ _ ____ _ ____ _ ____ _ ____ _ ____
 72
    65
 73
     4
 40
0.4
 49
0.25
 74
     0
 49
-0.05
 74
     0
 49
0.05
 74
     0
 49
-0.05
 74
     0
  0
LTYPE
  5
71
330
5
100
AcDbSymbolTableRecord
100
AcDbLinetypeTableRecord
  2
CENTERX2
 70
     0
  3
Center (2x) ________  __  ________  __  _____
 72
    65
 73
     4
 40
0.8
 49
0.5
 74
     0
 49
-0.1
 74
     0
 49
0.1
 74
     0
 49
-0.1
 74
     0
  0
LTYPE
  5
72
330
5
100
AcDbSymbolTableRecord
100
AcDbLinetypeTableRecord
  2
DOT2
 70
     0
  3
Dot (.5x) ........................................
 72
    65
 73
     2
 40
0.025
 49
0.0
 74
     0
 49
-0.025
 74
     0
  0
ENDTAB
  0
TABLE
  2
LAYER
  5
2
330
0
100
AcDbSymbolTable
 70
     2
  0
LAYER
  5
10
330
2
100
AcDbSymbolTableRecord
100
AcDbLayerTableRecord
  2
0
 70
     0
 62
     7
  6
Continuous
370
    -3
390
F
  0
LAYER
  5
73
330
2
100
AcDbSymbolTableRecord
100
AcDbLayerTableRecord
  2
FORMAT
 70
     0
 62
     7
  6
Continuous
370
    -3
390
F
  0
ENDTAB
  0
TABLE
  2
STYLE
  5
3
330
0
100
AcDbSymbolTable
 70
     1
  0
STYLE
  5
11
330
3
100
AcDbSymbolTableRecord
100
AcDbTextStyleTableRecord
  2
Standard
 70
     0
 40
0.0
 41
1.0
 50
0.0
 71
     0
 42
0.1377952756
  3
txt
  4

  0
ENDTAB
  0
TABLE
  2
VIEW
  5
6
330
0
100
AcDbSymbolTable
 70
     0
  0
ENDTAB
  0
TABLE
  2
UCS
  5
7
330
0
100
AcDbSymbolTable
 70
     0
  0
ENDTAB
  0
TABLE
  2
APPID
  5
9
330
0
100
AcDbSymbolTable
 70
     1
  0
APPID
  5
12
330
9
100
AcDbSymbolTableRecord
100
AcDbRegAppTableRecord
  2
ACAD
 70
     0
  0
ENDTAB
  0
TABLE
  2
DIMSTYLE
  5
A
330
0
100
AcDbSymbolTable
 70
     1
100
AcDbDimStyleTable
  0
DIMSTYLE
105
27
330
A
100
AcDbSymbolTableRecord
100
AcDbDimStyleTableRecord
  2
Standard
 70
     0
178
     0
340
11
  0
ENDTAB
  0
TABLE
  2
BLOCK_RECORD
  5
1
330
0
100
AcDbSymbolTable
 70
     1
  0
BLOCK_RECORD
  5
1F
330
1
100
AcDbSymbolTableRecord
100
AcDbBlockTableRecord
  2
*Model_Space
340
22
  0
BLOCK_RECORD
  5
1B
330
1
100
AcDbSymbolTableRecord
100
AcDbBlockTableRecord
  2
*Paper_Space
340
1E
  0
BLOCK_RECORD
  5
23
330
1
100
AcDbSymbolTableRecord
100
AcDbBlockTableRecord
  2
*Paper_Space0
340
26
  0
ENDTAB
  0
ENDSEC
  0
SECTION
  2
BLOCKS
  0
BLOCK
  5
20
330
1F
100
AcDbEntity
  8
0
100
AcDbBlockBegin
  2
*Model_Space
 70
     0
 10
0.0
 20
0.0
 30
0.0
  3
*Model_Space
  1

  0
ENDBLK
  5
21
330
1F
100
AcDbEntity
  8
0
100
AcDbBlockEnd
  0
BLOCK
  5
1C
330
1B
100
AcDbEntity
 67
     1
  8
0
100
AcDbBlockBegin
  2
*Paper_Space
 70
     0
 10
0.0
 20
0.0
 30
0.0
  3
*Paper_Space
  1

  0
ENDBLK
  5
1D
330
1B
100
AcDbEntity
 67
     1
  8
0
100
AcDbBlockEnd
  0
BLOCK
  5
24
330
23
100
AcDbEntity
  8
0
100
AcDbBlockBegin
  2
*Paper_Space0
 70
     0
 10
0.0
 20
0.0
 30
0.0
  3
*Paper_Space0
  1

  0
ENDBLK
  5
25
330
23
100
AcDbEntity
  8
0
100
AcDbBlockEnd
  0
ENDSEC
  0
SECTION
  2
ENTITIES
  0
LINE
  5
74
330
1F
100
AcDbEntity
  8
0
  6
Continuous
 62
     7
370
    25
100
AcDbLine
 10
5.0990060824
 20
31.1186022402
 30
0.0
 11
5.0990060824
 21
25.1186022402
 31
0.0
  0
LINE
  5
75
330
1F
100
AcDbEntity
  8
0
  6
Continuous
 62
     7
370
    25
100
AcDbLine
 10
5.0990060824
 20
25.1186022402
 30
0.0
 11
9.0990060824
 21
25.1186022402
 31
0.0
  0
LINE
  5
76
330
1F
100
AcDbEntity
  8
0
  6
Continuous
 62
     7
370
    25
100
AcDbLine
 10
9.0990060824
 20
25.1186022402
 30
0.0
 11
9.0990060824
 21
31.1186022402
 31
0.0
  0
LINE
  5
77
330
1F
100
AcDbEntity
  8
0
  6
Continuous
 62
     7
370
    25
100
AcDbLine
 10
9.0990060824
 20
31.1186022402
 30
0.0
 11
5.0990060824
 21
31.1186022402
 31
0.0
  0
LINE
  5
78
330
1F
100
AcDbEntity
  8
0
  6
Continuous
 62
     7
370
    25
100
AcDbLine
 10
8.0990060824
 20
2.6186022402
 30
0.0
 11
8.0990060824
 21
4.6186022402
 31
0.0
  0
LINE
  5
79
330
1F
100
AcDbEntity
  8
0
  6
Continuous
 62
     7
370
    25
100
AcDbLine
 10
8.0990060824
 20
4.6186022402
 30
0.0
 11
6.0990060824
 21
4.6186022402
 31
0.0
  0
LINE
  5
7A
330
1F
100
AcDbEntity
  8
0
  6
Continuous
 62
     7
370
    25
100
AcDbLine
 10
6.0990060824
 20
4.6186022402
 30
0.0
 11
6.0990060824
 21
2.6186022402
 31
0.0
  0
LINE
  5
7B
330
1F
100
AcDbEntity
  8
0
  6
Continuous
 62
     7
370
    25
100
AcDbLine
 10
6.0990060824
 20
2.6186022402
 30
0.0
 11
8.0990060824
 21
2.6186022402
 31
0.0
  0
LINE
  5
7C
330
1F
100
AcDbEntity
  8
0
  6
Continuous
 62
     7
370
    25
100
AcDbLine
 10
3.2010248876
 20
8.3686022402
 30
0.0
 11
10.7952498314
 21
8.3686022402
 31
0.0
  0
LINE
  5
7D
330
1F
100
AcDbEntity
  8
0
  6
Continuous
 62
     7
370
    25
100
AcDbLine
 10
10.7952498314
 20
8.3686022402
 30
0.0
 11
10.7952498314
 21
8.8686022402
 31
0.0
  0
LINE
  5
7E
330
1F
100
AcDbEntity
  8
0
  6
Continuous
 62
     7
370
    25
100
AcDbLine
 10
3.2010248876
 20
8.8686022402
 30
0.0
 11
10.7952498314
 21
8.8686022402
 31
0.0
  0
LINE
  5
7F
330
1F
100
AcDbEntity
  8
0
  6
Continuous
 62
     7
370
    25
100
AcDbLine
 10
3.2010248876
 20
8.8686022402
 30
0.0
 11
3.2010248876
 21
8.3686022402
 31
0.0
  0
LINE
  5
80
330
1F
100
AcDbEntity
  8
0
  6
Continuous
 62
     7
370
    25
100
AcDbLine
 10
13.5990060824
 20
36.1186022402
 30
0.0
 11
0.5990060824
 21
36.1186022402
 31
0.0
  0
LINE
  5
81
330
1F
100
AcDbEntity
  8
0
  6
Continuous
 62
     7
370
    25
100
AcDbLine
 10
13.5990060824
 20
0.6186022402
 30
0.0
 11
13.5990060824
 21
36.1186022402
 31
0.0
  0
LINE
  5
82
330
1F
100
AcDbEntity
  8
0
  6
Continuous
 62
     7
370
    25
100
AcDbLine
 10
0.5990060824
 20
0.6186022402
 30
0.0
 11
13.5990060824
 21
0.6186022402
 31
0.0
  0
LINE
  5
83
330
1F
100
AcDbEntity
  8
0
  6
Continuous
 62
     7
370
    25
100
AcDbLine
 10
0.5990060824
 20
36.1186022402
 30
0.0
 11
0.5990060824
 21
0.6186022402
 31
0.0
  0
LINE
  5
84
330
1F
100
AcDbEntity
  8
0
  6
Continuous
 62
     7
370
    25
100
AcDbLine
 10
20.2475530614
 20
47.338162429
 30
0.0
 11
0.7475530614
 21
47.338162429
 31
0.0
  0
LINE
  5
85
330
1F
100
AcDbEntity
  8
0
  6
Continuous
 62
     7
370
    25
100
AcDbLine
 10
20.2475530614
 20
45.338162429
 30
0.0
 11
20.2475530614
 21
47.338162429
 31
0.0
  0
LINE
  5
86
330
1F
100
AcDbEntity
  8
0
  6
Continuous
 62
     7
370
    25
100
AcDbLine
 10
20.2475530614
 20
45.338162429
 30
0.0
 11
1.2475530614
 21
45.338162429
 31
0.0
  0
LINE
  5
87
330
1F
100
AcDbEntity
  8
0
  6
Continuous
 62
     7
370
    25
100
AcDbLine
 10
1.2475530614
 20
45.338162429
 30
0.0
 11
1.2475530614
 21
45.838162429
 31
0.0
  0
LINE
  5
88
330
1F
100
AcDbEntity
  8
0
  6
Continuous
 62
     7
370
    25
100
AcDbLine
 10
1.2475530614
 20
45.838162429
 30
0.0
 11
0.7475530614
 21
45.838162429
 31
0.0
  0
LINE
  5
89
330
1F
100
AcDbEntity
  8
0
  6
Continuous
 62
     7
370
    25
100
AcDbLine
 10
0.7475530614
 20
47.338162429
 30
0.0
 11
0.7475530614
 21
45.838162429
 31
0.0
  0
LINE
  5
8A
330
1F
100
AcDbEntity
  8
0
  6
Continuous
 62
     7
370
    25
100
AcDbLine
 10
20.4975530614
 20
47.338162429
 30
0.0
 11
20.4975530614
 21
45.338162429
 31
0.0
  0
LINE
  5
8B
330
1F
100
AcDbEntity
  8
0
  6
Continuous
 62
     7
370
    25
100
AcDbLine
 10
20.4975530614
 20
45.338162429
 30
0.0
 11
20.2475530614
 21
45.338162429
 31
0.0
  0
LINE
  5
8C
330
1F
100
AcDbEntity
  8
0
  6
Continuous
 62
     7
370
    25
100
AcDbLine
 10
20.2475530614
 20
47.338162429
 30
0.0
 11
20.4975530614
 21
47.338162429
 31
0.0
  0
LINE
  5
8D
330
1F
100
AcDbEntity
  8
0
  6
Continuous
 62
     7
370
    25
100
AcDbLine
 10
14.3206994639
 20
1.1491602699
 30
0.0
 11
22.9235926827
 21
1.1491602699
 31
0.0
  0
LINE
  5
8E
330
1F
100
AcDbEntity
  8
0
  6
Continuous
 62
     7
370
    25
100
AcDbLine
 10
14.3206994639
 20
1.1491602699
 30
0.0
 11
14.3206994639
 21
16.6491602699
 31
0.0
  0
LINE
  5
8F
330
1F
100
AcDbEntity
  8
0
  6
Continuous
 62
     7
370
    25
100
AcDbLine
 10
14.3206994639
 20
16.6491602699
 30
0.0
 11
22.9235926827
 21
16.6491602699
 31
0.0
  0
LINE
  5
90
330
1F
100
AcDbEntity
  8
0
  6
Continuous
 62
     7
370
    25
100
AcDbLine
 10
22.9235926827
 20
1.1491602699
 30
0.0
 11
22.9235926827
 21
16.6491602699
 31
0.0
  0
LINE
  5
91
330
1F
100
AcDbEntity
  8
0
  6
Continuous
 62
     7
370
    25
100
AcDbLine
 10
21.8030479968
 20
9.1491602699
 30
0.0
 11
18.3787881169
 21
9.1491602699
 31
0.0
  0
LINE
  5
92
330
1F
100
AcDbEntity
  8
0
  6
Continuous
 62
     7
370
    25
100
AcDbLine
 10
21.8030479968
 20
8.6491602699
 30
0.0
 11
21.8030479968
 21
9.1491602699
 31
0.0
  0
LINE
  5
93
330
1F
100
AcDbEntity
  8
0
  6
Continuous
 62
     7
370
    25
100
AcDbLine
 10
21.8030479968
 20
8.6491602699
 30
0.0
 11
18.3787881169
 21
8.6491602699
 31
0.0
  0
LINE
  5
94
330
1F
100
AcDbEntity
  8
0
  6
Continuous
 62
     7
370
    25
100
AcDbLine
 10
18.3787881169
 20
8.6491602699
 30
0.0
 11
18.3787881169
 21
9.1491602699
 31
0.0
  0
LINE
  5
95
330
1F
100
AcDbEntity
  8
0
  6
Continuous
 62
     7
370
    25
100
AcDbLine
 10
23.1306994639
 20
16.8991602699
 30
0.0
 11
23.0271460733
 21
16.8991602699
 31
0.0
  0
LINE
  5
96
330
1F
100
AcDbEntity
  8
0
  6
Continuous
 62
     7
370
    25
100
AcDbLine
 10
23.1306994639
 20
0.8991602699
 30
0.0
 11
23.1306994639
 21
16.8991602699
 31
0.0
  0
LINE
  5
97
330
1F
100
AcDbEntity
  8
0
  6
Continuous
 62
     7
370
    25
100
AcDbLine
 10
23.1306994639
 20
0.8991602699
 30
0.0
 11
22.962114544
 21
0.8991602699
 31
0.0
  0
LINE
  5
98
330
1F
100
AcDbEntity
  8
0
  6
Continuous
 62
     7
370
    25
100
AcDbLine
 10
22.962114544
 20
1.1491602699
 30
0.0
 11
22.962114544
 21
0.8991602699
 31
0.0
  0
LINE
  5
99
330
1F
100
AcDbEntity
  8
0
  6
Continuous
 62
     7
370
    25
100
AcDbLine
 10
23.0271460733
 20
16.6491602699
 30
0.0
 11
23.0271460733
 21
16.8991602699
 31
0.0
  0
LINE
  5
9A
330
1F
100
AcDbEntity
  8
0
  6
Continuous
 62
     7
370
    25
100
AcDbLine
 10
23.0271460733
 20
16.6491602699
 30
0.0
 11
22.9235926827
 21
16.6491602699
 31
0.0
  0
LINE
  5
9B
330
1F
100
AcDbEntity
  8
0
  6
Continuous
 62
     7
370
    25
100
AcDbLine
 10
22.962114544
 20
1.1491602699
 30
0.0
 11
22.9235926827
 21
1.1491602699
 31
0.0
  0
LINE
  5
9C
330
1F
100
AcDbEntity
  8
0
  6
Continuous
 62
     7
370
    25
100
AcDbLine
 10
22.962114544
 20
0.8991602699
 30
0.0
 11
14.3206994639
 21
0.8991602699
 31
0.0
  0
LINE
  5
9D
330
1F
100
AcDbEntity
  8
0
  6
Continuous
 62
     7
370
    25
100
AcDbLine
 10
14.3206994639
 20
0.8991602699
 30
0.0
 11
14.3206994639
 21
1.1491602699
 31
0.0
  0
LINE
  5
9E
330
1F
100
AcDbEntity
  8
0
  6
Continuous
 62
     7
370
    25
100
AcDbLine
 10
14.3206994639
 20
16.8991602699
 30
0.0
 11
23.0271460733
 21
16.8991602699
 31
0.0
  0
LINE
  5
9F
330
1F
100
AcDbEntity
  8
0
  6
Continuous
 62
     7
370
    25
100
AcDbLine
 10
14.3206994639
 20
16.8991602699
 30
0.0
 11
14.3206994639
 21
16.6491602699
 31
0.0
  0
ARC
  5
A0
330
1F
100
AcDbEntity
  8
0
  6
Continuous
 62
     7
370
    25
100
AcDbCircle
 10
11.0694008374
 20
37.677887608
 30
0.0
 40
0.125000000000001
100
AcDbArc
 50
315.0
 51
45.0
  0
LINE
  5
A1
330
1F
100
AcDbEntity
  8
0
  6
Continuous
 62
     7
370
    25
100
AcDbLine
 10
11.1577890789
 20
37.7662759855
 30
0.0
 11
10.9810120277
 21
37.9430526701
 31
0.0
  0
ARC
  5
A2
330
1F
100
AcDbEntity
  8
0
  6
Continuous
 62
     7
370
    25
100
AcDbCircle
 10
10.8926241421
 20
37.8546643033
 30
0.0
 40
0.1250000000000073
100
AcDbArc
 50
45.0
 51
135.0
  0
LINE
  5
A3
330
1F
100
AcDbEntity
  8
0
  6
Continuous
 62
     7
370
    25
100
AcDbLine
 10
10.8042361498
 20
37.9430526701
 30
0.0
 11
10.6274590987
 21
37.7662759855
 31
0.0
  0
ARC
  5
A4
330
1F
100
AcDbEntity
  8
0
  6
Continuous
 62
     7
370
    25
100
AcDbCircle
 10
10.7158474468
 20
37.677887608
 30
0.0
 40
0.1249999999999998
100
AcDbArc
 50
135.0
 51
225.0
  0
LINE
  5
A5
330
1F
100
AcDbEntity
  8
0
  6
Continuous
 62
     7
370
    25
100
AcDbLine
 10
10.6274590987
 20
37.5894992277
 30
0.0
 11
10.8042361498
 21
37.4127225798
 31
0.0
  0
ARC
  5
A6
330
1F
100
AcDbEntity
  8
0
  6
Continuous
 62
     7
370
    25
100
AcDbCircle
 10
10.8926241421
 20
37.5011109127
 30
0.0
 40
0.1250000000000023
100
AcDbArc
 50
225.0
 51
315.0
  0
LINE
  5
A7
330
1F
100
AcDbEntity
  8
0
  6
Continuous
 62
     7
370
    25
100
AcDbLine
 10
10.9810120277
 20
37.4127225798
 30
0.0
 11
11.1577890789
 21
37.5894992277
 31
0.0
  0
LINE
  5
A8
330
1F
100
AcDbEntity
  8
0
  6
Continuous
 62
     7
370
    25
100
AcDbLine
 10
10.7252201026
 20
38.2098235683
 30
0.0
 11
10.5484430515
 21
38.3866003262
 31
0.0
  0
ARC
  5
A9
330
1F
100
AcDbEntity
  8
0
  6
Continuous
 62
     7
370
    25
100
AcDbCircle
 10
10.4600552516
 20
38.2982119363
 30
0.0
 40
0.1250000000000387
100
AcDbArc
 50
44.9999999997
 51
134.9999999997
  0
LINE
  5
AA
330
1F
100
AcDbEntity
  8
0
  6
Continuous
 62
     7
370
    25
100
AcDbLine
 10
10.3716671736
 20
38.3866003262
 30
0.0
 11
10.1948901224
 21
38.2098235683
 31
0.0
  0
ARC
  5
AB
330
1F
100
AcDbEntity
  8
0
  6
Continuous
 62
     7
370
    25
100
AcDbCircle
 10
10.2832785563
 20
38.121435241
 30
0.0
 40
0.1249999999999884
100
AcDbArc
 50
135.0
 51
225.0000000003
  0
LINE
  5
AC
330
1F
100
AcDbEntity
  8
0
  6
Continuous
 62
     7
370
    25
100
AcDbLine
 10
10.1948901224
 20
38.0330468838
 30
0.0
 11
10.3716671736
 21
37.8562701993
 31
0.0
  0
ARC
  5
AD
330
1F
100
AcDbEntity
  8
0
  6
Continuous
 62
     7
370
    25
100
AcDbCircle
 10
10.4600552516
 20
37.9446585457
 30
0.0
 40
0.125000000000001
100
AcDbArc
 50
225.0
 51
315.0
  0
LINE
  5
AE
330
1F
100
AcDbEntity
  8
0
  6
Continuous
 62
     7
370
    25
100
AcDbLine
 10
10.5484430515
 20
37.8562701993
 30
0.0
 11
10.7252201026
 21
38.0330468838
 31
0.0
  0
ARC
  5
AF
330
1F
100
AcDbEntity
  8
0
  6
Continuous
 62
     7
370
    25
100
AcDbCircle
 10
10.6368319469
 20
38.121435241
 30
0.0
 40
0.1250000000000048
100
AcDbArc
 50
315.0
 51
45.0
  0
LINE
  5
B0
330
1F
100
AcDbEntity
  8
0
  6
Continuous
 62
     7
370
    25
100
AcDbLine
 10
12.4852197176
 20
38.2098235683
 30
0.0
 11
12.3084438398
 21
38.3866003262
 31
0.0
  0
ARC
  5
B1
330
1F
100
AcDbEntity
  8
0
  6
Continuous
 62
     7
370
    25
100
AcDbCircle
 10
12.2200552516
 20
38.2982119363
 30
0.0
 40
0.1250000000000337
100
AcDbArc
 50
44.9999999997
 51
134.9999999998
  0
LINE
  5
B2
330
1F
100
AcDbEntity
  8
0
  6
Continuous
 62
     7
370
    25
100
AcDbLine
 10
12.1316667886
 20
38.3866003262
 30
0.0
 11
11.9548897374
 21
38.2098235683
 31
0.0
  0
ARC
  5
B3
330
1F
100
AcDbEntity
  8
0
  6
Continuous
 62
     7
370
    25
100
AcDbCircle
 10
12.0432785563
 20
38.121435241
 30
0.0
 40
0.1249999999999972
100
AcDbArc
 50
135.0
 51
225.0000000003
  0
LINE
  5
B4
330
1F
100
AcDbEntity
  8
0
  6
Continuous
 62
     7
370
    25
100
AcDbLine
 10
11.9548897374
 20
38.0330468838
 30
0.0
 11
12.1316667886
 21
37.8562701993
 31
0.0
  0
ARC
  5
B5
330
1F
100
AcDbEntity
  8
0
  6
Continuous
 62
     7
370
    25
100
AcDbCircle
 10
12.2200552516
 20
37.9446585457
 30
0.0
 40
0.125000000000001
100
AcDbArc
 50
225.0
 51
315.0000000001
  0
LINE
  5
B6
330
1F
100
AcDbEntity
  8
0
  6
Continuous
 62
     7
370
    25
100
AcDbLine
 10
12.3084438398
 20
37.8562701993
 30
0.0
 11
12.4852197176
 21
38.0330468838
 31
0.0
  0
ARC
  5
B7
330
1F
100
AcDbEntity
  8
0
  6
Continuous
 62
     7
370
    25
100
AcDbCircle
 10
12.3968319469
 20
38.121435241
 30
0.0
 40
0.1250000000000085
100
AcDbArc
 50
315.0
 51
45.0
  0
ARC
  5
B8
330
1F
100
AcDbEntity
  8
0
  6
Continuous
 62
     7
370
    25
100
AcDbCircle
 10
12.8294008374
 20
39.437887608
 30
0.0
 40
0.1250000000000048
100
AcDbArc
 50
315.0
 51
45.0
  0
LINE
  5
B9
330
1F
100
AcDbEntity
  8
0
  6
Continuous
 62
     7
370
    25
100
AcDbLine
 10
12.9177886939
 20
39.5262760405
 30
0.0
 11
12.741012816
 21
39.7030525051
 31
0.0
  0
ARC
  5
BA
330
1F
100
AcDbEntity
  8
0
  6
Continuous
 62
     7
370
    25
100
AcDbCircle
 10
12.6526241421
 20
39.6146643033
 30
0.0
 40
0.1250000000000023
100
AcDbArc
 50
45.0
 51
135.0
  0
LINE
  5
BB
330
1F
100
AcDbEntity
  8
0
  6
Continuous
 62
     7
370
    25
100
AcDbLine
 10
12.5642357648
 20
39.7030525051
 30
0.0
 11
12.3874587137
 21
39.5262760405
 31
0.0
  0
ARC
  5
BC
330
1F
100
AcDbEntity
  8
0
  6
Continuous
 62
     7
370
    25
100
AcDbCircle
 10
12.4758474468
 20
39.437887608
 30
0.0
 40
0.1250000000000048
100
AcDbArc
 50
135.0
 51
225.0
  0
LINE
  5
BD
330
1F
100
AcDbEntity
  8
0
  6
Continuous
 62
     7
370
    25
100
AcDbLine
 10
12.3874587137
 20
39.3494992827
 30
0.0
 11
12.5642357648
 21
39.1727225248
 31
0.0
  0
ARC
  5
BE
330
1F
100
AcDbEntity
  8
0
  6
Continuous
 62
     7
370
    25
100
AcDbCircle
 10
12.6526241421
 20
39.2611109127
 30
0.0
 40
0.1250000000000023
100
AcDbArc
 50
225.0
 51
315.0
  0
LINE
  5
BF
330
1F
100
AcDbEntity
  8
0
  6
Continuous
 62
     7
370
    25
100
AcDbLine
 10
12.741012816
 20
39.1727225248
 30
0.0
 11
12.9177886939
 21
39.3494992827
 31
0.0
  0
ARC
  5
C0
330
1F
100
AcDbEntity
  8
0
  6
Continuous
 62
     7
370
    25
100
AcDbCircle
 10
11.9494008374
 20
39.437887608
 30
0.0
 40
0.1250000000000048
100
AcDbArc
 50
315.0
 51
45.0
  0
LINE
  5
C1
330
1F
100
AcDbEntity
  8
0
  6
Continuous
 62
     7
370
    25
100
AcDbLine
 10
12.0377894731
 20
39.5262760405
 30
0.0
 11
11.8610124219
 21
39.7030525051
 31
0.0
  0
ARC
  5
C2
330
1F
100
AcDbEntity
  8
0
  6
Continuous
 62
     7
370
    25
100
AcDbCircle
 10
11.7726241421
 20
39.6146643033
 30
0.0
 40
0.1249999999999972
100
AcDbArc
 50
45.0
 51
135.0
  0
LINE
  5
C3
330
1F
100
AcDbEntity
  8
0
  6
Continuous
 62
     7
370
    25
100
AcDbLine
 10
11.6842353707
 20
39.7030525051
 30
0.0
 11
11.5074594928
 21
39.5262760405
 31
0.0
  0
ARC
  5
C4
330
1F
100
AcDbEntity
  8
0
  6
Continuous
 62
     7
370
    25
100
AcDbCircle
 10
11.5958474468
 20
39.437887608
 30
0.0
 40
0.125000000000006
100
AcDbArc
 50
135.0
 51
225.0
  0
LINE
  5
C5
330
1F
100
AcDbEntity
  8
0
  6
Continuous
 62
     7
370
    25
100
AcDbLine
 10
11.5074594928
 20
39.3494992827
 30
0.0
 11
11.6842353707
 21
39.1727225248
 31
0.0
  0
ARC
  5
C6
330
1F
100
AcDbEntity
  8
0
  6
Continuous
 62
     7
370
    25
100
AcDbCircle
 10
11.7726241421
 20
39.2611109127
 30
0.0
 40
0.125000000000001
100
AcDbArc
 50
225.0
 51
315.0
  0
LINE
  5
C7
330
1F
100
AcDbEntity
  8
0
  6
Continuous
 62
     7
370
    25
100
AcDbLine
 10
11.8610124219
 20
39.1727225248
 30
0.0
 11
12.0377894731
 21
39.3494992827
 31
0.0
  0
ARC
  5
C8
330
1F
100
AcDbEntity
  8
0
  6
Continuous
 62
     7
370
    25
100
AcDbCircle
 10
10.1894008374
 20
39.437887608
 30
0.0
 40
0.1249999999999998
100
AcDbArc
 50
315.0
 51
45.0
  0
LINE
  5
C9
330
1F
100
AcDbEntity
  8
0
  6
Continuous
 62
     7
370
    25
100
AcDbLine
 10
10.2777892714
 20
39.5262760405
 30
0.0
 11
10.1010122202
 21
39.7030525051
 31
0.0
  0
ARC
  5
CA
330
1F
100
AcDbEntity
  8
0
  6
Continuous
 62
     7
370
    25
100
AcDbCircle
 10
10.0126241421
 20
39.6146643033
 30
0.0
 40
0.1250000000000186
100
AcDbArc
 50
45.0
 51
135.0
  0
LINE
  5
CB
330
1F
100
AcDbEntity
  8
0
  6
Continuous
 62
     7
370
    25
100
AcDbLine
 10
9.9242357557
 20
39.7030525051
 30
0.0
 11
9.7474592912
 21
39.5262760405
 31
0.0
  0
ARC
  5
CC
330
1F
100
AcDbEntity
  8
0
  6
Continuous
 62
     7
370
    25
100
AcDbCircle
 10
9.8358474468
 20
39.437887608
 30
0.0
 40
0.1249999999999998
100
AcDbArc
 50
135.0
 51
225.0
  0
LINE
  5
CD
330
1F
100
AcDbEntity
  8
0
  6
Continuous
 62
     7
370
    25
100
AcDbLine
 10
9.7474592912
 20
39.3494992827
 30
0.0
 11
9.9242357557
 21
39.1727225248
 31
0.0
  0
ARC
  5
CE
330
1F
100
AcDbEntity
  8
0
  6
Continuous
 62
     7
370
    25
100
AcDbCircle
 10
10.0126241421
 20
39.2611109127
 30
0.0
 40
0.125000000000001
100
AcDbArc
 50
225.0
 51
315.0
  0
LINE
  5
CF
330
1F
100
AcDbEntity
  8
0
  6
Continuous
 62
     7
370
    25
100
AcDbLine
 10
10.1010122202
 20
39.1727225248
 30
0.0
 11
10.2777892714
 21
39.3494992827
 31
0.0
  0
ARC
  5
D0
330
1F
100
AcDbEntity
  8
0
  6
Continuous
 62
     7
370
    25
100
AcDbCircle
 10
11.9494008374
 20
38.557887608
 30
0.0
 40
0.1249999999999998
100
AcDbArc
 50
315.0
 51
45.0
  0
LINE
  5
D1
330
1F
100
AcDbEntity
  8
0
  6
Continuous
 62
     7
370
    25
100
AcDbLine
 10
12.0377894731
 20
38.6462759397
 30
0.0
 11
11.8610124219
 21
38.8230526976
 31
0.0
  0
ARC
  5
D2
330
1F
100
AcDbEntity
  8
0
  6
Continuous
 62
     7
370
    25
100
AcDbCircle
 10
11.7726241421
 20
38.7346643033
 30
0.0
 40
0.1250000000000023
100
AcDbArc
 50
45.0
 51
135.0
  0
LINE
  5
D3
330
1F
100
AcDbEntity
  8
0
  6
Continuous
 62
     7
370
    25
100
AcDbLine
 10
11.6842353707
 20
38.8230526976
 30
0.0
 11
11.5074594928
 21
38.6462759397
 31
0.0
  0
ARC
  5
D4
330
1F
100
AcDbEntity
  8
0
  6
Continuous
 62
     7
370
    25
100
AcDbCircle
 10
11.5958474468
 20
38.557887608
 30
0.0
 40
0.125000000000001
100
AcDbArc
 50
135.0
 51
225.0
  0
LINE
  5
D5
330
1F
100
AcDbEntity
  8
0
  6
Continuous
 62
     7
370
    25
100
AcDbLine
 10
11.5074594928
 20
38.4694993285
 30
0.0
 11
11.6842353707
 21
38.2927225707
 31
0.0
  0
ARC
  5
D6
330
1F
100
AcDbEntity
  8
0
  6
Continuous
 62
     7
370
    25
100
AcDbCircle
 10
11.7726241421
 20
38.3811109127
 30
0.0
 40
0.125000000000001
100
AcDbArc
 50
225.0
 51
315.0
  0
LINE
  5
D7
330
1F
100
AcDbEntity
  8
0
  6
Continuous
 62
     7
370
    25
100
AcDbLine
 10
11.8610124219
 20
38.2927225707
 30
0.0
 11
12.0377894731
 21
38.4694993285
 31
0.0
  0
ARC
  5
D8
330
1F
100
AcDbEntity
  8
0
  6
Continuous
 62
     7
370
    25
100
AcDbCircle
 10
10.1894008374
 20
38.557887608
 30
0.0
 40
0.125000000000001
100
AcDbArc
 50
315.0
 51
45.0
  0
LINE
  5
D9
330
1F
100
AcDbEntity
  8
0
  6
Continuous
 62
     7
370
    25
100
AcDbLine
 10
10.2777892714
 20
38.6462759397
 30
0.0
 11
10.1010122202
 21
38.8230526976
 31
0.0
  0
ARC
  5
DA
330
1F
100
AcDbEntity
  8
0
  6
Continuous
 62
     7
370
    25
100
AcDbCircle
 10
10.0126241421
 20
38.7346643033
 30
0.0
 40
0.1250000000000073
100
AcDbArc
 50
45.0
 51
135.0
  0
LINE
  5
DB
330
1F
100
AcDbEntity
  8
0
  6
Continuous
 62
     7
370
    25
100
AcDbLine
 10
9.9242357557
 20
38.8230526976
 30
0.0
 11
9.7474592912
 21
38.6462759397
 31
0.0
  0
ARC
  5
DC
330
1F
100
AcDbEntity
  8
0
  6
Continuous
 62
     7
370
    25
100
AcDbCircle
 10
9.8358474468
 20
38.557887608
 30
0.0
 40
0.1249999999999998
100
AcDbArc
 50
135.0
 51
225.0
  0
LINE
  5
DD
330
1F
100
AcDbEntity
  8
0
  6
Continuous
 62
     7
370
    25
100
AcDbLine
 10
9.7474592912
 20
38.4694993285
 30
0.0
 11
9.9242357557
 21
38.2927225707
 31
0.0
  0
ARC
  5
DE
330
1F
100
AcDbEntity
  8
0
  6
Continuous
 62
     7
370
    25
100
AcDbCircle
 10
10.0126241421
 20
38.3811109127
 30
0.0
 40
0.125000000000001
100
AcDbArc
 50
225.0
 51
315.0
  0
LINE
  5
DF
330
1F
100
AcDbEntity
  8
0
  6
Continuous
 62
     7
370
    25
100
AcDbLine
 10
10.1010122202
 20
38.2927225707
 30
0.0
 11
10.2777892714
 21
38.4694993285
 31
0.0
  0
ARC
  5
E0
330
1F
100
AcDbEntity
  8
0
  6
Continuous
 62
     7
370
    25
100
AcDbCircle
 10
14.5894008374
 20
37.677887608
 30
0.0
 40
0.1250000000000073
100
AcDbArc
 50
315.0
 51
45.0
  0
LINE
  5
E1
330
1F
100
AcDbEntity
  8
0
  6
Continuous
 62
     7
370
    25
100
AcDbLine
 10
14.6777894822
 20
37.7662759855
 30
0.0
 11
14.501012431
 21
37.9430526701
 31
0.0
  0
ARC
  5
E2
330
1F
100
AcDbEntity
  8
0
  6
Continuous
 62
     7
370
    25
100
AcDbCircle
 10
14.4126241421
 20
37.8546643033
 30
0.0
 40
0.1249999999999985
100
AcDbArc
 50
45.0
 51
135.0
  0
LINE
  5
E3
330
1F
100
AcDbEntity
  8
0
  6
Continuous
 62
     7
370
    25
100
AcDbLine
 10
14.3242353798
 20
37.9430526701
 30
0.0
 11
14.147459502
 21
37.7662759855
 31
0.0
  0
ARC
  5
E4
330
1F
100
AcDbEntity
  8
0
  6
Continuous
 62
     7
370
    25
100
AcDbCircle
 10
14.2358474468
 20
37.677887608
 30
0.0
 40
0.1249999999999998
100
AcDbArc
 50
135.0
 51
225.0
  0
LINE
  5
E5
330
1F
100
AcDbEntity
  8
0
  6
Continuous
 62
     7
370
    25
100
AcDbLine
 10
14.147459502
 20
37.5894992277
 30
0.0
 11
14.3242353798
 21
37.4127225798
 31
0.0
  0
ARC
  5
E6
330
1F
100
AcDbEntity
  8
0
  6
Continuous
 62
     7
370
    25
100
AcDbCircle
 10
14.4126241421
 20
37.5011109127
 30
0.0
 40
0.1250000000000035
100
AcDbArc
 50
225.0
 51
315.0
  0
LINE
  5
E7
330
1F
100
AcDbEntity
  8
0
  6
Continuous
 62
     7
370
    25
100
AcDbLine
 10
14.501012431
 20
37.4127225798
 30
0.0
 11
14.6777894822
 21
37.5894992277
 31
0.0
  0
LINE
  5
E8
330
1F
100
AcDbEntity
  8
0
  6
Continuous
 62
     7
370
    25
100
AcDbLine
 10
14.245220506
 20
39.0898235225
 30
0.0
 11
14.0684434548
 21
39.266600427
 31
0.0
  0
ARC
  5
E9
330
1F
100
AcDbEntity
  8
0
  6
Continuous
 62
     7
370
    25
100
AcDbCircle
 10
13.9800552516
 20
39.1782119363
 30
0.0
 40
0.1250000000000374
100
AcDbArc
 50
44.9999999998
 51
134.9999999997
  0
LINE
  5
EA
330
1F
100
AcDbEntity
  8
0
  6
Continuous
 62
     7
370
    25
100
AcDbLine
 10
13.8916664036
 20
39.266600427
 30
0.0
 11
13.7148905257
 21
39.0898235225
 31
0.0
  0
ARC
  5
EB
330
1F
100
AcDbEntity
  8
0
  6
Continuous
 62
     7
370
    25
100
AcDbCircle
 10
13.8032785563
 20
39.001435241
 30
0.0
 40
0.1249999999999822
100
AcDbArc
 50
135.0
 51
225.0000000002
  0
LINE
  5
EC
330
1F
100
AcDbEntity
  8
0
  6
Continuous
 62
     7
370
    25
100
AcDbLine
 10
13.7148905257
 20
38.9130469113
 30
0.0
 11
13.8916664036
 21
38.7362701534
 31
0.0
  0
ARC
  5
ED
330
1F
100
AcDbEntity
  8
0
  6
Continuous
 62
     7
370
    25
100
AcDbCircle
 10
13.9800552516
 20
38.8246585457
 30
0.0
 40
0.1250000000000764
100
AcDbArc
 50
225.0
 51
314.9999999999
  0
LINE
  5
EE
330
1F
100
AcDbEntity
  8
0
  6
Continuous
 62
     7
370
    25
100
AcDbLine
 10
14.0684434548
 20
38.7362701534
 30
0.0
 11
14.245220506
 21
38.9130469113
 31
0.0
  0
ARC
  5
EF
330
1F
100
AcDbEntity
  8
0
  6
Continuous
 62
     7
370
    25
100
AcDbCircle
 10
14.1568319469
 20
39.001435241
 30
0.0
 40
0.1249999999999432
100
AcDbArc
 50
315.0
 51
45.0000000001
  0
ARC
  5
F0
330
1F
100
AcDbEntity
  8
0
  6
Continuous
 62
     7
370
    25
100
AcDbCircle
 10
15.4694008374
 20
38.557887608
 30
0.0
 40
0.1250000000000035
100
AcDbArc
 50
315.0
 51
45.0
  0
LINE
  5
F1
330
1F
100
AcDbEntity
  8
0
  6
Continuous
 62
     7
370
    25
100
AcDbLine
 10
15.5577887031
 20
38.6462759397
 30
0.0
 11
15.3810128252
 21
38.8230526976
 31
0.0
  0
ARC
  5
F2
330
1F
100
AcDbEntity
  8
0
  6
Continuous
 62
     7
370
    25
100
AcDbCircle
 10
15.2926241421
 20
38.7346643033
 30
0.0
 40
0.1250000000000035
100
AcDbArc
 50
45.0
 51
135.0
  0
LINE
  5
F3
330
1F
100
AcDbEntity
  8
0
  6
Continuous
 62
     7
370
    25
100
AcDbLine
 10
15.204235774
 20
38.8230526976
 30
0.0
 11
15.0274587228
 21
38.6462759397
 31
0.0
  0
ARC
  5
F4
330
1F
100
AcDbEntity
  8
0
  6
Continuous
 62
     7
370
    25
100
AcDbCircle
 10
15.1158474468
 20
38.557887608
 30
0.0
 40
0.1250000000000073
100
AcDbArc
 50
135.0
 51
225.0
  0
LINE
  5
F5
330
1F
100
AcDbEntity
  8
0
  6
Continuous
 62
     7
370
    25
100
AcDbLine
 10
15.0274587228
 20
38.4694993285
 30
0.0
 11
15.204235774
 21
38.2927225707
 31
0.0
  0
ARC
  5
F6
330
1F
100
AcDbEntity
  8
0
  6
Continuous
 62
     7
370
    25
100
AcDbCircle
 10
15.2926241421
 20
38.3811109127
 30
0.0
 40
0.1250000000000023
100
AcDbArc
 50
225.0
 51
315.0
  0
LINE
  5
F7
330
1F
100
AcDbEntity
  8
0
  6
Continuous
 62
     7
370
    25
100
AcDbLine
 10
15.3810128252
 20
38.2927225707
 30
0.0
 11
15.5577887031
 21
38.4694993285
 31
0.0
  0
LINE
  5
F8
330
1F
100
AcDbEntity
  8
0
  6
Continuous
 62
     7
370
    25
100
AcDbLine
 10
15.1252197268
 20
39.0898235225
 30
0.0
 11
14.9484438489
 21
39.266600427
 31
0.0
  0
ARC
  5
F9
330
1F
100
AcDbEntity
  8
0
  6
Continuous
 62
     7
370
    25
100
AcDbCircle
 10
14.8600552516
 20
39.1782119363
 30
0.0
 40
0.1249999999999194
100
AcDbArc
 50
44.9999999995
 51
134.9999999997
  0
LINE
  5
FA
330
1F
100
AcDbEntity
  8
0
  6
Continuous
 62
     7
370
    25
100
AcDbLine
 10
14.7716667977
 20
39.266600427
 30
0.0
 11
14.5948897466
 21
39.0898235225
 31
0.0
  0
ARC
  5
FB
330
1F
100
AcDbEntity
  8
0
  6
Continuous
 62
     7
370
    25
100
AcDbCircle
 10
14.6832785563
 20
39.001435241
 30
0.0
 40
0.1250000000000161
100
AcDbArc
 50
134.9999999999
 51
225.0000000002
  0
LINE
  5
FC
330
1F
100
AcDbEntity
  8
0
  6
Continuous
 62
     7
370
    25
100
AcDbLine
 10
14.5948897466
 20
38.9130469113
 30
0.0
 11
14.7716667977
 21
38.7362701534
 31
0.0
  0
ARC
  5
FD
330
1F
100
AcDbEntity
  8
0
  6
Continuous
 62
     7
370
    25
100
AcDbCircle
 10
14.8600552516
 20
38.8246585457
 30
0.0
 40
0.1250000000001379
100
AcDbArc
 50
224.9999999997
 51
315.0
  0
LINE
  5
FE
330
1F
100
AcDbEntity
  8
0
  6
Continuous
 62
     7
370
    25
100
AcDbLine
 10
14.9484438489
 20
38.7362701534
 30
0.0
 11
15.1252197268
 21
38.9130469113
 31
0.0
  0
ARC
  5
FF
330
1F
100
AcDbEntity
  8
0
  6
Continuous
 62
     7
370
    25
100
AcDbCircle
 10
15.0368319469
 20
39.001435241
 30
0.0
 40
0.1250000000000048
100
AcDbArc
 50
315.0
 51
45.0
  0
LINE
  5
100
330
1F
100
AcDbEntity
  8
0
  6
Continuous
 62
     7
370
    25
100
AcDbLine
 10
13.3652201118
 20
38.2098235683
 30
0.0
 11
13.1884430606
 21
38.3866003262
 31
0.0
  0
ARC
  5
101
330
1F
100
AcDbEntity
  8
0
  6
Continuous
 62
     7
370
    25
100
AcDbCircle
 10
13.1000552516
 20
38.2982119363
 30
0.0
 40
0.1249999999999633
100
AcDbArc
 50
44.9999999998
 51
134.9999999998
  0
LINE
  5
102
330
1F
100
AcDbEntity
  8
0
  6
Continuous
 62
     7
370
    25
100
AcDbLine
 10
13.0116671827
 20
38.3866003262
 30
0.0
 11
12.8348901316
 21
38.2098235683
 31
0.0
  0
ARC
  5
103
330
1F
100
AcDbEntity
  8
0
  6
Continuous
 62
     7
370
    25
100
AcDbCircle
 10
12.9232785563
 20
38.121435241
 30
0.0
 40
0.1249999999999847
100
AcDbArc
 50
135.0
 51
225.0000000002
  0
LINE
  5
104
330
1F
100
AcDbEntity
  8
0
  6
Continuous
 62
     7
370
    25
100
AcDbLine
 10
12.8348901316
 20
38.0330468838
 30
0.0
 11
13.0116671827
 21
37.8562701993
 31
0.0
  0
ARC
  5
105
330
1F
100
AcDbEntity
  8
0
  6
Continuous
 62
     7
370
    25
100
AcDbCircle
 10
13.1000552516
 20
37.9446585457
 30
0.0
 40
0.1249999999999985
100
AcDbArc
 50
225.0
 51
315.0
  0
LINE
  5
106
330
1F
100
AcDbEntity
  8
0
  6
Continuous
 62
     7
370
    25
100
AcDbLine
 10
13.1884430606
 20
37.8562701993
 30
0.0
 11
13.3652201118
 21
38.0330468838
 31
0.0
  0
ARC
  5
107
330
1F
100
AcDbEntity
  8
0
  6
Continuous
 62
     7
370
    25
100
AcDbCircle
 10
13.2768319469
 20
38.121435241
 30
0.0
 40
0.1250000000000073
100
AcDbArc
 50
315.0
 51
45.0
  0
ARC
  5
108
330
1F
100
AcDbEntity
  8
0
  6
Continuous
 62
     7
370
    25
100
AcDbCircle
 10
12.8294008374
 20
37.677887608
 30
0.0
 40
0.1250000000000048
100
AcDbArc
 50
315.0
 51
45.0
  0
LINE
  5
109
330
1F
100
AcDbEntity
  8
0
  6
Continuous
 62
     7
370
    25
100
AcDbLine
 10
12.9177886939
 20
37.7662759855
 30
0.0
 11
12.741012816
 21
37.9430526701
 31
0.0
  0
ARC
  5
10A
330
1F
100
AcDbEntity
  8
0
  6
Continuous
 62
     7
370
    25
100
AcDbCircle
 10
12.6526241421
 20
37.8546643033
 30
0.0
 40
0.124999999999996
100
AcDbArc
 50
45.0
 51
135.0
  0
LINE
  5
10B
330
1F
100
AcDbEntity
  8
0
  6
Continuous
 62
     7
370
    25
100
AcDbLine
 10
12.5642357648
 20
37.9430526701
 30
0.0
 11
12.3874587137
 21
37.7662759855
 31
0.0
  0
ARC
  5
10C
330
1F
100
AcDbEntity
  8
0
  6
Continuous
 62
     7
370
    25
100
AcDbCircle
 10
12.4758474468
 20
37.677887608
 30
0.0
 40
0.1249999999999998
100
AcDbArc
 50
135.0
 51
225.0
  0
LINE
  5
10D
330
1F
100
AcDbEntity
  8
0
  6
Continuous
 62
     7
370
    25
100
AcDbLine
 10
12.3874587137
 20
37.5894992277
 30
0.0
 11
12.5642357648
 21
37.4127225798
 31
0.0
  0
ARC
  5
10E
330
1F
100
AcDbEntity
  8
0
  6
Continuous
 62
     7
370
    25
100
AcDbCircle
 10
12.6526241421
 20
37.5011109127
 30
0.0
 40
0.1250000000000048
100
AcDbArc
 50
225.0
 51
315.0
  0
LINE
  5
10F
330
1F
100
AcDbEntity
  8
0
  6
Continuous
 62
     7
370
    25
100
AcDbLine
 10
12.741012816
 20
37.4127225798
 30
0.0
 11
12.9177886939
 21
37.5894992277
 31
0.0
  0
ARC
  5
110
330
1F
100
AcDbEntity
  8
0
  6
Continuous
 62
     7
370
    25
100
AcDbCircle
 10
13.7094008374
 20
37.677887608
 30
0.0
 40
0.1249999999999998
100
AcDbArc
 50
315.0
 51
45.0
  0
LINE
  5
111
330
1F
100
AcDbEntity
  8
0
  6
Continuous
 62
     7
370
    25
100
AcDbLine
 10
13.7977890881
 20
37.7662759855
 30
0.0
 11
13.6210120369
 21
37.9430526701
 31
0.0
  0
ARC
  5
112
330
1F
100
AcDbEntity
  8
0
  6
Continuous
 62
     7
370
    25
100
AcDbCircle
 10
13.5326241421
 20
37.8546643033
 30
0.0
 40
0.1250000000000023
100
AcDbArc
 50
45.0
 51
135.0
  0
LINE
  5
113
330
1F
100
AcDbEntity
  8
0
  6
Continuous
 62
     7
370
    25
100
AcDbLine
 10
13.444236159
 20
37.9430526701
 30
0.0
 11
13.2674591078
 21
37.7662759855
 31
0.0
  0
ARC
  5
114
330
1F
100
AcDbEntity
  8
0
  6
Continuous
 62
     7
370
    25
100
AcDbCircle
 10
13.3558474468
 20
37.677887608
 30
0.0
 40
0.125000000000006
100
AcDbArc
 50
135.0
 51
225.0
  0
LINE
  5
115
330
1F
100
AcDbEntity
  8
0
  6
Continuous
 62
     7
370
    25
100
AcDbLine
 10
13.2674591078
 20
37.5894992277
 30
0.0
 11
13.444236159
 21
37.4127225798
 31
0.0
  0
ARC
  5
116
330
1F
100
AcDbEntity
  8
0
  6
Continuous
 62
     7
370
    25
100
AcDbCircle
 10
13.5326241421
 20
37.5011109127
 30
0.0
 40
0.1249999999999972
100
AcDbArc
 50
225.0
 51
315.0
  0
LINE
  5
117
330
1F
100
AcDbEntity
  8
0
  6
Continuous
 62
     7
370
    25
100
AcDbLine
 10
13.6210120369
 20
37.4127225798
 30
0.0
 11
13.7977890881
 21
37.5894992277
 31
0.0
  0
ARC
  5
118
330
1F
100
AcDbEntity
  8
0
  6
Continuous
 62
     7
370
    25
100
AcDbCircle
 10
13.7094008374
 20
38.557887608
 30
0.0
 40
0.1249999999999998
100
AcDbArc
 50
315.0
 51
45.0
  0
LINE
  5
119
330
1F
100
AcDbEntity
  8
0
  6
Continuous
 62
     7
370
    25
100
AcDbLine
 10
13.7977890881
 20
38.6462759397
 30
0.0
 11
13.6210120369
 21
38.8230526976
 31
0.0
  0
ARC
  5
11A
330
1F
100
AcDbEntity
  8
0
  6
Continuous
 62
     7
370
    25
100
AcDbCircle
 10
13.5326241421
 20
38.7346643033
 30
0.0
 40
0.1249999999999972
100
AcDbArc
 50
45.0
 51
135.0
  0
LINE
  5
11B
330
1F
100
AcDbEntity
  8
0
  6
Continuous
 62
     7
370
    25
100
AcDbLine
 10
13.444236159
 20
38.8230526976
 30
0.0
 11
13.2674591078
 21
38.6462759397
 31
0.0
  0
ARC
  5
11C
330
1F
100
AcDbEntity
  8
0
  6
Continuous
 62
     7
370
    25
100
AcDbCircle
 10
13.3558474468
 20
38.557887608
 30
0.0
 40
0.125000000000001
100
AcDbArc
 50
135.0
 51
225.0
  0
LINE
  5
11D
330
1F
100
AcDbEntity
  8
0
  6
Continuous
 62
     7
370
    25
100
AcDbLine
 10
13.2674591078
 20
38.4694993285
 30
0.0
 11
13.444236159
 21
38.2927225707
 31
0.0
  0
ARC
  5
11E
330
1F
100
AcDbEntity
  8
0
  6
Continuous
 62
     7
370
    25
100
AcDbCircle
 10
13.5326241421
 20
38.3811109127
 30
0.0
 40
0.1250000000000023
100
AcDbArc
 50
225.0
 51
315.0
  0
LINE
  5
11F
330
1F
100
AcDbEntity
  8
0
  6
Continuous
 62
     7
370
    25
100
AcDbLine
 10
13.6210120369
 20
38.2927225707
 30
0.0
 11
13.7977890881
 21
38.4694993285
 31
0.0
  0
LINE
  5
120
330
1F
100
AcDbEntity
  8
0
  6
Continuous
 62
     7
370
    25
100
AcDbLine
 10
15.4748901407
 20
38.0330468838
 30
0.0
 11
15.6461772287
 21
37.8617595758
 31
0.0
  0
LINE
  5
121
330
1F
100
AcDbEntity
  8
0
  6
Continuous
 62
     7
370
    25
100
AcDbLine
 10
15.6461772287
 20
37.8617595758
 30
0.0
 11
15.6461772287
 21
38.3811109496
 31
0.0
  0
LINE
  5
122
330
1F
100
AcDbEntity
  8
0
  6
Continuous
 62
     7
370
    25
100
AcDbLine
 10
15.6461772287
 20
38.3811109496
 30
0.0
 11
15.4748901407
 21
38.2098235683
 31
0.0
  0
ARC
  5
123
330
1F
100
AcDbEntity
  8
0
  6
Continuous
 62
     7
370
    25
100
AcDbCircle
 10
15.5632785563
 20
38.121435241
 30
0.0
 40
0.1249999999999897
100
AcDbArc
 50
135.0
 51
225.0
  0
LINE
  5
124
330
1F
100
AcDbEntity
  8
0
  6
Continuous
 62
     7
370
    25
100
AcDbLine
 10
14.245220506
 20
37.3298235775
 30
0.0
 11
14.0684434548
 21
37.5066002987
 31
0.0
  0
ARC
  5
125
330
1F
100
AcDbEntity
  8
0
  6
Continuous
 62
     7
370
    25
100
AcDbCircle
 10
13.9800552516
 20
37.4182119363
 30
0.0
 40
0.1249999999995576
100
AcDbArc
 50
45.0000000017
 51
134.999999998
  0
LINE
  5
126
330
1F
100
AcDbEntity
  8
0
  6
Continuous
 62
     7
370
    25
100
AcDbLine
 10
13.8916664036
 20
37.5066002987
 30
0.0
 11
13.7148905257
 21
37.3298235775
 31
0.0
  0
ARC
  5
127
330
1F
100
AcDbEntity
  8
0
  6
Continuous
 62
     7
370
    25
100
AcDbCircle
 10
13.8032785563
 20
37.241435241
 30
0.0
 40
0.1249999999999797
100
AcDbArc
 50
135.0
 51
138.4562448178
  0
LINE
  5
128
330
1F
100
AcDbEntity
  8
0
  6
Continuous
 62
     7
370
    25
100
AcDbLine
 10
14.2503878063
 20
37.3243342009
 30
0.0
 11
13.7097220521
 21
37.3243342009
 31
0.0
  0
ARC
  5
129
330
1F
100
AcDbEntity
  8
0
  6
Continuous
 62
     7
370
    25
100
AcDbCircle
 10
14.1568319469
 20
37.241435241
 30
0.0
 40
0.1250000000000956
100
AcDbArc
 50
41.543755185
 51
45.0000000028
  0
LINE
  5
12A
330
1F
100
AcDbEntity
  8
0
  6
Continuous
 62
     7
370
    25
100
AcDbLine
 10
15.4748901407
 20
38.9130469113
 30
0.0
 11
15.6461772287
 21
38.74175953
 31
0.0
  0
LINE
  5
12B
330
1F
100
AcDbEntity
  8
0
  6
Continuous
 62
     7
370
    25
100
AcDbLine
 10
15.6461772287
 20
38.74175953
 30
0.0
 11
15.6461772287
 21
39.2611109038
 31
0.0
  0
LINE
  5
12C
330
1F
100
AcDbEntity
  8
0
  6
Continuous
 62
     7
370
    25
100
AcDbLine
 10
15.6461772287
 20
39.2611109038
 30
0.0
 11
15.4748901407
 21
39.0898235225
 31
0.0
  0
ARC
  5
12D
330
1F
100
AcDbEntity
  8
0
  6
Continuous
 62
     7
370
    25
100
AcDbCircle
 10
15.5632785563
 20
39.001435241
 30
0.0
 40
0.1249999999999872
100
AcDbArc
 50
135.0
 51
225.0000000001
  0
LINE
  5
12E
330
1F
100
AcDbEntity
  8
0
  6
Continuous
 62
     7
370
    25
100
AcDbLine
 10
14.0684434548
 20
39.6162702543
 30
0.0
 11
14.2436142312
 21
39.7914410307
 31
0.0
  0
LINE
  5
12F
330
1F
100
AcDbEntity
  8
0
  6
Continuous
 62
     7
370
    25
100
AcDbLine
 10
14.2436142312
 20
39.7914410307
 30
0.0
 11
13.7164956272
 21
39.7914410307
 31
0.0
  0
LINE
  5
130
330
1F
100
AcDbEntity
  8
0
  6
Continuous
 62
     7
370
    25
100
AcDbLine
 10
13.7164956272
 20
39.7914410307
 30
0.0
 11
13.8916664036
 21
39.6162702543
 31
0.0
  0
ARC
  5
131
330
1F
100
AcDbEntity
  8
0
  6
Continuous
 62
     7
370
    25
100
AcDbCircle
 10
13.9800552516
 20
39.7046585457
 30
0.0
 40
0.1249999999999998
100
AcDbArc
 50
225.0
 51
315.0
  0
LINE
  5
132
330
1F
100
AcDbEntity
  8
0
  6
Continuous
 62
     7
370
    25
100
AcDbLine
 10
11.6052204968
 20
37.3298235775
 30
0.0
 11
11.4284434456
 21
37.5066002987
 31
0.0
  0
ARC
  5
133
330
1F
100
AcDbEntity
  8
0
  6
Continuous
 62
     7
370
    25
100
AcDbCircle
 10
11.3400552516
 20
37.4182119363
 30
0.0
 40
0.1249999999996945
100
AcDbArc
 50
45.0000000046
 51
134.9999999955
  0
LINE
  5
134
330
1F
100
AcDbEntity
  8
0
  6
Continuous
 62
     7
370
    25
100
AcDbLine
 10
11.2516663944
 20
37.5066002987
 30
0.0
 11
11.0748905166
 21
37.3298235775
 31
0.0
  0
ARC
  5
135
330
1F
100
AcDbEntity
  8
0
  6
Continuous
 62
     7
370
    25
100
AcDbCircle
 10
11.1632785563
 20
37.241435241
 30
0.0
 40
0.1249999999999859
100
AcDbArc
 50
135.0
 51
138.4562448178
  0
LINE
  5
136
330
1F
100
AcDbEntity
  8
0
  6
Continuous
 62
     7
370
    25
100
AcDbLine
 10
11.6103877971
 20
37.3243342009
 30
0.0
 11
11.0697220429
 21
37.3243342009
 31
0.0
  0
ARC
  5
137
330
1F
100
AcDbEntity
  8
0
  6
Continuous
 62
     7
370
    25
100
AcDbCircle
 10
11.5168319469
 20
37.241435241
 30
0.0
 40
0.1250000000000122
100
AcDbArc
 50
41.5437551834
 51
45.0000000015
  0
LINE
  5
138
330
1F
100
AcDbEntity
  8
0
  6
Continuous
 62
     7
370
    25
100
AcDbLine
 10
9.8452202951
 20
38.2098235683
 30
0.0
 11
9.6684438306
 21
38.3866003262
 31
0.0
  0
ARC
  5
139
330
1F
100
AcDbEntity
  8
0
  6
Continuous
 62
     7
370
    25
100
AcDbCircle
 10
9.5800552516
 20
38.2982119363
 30
0.0
 40
0.1250000000000437
100
AcDbArc
 50
44.9999999995
 51
50.7929982084
  0
LINE
  5
13A
330
1F
100
AcDbEntity
  8
0
  6
Continuous
 62
     7
370
    25
100
AcDbLine
 10
9.6590707656
 20
37.8478001504
 30
0.0
 11
9.6590707656
 21
38.395070375
 31
0.0
  0
ARC
  5
13B
330
1F
100
AcDbEntity
  8
0
  6
Continuous
 62
     7
370
    25
100
AcDbCircle
 10
9.5800552516
 20
37.9446585457
 30
0.0
 40
0.124999999999996
100
AcDbArc
 50
309.2070017911
 51
315.0
  0
LINE
  5
13C
330
1F
100
AcDbEntity
  8
0
  6
Continuous
 62
     7
370
    25
100
AcDbLine
 10
9.6684438306
 20
37.8562701993
 30
0.0
 11
9.8452202951
 21
38.0330468838
 31
0.0
  0
ARC
  5
13D
330
1F
100
AcDbEntity
  8
0
  6
Continuous
 62
     7
370
    25
100
AcDbCircle
 10
9.7568319469
 20
38.121435241
 30
0.0
 40
0.1250000000000035
100
AcDbArc
 50
315.0
 51
45.0
  0
LINE
  5
13E
330
1F
100
AcDbEntity
  8
0
  6
Continuous
 62
     7
370
    25
100
AcDbLine
 10
10.5484430515
 20
39.6162702543
 30
0.0
 11
10.7236138279
 21
39.7914410307
 31
0.0
  0
LINE
  5
13F
330
1F
100
AcDbEntity
  8
0
  6
Continuous
 62
     7
370
    25
100
AcDbLine
 10
10.7236138279
 20
39.7914410307
 30
0.0
 11
10.1964958105
 21
39.7914410307
 31
0.0
  0
LINE
  5
140
330
1F
100
AcDbEntity
  8
0
  6
Continuous
 62
     7
370
    25
100
AcDbLine
 10
10.1964958105
 20
39.7914410307
 30
0.0
 11
10.3716671736
 21
39.6162702543
 31
0.0
  0
ARC
  5
141
330
1F
100
AcDbEntity
  8
0
  6
Continuous
 62
     7
370
    25
100
AcDbCircle
 10
10.4600552516
 20
39.7046585457
 30
0.0
 40
0.125000000000001
100
AcDbArc
 50
225.0
 51
315.0
  0
LINE
  5
142
330
1F
100
AcDbEntity
  8
0
  6
Continuous
 62
     7
370
    25
100
AcDbLine
 10
12.4852197176
 20
37.3298235775
 30
0.0
 11
12.3084438398
 21
37.5066002987
 31
0.0
  0
ARC
  5
143
330
1F
100
AcDbEntity
  8
0
  6
Continuous
 62
     7
370
    25
100
AcDbCircle
 10
12.2200552516
 20
37.4182119363
 30
0.0
 40
0.1249999999999206
100
AcDbArc
 50
45.000000004
 51
134.9999999961
  0
LINE
  5
144
330
1F
100
AcDbEntity
  8
0
  6
Continuous
 62
     7
370
    25
100
AcDbLine
 10
12.1316667886
 20
37.5066002987
 30
0.0
 11
11.9548897374
 21
37.3298235775
 31
0.0
  0
ARC
  5
145
330
1F
100
AcDbEntity
  8
0
  6
Continuous
 62
     7
370
    25
100
AcDbCircle
 10
12.0432785563
 20
37.241435241
 30
0.0
 40
0.1249999999999156
100
AcDbArc
 50
135.0
 51
138.4562448178
  0
LINE
  5
146
330
1F
100
AcDbEntity
  8
0
  6
Continuous
 62
     7
370
    25
100
AcDbLine
 10
12.4903881913
 20
37.3243342009
 30
0.0
 11
11.9497224371
 21
37.3243342009
 31
0.0
  0
ARC
  5
147
330
1F
100
AcDbEntity
  8
0
  6
Continuous
 62
     7
370
    25
100
AcDbCircle
 10
12.3968319469
 20
37.241435241
 30
0.0
 40
0.1250000000000249
100
AcDbArc
 50
41.5437551831
 51
45.0000000013
  0
LINE
  5
148
330
1F
100
AcDbEntity
  8
0
  6
Continuous
 62
     7
370
    25
100
AcDbLine
 10
15.204235774
 20
37.9430526701
 30
0.0
 11
15.0274587228
 21
37.7662759855
 31
0.0
  0
ARC
  5
149
330
1F
100
AcDbEntity
  8
0
  6
Continuous
 62
     7
370
    25
100
AcDbCircle
 10
15.1158474468
 20
37.677887608
 30
0.0
 40
0.125000000000006
100
AcDbArc
 50
134.9999999999
 51
225.0
  0
LINE
  5
14A
330
1F
100
AcDbEntity
  8
0
  6
Continuous
 62
     7
370
    25
100
AcDbLine
 10
15.0274587228
 20
37.5894992277
 30
0.0
 11
15.204235774
 21
37.4127225798
 31
0.0
  0
ARC
  5
14B
330
1F
100
AcDbEntity
  8
0
  6
Continuous
 62
     7
370
    25
100
AcDbCircle
 10
15.2926241421
 20
37.5011109127
 30
0.0
 40
0.1249999999999897
100
AcDbArc
 50
225.0
 51
315.0
  0
LINE
  5
14C
330
1F
100
AcDbEntity
  8
0
  6
Continuous
 62
     7
370
    25
100
AcDbLine
 10
15.3810128252
 20
37.4127225798
 30
0.0
 11
15.5577887031
 21
37.5894992277
 31
0.0
  0
ARC
  5
14D
330
1F
100
AcDbEntity
  8
0
  6
Continuous
 62
     7
370
    25
100
AcDbCircle
 10
15.4694008374
 20
37.677887608
 30
0.0
 40
0.1249999999999998
100
AcDbArc
 50
315.0
 51
45.0000000001
  0
LINE
  5
14E
330
1F
100
AcDbEntity
  8
0
  6
Continuous
 62
     7
370
    25
100
AcDbLine
 10
15.5577887031
 20
37.7662759855
 30
0.0
 11
15.3810128252
 21
37.9430526701
 31
0.0
  0
ARC
  5
14F
330
1F
100
AcDbEntity
  8
0
  6
Continuous
 62
     7
370
    25
100
AcDbCircle
 10
15.2926241421
 20
37.8546643033
 30
0.0
 40
0.1249999999999998
100
AcDbArc
 50
45.0000000001
 51
134.9999999999
  0
LINE
  5
150
330
1F
100
AcDbEntity
  8
0
  6
Continuous
 62
     7
370
    25
100
AcDbLine
 10
16.4026247034
 20
37.0099943888
 30
0.0
 11
16.4026247034
 21
40.3128875135
 31
0.0
  0
LINE
  5
151
330
1F
100
AcDbEntity
  8
0
  6
Continuous
 62
     7
370
    25
100
AcDbLine
 10
16.4026247034
 20
37.0099943888
 30
0.0
 11
0.9026241391
 21
37.0099943888
 31
0.0
  0
LINE
  5
152
330
1F
100
AcDbEntity
  8
0
  6
Continuous
 62
     7
370
    25
100
AcDbLine
 10
0.9026241391
 20
37.0099943888
 30
0.0
 11
0.9026241391
 21
39.7701675698
 31
0.0
  0
LINE
  5
153
330
1F
100
AcDbEntity
  8
0
  6
Continuous
 62
     7
370
    25
100
AcDbLine
 10
0.9026241391
 20
39.7701675698
 30
0.0
 11
1.1526241361
 21
39.7701675698
 31
0.0
  0
LINE
  5
154
330
1F
100
AcDbEntity
  8
0
  6
Continuous
 62
     7
370
    25
100
AcDbLine
 10
1.1526241361
 20
39.7701675698
 30
0.0
 11
1.1526241361
 21
40.3128875135
 31
0.0
  0
LINE
  5
155
330
1F
100
AcDbEntity
  8
0
  6
Continuous
 62
     7
370
    25
100
AcDbLine
 10
16.4026247034
 20
40.3128875135
 30
0.0
 11
1.1526241361
 21
40.3128875135
 31
0.0
  0
LINE
  5
156
330
1F
100
AcDbEntity
  8
0
  6
Continuous
 62
     7
370
    25
100
AcDbLine
 10
12.3084438398
 20
39.6162702543
 30
0.0
 11
12.4836146162
 21
39.7914410307
 31
0.0
  0
LINE
  5
157
330
1F
100
AcDbEntity
  8
0
  6
Continuous
 62
     7
370
    25
100
AcDbLine
 10
12.4836146162
 20
39.7914410307
 30
0.0
 11
11.9564960122
 21
39.7914410307
 31
0.0
  0
LINE
  5
158
330
1F
100
AcDbEntity
  8
0
  6
Continuous
 62
     7
370
    25
100
AcDbLine
 10
11.9564960122
 20
39.7914410307
 30
0.0
 11
12.1316667886
 21
39.6162702543
 31
0.0
  0
ARC
  5
159
330
1F
100
AcDbEntity
  8
0
  6
Continuous
 62
     7
370
    25
100
AcDbCircle
 10
12.2200552516
 20
39.7046585457
 30
0.0
 40
0.124999999999996
100
AcDbArc
 50
225.0
 51
315.0
  0
LINE
  5
15A
330
1F
100
AcDbEntity
  8
0
  6
Continuous
 62
     7
370
    25
100
AcDbLine
 10
11.4284434456
 20
39.6162702543
 30
0.0
 11
11.603614222
 21
39.7914410307
 31
0.0
  0
LINE
  5
15B
330
1F
100
AcDbEntity
  8
0
  6
Continuous
 62
     7
370
    25
100
AcDbLine
 10
11.603614222
 20
39.7914410307
 30
0.0
 11
11.076495618
 21
39.7914410307
 31
0.0
  0
LINE
  5
15C
330
1F
100
AcDbEntity
  8
0
  6
Continuous
 62
     7
370
    25
100
AcDbLine
 10
11.076495618
 20
39.7914410307
 30
0.0
 11
11.2516663944
 21
39.6162702543
 31
0.0
  0
ARC
  5
15D
330
1F
100
AcDbEntity
  8
0
  6
Continuous
 62
     7
370
    25
100
AcDbCircle
 10
11.3400552516
 20
39.7046585457
 30
0.0
 40
0.1249999999999998
100
AcDbArc
 50
225.0
 51
315.0
  0
LINE
  5
15E
330
1F
100
AcDbEntity
  8
0
  6
Continuous
 62
     7
370
    25
100
AcDbLine
 10
9.8452202951
 20
39.0898235225
 30
0.0
 11
9.6684438306
 21
39.266600427
 31
0.0
  0
ARC
  5
15F
330
1F
100
AcDbEntity
  8
0
  6
Continuous
 62
     7
370
    25
100
AcDbCircle
 10
9.5800552516
 20
39.1782119363
 30
0.0
 40
0.1249999999999244
100
AcDbArc
 50
44.9999999996
 51
50.7929982115
  0
LINE
  5
160
330
1F
100
AcDbEntity
  8
0
  6
Continuous
 62
     7
370
    25
100
AcDbLine
 10
9.6590707656
 20
38.7278001046
 30
0.0
 11
9.6590707656
 21
39.2750703292
 31
0.0
  0
ARC
  5
161
330
1F
100
AcDbEntity
  8
0
  6
Continuous
 62
     7
370
    25
100
AcDbCircle
 10
9.5800552516
 20
38.8246585457
 30
0.0
 40
0.125000000000001
100
AcDbArc
 50
309.2070017881
 51
315.0
  0
LINE
  5
162
330
1F
100
AcDbEntity
  8
0
  6
Continuous
 62
     7
370
    25
100
AcDbLine
 10
9.6684438306
 20
38.7362701534
 30
0.0
 11
9.8452202951
 21
38.9130469113
 31
0.0
  0
ARC
  5
163
330
1F
100
AcDbEntity
  8
0
  6
Continuous
 62
     7
370
    25
100
AcDbCircle
 10
9.7568319469
 20
39.001435241
 30
0.0
 40
0.1250000000000073
100
AcDbArc
 50
315.0
 51
45.0
  0
LINE
  5
164
330
1F
100
AcDbEntity
  8
0
  6
Continuous
 62
     7
370
    25
100
AcDbLine
 10
10.7252201026
 20
37.3298235775
 30
0.0
 11
10.5484430515
 21
37.5066002987
 31
0.0
  0
ARC
  5
165
330
1F
100
AcDbEntity
  8
0
  6
Continuous
 62
     7
370
    25
100
AcDbCircle
 10
10.4600552516
 20
37.4182119363
 30
0.0
 40
0.1249999999997335
100
AcDbArc
 50
45.0000000055
 51
134.9999999945
  0
LINE
  5
166
330
1F
100
AcDbEntity
  8
0
  6
Continuous
 62
     7
370
    25
100
AcDbLine
 10
10.3716671736
 20
37.5066002987
 30
0.0
 11
10.1948901224
 21
37.3298235775
 31
0.0
  0
ARC
  5
167
330
1F
100
AcDbEntity
  8
0
  6
Continuous
 62
     7
370
    25
100
AcDbCircle
 10
10.2832785563
 20
37.241435241
 30
0.0
 40
0.1249999999999843
100
AcDbArc
 50
135.0
 51
138.4562448178
  0
LINE
  5
168
330
1F
100
AcDbEntity
  8
0
  6
Continuous
 62
     7
370
    25
100
AcDbLine
 10
10.7303885763
 20
37.3243342009
 30
0.0
 11
10.1897222354
 21
37.3243342009
 31
0.0
  0
ARC
  5
169
330
1F
100
AcDbEntity
  8
0
  6
Continuous
 62
     7
370
    25
100
AcDbCircle
 10
10.6368319469
 20
37.241435241
 30
0.0
 40
0.1250000000000068
100
AcDbArc
 50
41.5437551836
 51
45.0000000018
  0
LINE
  5
16A
330
1F
100
AcDbEntity
  8
0
  6
Continuous
 62
     7
370
    25
100
AcDbLine
 10
13.1884430606
 20
39.6162702543
 30
0.0
 11
13.363613837
 21
39.7914410307
 31
0.0
  0
LINE
  5
16B
330
1F
100
AcDbEntity
  8
0
  6
Continuous
 62
     7
370
    25
100
AcDbLine
 10
13.363613837
 20
39.7914410307
 30
0.0
 11
12.8364964063
 21
39.7914410307
 31
0.0
  0
LINE
  5
16C
330
1F
100
AcDbEntity
  8
0
  6
Continuous
 62
     7
370
    25
100
AcDbLine
 10
12.8364964063
 20
39.7914410307
 30
0.0
 11
13.0116671827
 21
39.6162702543
 31
0.0
  0
ARC
  5
16D
330
1F
100
AcDbEntity
  8
0
  6
Continuous
 62
     7
370
    25
100
AcDbCircle
 10
13.1000552516
 20
39.7046585457
 30
0.0
 40
0.124999999999996
100
AcDbArc
 50
225.0
 51
315.0
  0
LINE
  5
16E
330
1F
100
AcDbEntity
  8
0
  6
Continuous
 62
     7
370
    25
100
AcDbLine
 10
14.9484438489
 20
39.6162702543
 30
0.0
 11
15.1236146253
 21
39.7914410307
 31
0.0
  0
LINE
  5
16F
330
1F
100
AcDbEntity
  8
0
  6
Continuous
 62
     7
370
    25
100
AcDbLine
 10
15.1236146253
 20
39.7914410307
 30
0.0
 11
14.5964960213
 21
39.7914410307
 31
0.0
  0
LINE
  5
170
330
1F
100
AcDbEntity
  8
0
  6
Continuous
 62
     7
370
    25
100
AcDbLine
 10
14.5964960213
 20
39.7914410307
 30
0.0
 11
14.7716667977
 21
39.6162702543
 31
0.0
  0
ARC
  5
171
330
1F
100
AcDbEntity
  8
0
  6
Continuous
 62
     7
370
    25
100
AcDbCircle
 10
14.8600552516
 20
39.7046585457
 30
0.0
 40
0.1250000000000035
100
AcDbArc
 50
225.0
 51
315.0
  0
LINE
  5
172
330
1F
100
AcDbEntity
  8
0
  6
Continuous
 62
     7
370
    25
100
AcDbLine
 10
15.1252197268
 20
37.3298235775
 30
0.0
 11
14.9484438489
 21
37.5066002987
 31
0.0
  0
ARC
  5
173
330
1F
100
AcDbEntity
  8
0
  6
Continuous
 62
     7
370
    25
100
AcDbCircle
 10
14.8600552516
 20
37.4182119363
 30
0.0
 40
0.124999999999643
100
AcDbArc
 50
45.0000000012
 51
134.9999999984
  0
LINE
  5
174
330
1F
100
AcDbEntity
  8
0
  6
Continuous
 62
     7
370
    25
100
AcDbLine
 10
14.7716667977
 20
37.5066002987
 30
0.0
 11
14.5948897466
 21
37.3298235775
 31
0.0
  0
ARC
  5
175
330
1F
100
AcDbEntity
  8
0
  6
Continuous
 62
     7
370
    25
100
AcDbCircle
 10
14.6832785563
 20
37.241435241
 30
0.0
 40
0.1249999999999683
100
AcDbArc
 50
135.0
 51
138.4562448178
  0
LINE
  5
176
330
1F
100
AcDbEntity
  8
0
  6
Continuous
 62
     7
370
    25
100
AcDbLine
 10
15.1303882004
 20
37.3243342009
 30
0.0
 11
14.5897224462
 21
37.3243342009
 31
0.0
  0
ARC
  5
177
330
1F
100
AcDbEntity
  8
0
  6
Continuous
 62
     7
370
    25
100
AcDbCircle
 10
15.0368319469
 20
37.241435241
 30
0.0
 40
0.1250000000002058
100
AcDbArc
 50
41.5437551845
 51
45.0000000023
  0
LINE
  5
178
330
1F
100
AcDbEntity
  8
0
  6
Continuous
 62
     7
370
    25
100
AcDbLine
 10
13.3652201118
 20
37.3298235775
 30
0.0
 11
13.1884430606
 21
37.5066002987
 31
0.0
  0
ARC
  5
179
330
1F
100
AcDbEntity
  8
0
  6
Continuous
 62
     7
370
    25
100
AcDbCircle
 10
13.1000552516
 20
37.4182119363
 30
0.0
 40
0.1249999999997021
100
AcDbArc
 50
45.0000000028
 51
134.999999997
  0
LINE
  5
17A
330
1F
100
AcDbEntity
  8
0
  6
Continuous
 62
     7
370
    25
100
AcDbLine
 10
13.0116671827
 20
37.5066002987
 30
0.0
 11
12.8348901316
 21
37.3298235775
 31
0.0
  0
ARC
  5
17B
330
1F
100
AcDbEntity
  8
0
  6
Continuous
 62
     7
370
    25
100
AcDbCircle
 10
12.9232785563
 20
37.241435241
 30
0.0
 40
0.1249999999998046
100
AcDbArc
 50
135.0
 51
138.4562448177
  0
LINE
  5
17C
330
1F
100
AcDbEntity
  8
0
  6
Continuous
 62
     7
370
    25
100
AcDbLine
 10
13.3703885854
 20
37.3243342009
 30
0.0
 11
12.8297228312
 21
37.3243342009
 31
0.0
  0
ARC
  5
17D
330
1F
100
AcDbEntity
  8
0
  6
Continuous
 62
     7
370
    25
100
AcDbCircle
 10
13.2768319469
 20
37.241435241
 30
0.0
 40
0.1250000000000733
100
AcDbArc
 50
41.5437551835
 51
45.0000000014
  0
ARC
  5
17E
330
1F
100
AcDbEntity
  8
0
  6
Continuous
 62
     7
370
    25
100
AcDbCircle
 10
13.7094008374
 20
39.437887608
 30
0.0
 40
0.1250000000000048
100
AcDbArc
 50
315.0
 51
45.0
  0
LINE
  5
17F
330
1F
100
AcDbEntity
  8
0
  6
Continuous
 62
     7
370
    25
100
AcDbLine
 10
13.7977890881
 20
39.5262760405
 30
0.0
 11
13.6210120369
 21
39.7030525051
 31
0.0
  0
ARC
  5
180
330
1F
100
AcDbEntity
  8
0
  6
Continuous
 62
     7
370
    25
100
AcDbCircle
 10
13.5326241421
 20
39.6146643033
 30
0.0
 40
0.1250000000000023
100
AcDbArc
 50
45.0
 51
135.0
  0
LINE
  5
181
330
1F
100
AcDbEntity
  8
0
  6
Continuous
 62
     7
370
    25
100
AcDbLine
 10
13.444236159
 20
39.7030525051
 30
0.0
 11
13.2674591078
 21
39.5262760405
 31
0.0
  0
ARC
  5
182
330
1F
100
AcDbEntity
  8
0
  6
Continuous
 62
     7
370
    25
100
AcDbCircle
 10
13.3558474468
 20
39.437887608
 30
0.0
 40
0.1250000000000035
100
AcDbArc
 50
135.0
 51
225.0
  0
LINE
  5
183
330
1F
100
AcDbEntity
  8
0
  6
Continuous
 62
     7
370
    25
100
AcDbLine
 10
13.2674591078
 20
39.3494992827
 30
0.0
 11
13.444236159
 21
39.1727225248
 31
0.0
  0
ARC
  5
184
330
1F
100
AcDbEntity
  8
0
  6
Continuous
 62
     7
370
    25
100
AcDbCircle
 10
13.5326241421
 20
39.2611109127
 30
0.0
 40
0.1249999999999972
100
AcDbArc
 50
225.0
 51
315.0
  0
LINE
  5
185
330
1F
100
AcDbEntity
  8
0
  6
Continuous
 62
     7
370
    25
100
AcDbLine
 10
13.6210120369
 20
39.1727225248
 30
0.0
 11
13.7977890881
 21
39.3494992827
 31
0.0
  0
LINE
  5
186
330
1F
100
AcDbEntity
  8
0
  6
Continuous
 62
     7
370
    25
100
AcDbLine
 10
14.245220506
 20
38.2098235683
 30
0.0
 11
14.0684434548
 21
38.3866003262
 31
0.0
  0
ARC
  5
187
330
1F
100
AcDbEntity
  8
0
  6
Continuous
 62
     7
370
    25
100
AcDbCircle
 10
13.9800552516
 20
38.2982119363
 30
0.0
 40
0.1249999999999897
100
AcDbArc
 50
44.9999999998
 51
134.9999999998
  0
LINE
  5
188
330
1F
100
AcDbEntity
  8
0
  6
Continuous
 62
     7
370
    25
100
AcDbLine
 10
13.8916664036
 20
38.3866003262
 30
0.0
 11
13.7148905257
 21
38.2098235683
 31
0.0
  0
ARC
  5
189
330
1F
100
AcDbEntity
  8
0
  6
Continuous
 62
     7
370
    25
100
AcDbCircle
 10
13.8032785563
 20
38.121435241
 30
0.0
 40
0.1249999999999859
100
AcDbArc
 50
135.0
 51
225.0000000002
  0
LINE
  5
18A
330
1F
100
AcDbEntity
  8
0
  6
Continuous
 62
     7
370
    25
100
AcDbLine
 10
13.7148905257
 20
38.0330468838
 30
0.0
 11
13.8916664036
 21
37.8562701993
 31
0.0
  0
ARC
  5
18B
330
1F
100
AcDbEntity
  8
0
  6
Continuous
 62
     7
370
    25
100
AcDbCircle
 10
13.9800552516
 20
37.9446585457
 30
0.0
 40
0.1249999999999998
100
AcDbArc
 50
225.0
 51
315.0
  0
LINE
  5
18C
330
1F
100
AcDbEntity
  8
0
  6
Continuous
 62
     7
370
    25
100
AcDbLine
 10
14.0684434548
 20
37.8562701993
 30
0.0
 11
14.245220506
 21
38.0330468838
 31
0.0
  0
ARC
  5
18D
330
1F
100
AcDbEntity
  8
0
  6
Continuous
 62
     7
370
    25
100
AcDbCircle
 10
14.1568319469
 20
38.121435241
 30
0.0
 40
0.1250000000000035
100
AcDbArc
 50
315.0
 51
45.0
  0
ARC
  5
18E
330
1F
100
AcDbEntity
  8
0
  6
Continuous
 62
     7
370
    25
100
AcDbCircle
 10
12.8294008374
 20
38.557887608
 30
0.0
 40
0.1249999999999998
100
AcDbArc
 50
315.0
 51
45.0
  0
LINE
  5
18F
330
1F
100
AcDbEntity
  8
0
  6
Continuous
 62
     7
370
    25
100
AcDbLine
 10
12.9177886939
 20
38.6462759397
 30
0.0
 11
12.741012816
 21
38.8230526976
 31
0.0
  0
ARC
  5
190
330
1F
100
AcDbEntity
  8
0
  6
Continuous
 62
     7
370
    25
100
AcDbCircle
 10
12.6526241421
 20
38.7346643033
 30
0.0
 40
0.1250000000000023
100
AcDbArc
 50
45.0
 51
135.0
  0
LINE
  5
191
330
1F
100
AcDbEntity
  8
0
  6
Continuous
 62
     7
370
    25
100
AcDbLine
 10
12.5642357648
 20
38.8230526976
 30
0.0
 11
12.3874587137
 21
38.6462759397
 31
0.0
  0
ARC
  5
192
330
1F
100
AcDbEntity
  8
0
  6
Continuous
 62
     7
370
    25
100
AcDbCircle
 10
12.4758474468
 20
38.557887608
 30
0.0
 40
0.1250000000000048
100
AcDbArc
 50
135.0
 51
225.0
  0
LINE
  5
193
330
1F
100
AcDbEntity
  8
0
  6
Continuous
 62
     7
370
    25
100
AcDbLine
 10
12.3874587137
 20
38.4694993285
 30
0.0
 11
12.5642357648
 21
38.2927225707
 31
0.0
  0
ARC
  5
194
330
1F
100
AcDbEntity
  8
0
  6
Continuous
 62
     7
370
    25
100
AcDbCircle
 10
12.6526241421
 20
38.3811109127
 30
0.0
 40
0.1250000000000023
100
AcDbArc
 50
225.0
 51
315.0
  0
LINE
  5
195
330
1F
100
AcDbEntity
  8
0
  6
Continuous
 62
     7
370
    25
100
AcDbLine
 10
12.741012816
 20
38.2927225707
 30
0.0
 11
12.9177886939
 21
38.4694993285
 31
0.0
  0
LINE
  5
196
330
1F
100
AcDbEntity
  8
0
  6
Continuous
 62
     7
370
    25
100
AcDbLine
 10
13.3652201118
 20
39.0898235225
 30
0.0
 11
13.1884430606
 21
39.266600427
 31
0.0
  0
ARC
  5
197
330
1F
100
AcDbEntity
  8
0
  6
Continuous
 62
     7
370
    25
100
AcDbCircle
 10
13.1000552516
 20
39.1782119363
 30
0.0
 40
0.1249999999999432
100
AcDbArc
 50
44.9999999997
 51
134.9999999998
  0
LINE
  5
198
330
1F
100
AcDbEntity
  8
0
  6
Continuous
 62
     7
370
    25
100
AcDbLine
 10
13.0116671827
 20
39.266600427
 30
0.0
 11
12.8348901316
 21
39.0898235225
 31
0.0
  0
ARC
  5
199
330
1F
100
AcDbEntity
  8
0
  6
Continuous
 62
     7
370
    25
100
AcDbCircle
 10
12.9232785563
 20
39.001435241
 30
0.0
 40
0.1249999999999834
100
AcDbArc
 50
135.0
 51
225.0000000002
  0
LINE
  5
19A
330
1F
100
AcDbEntity
  8
0
  6
Continuous
 62
     7
370
    25
100
AcDbLine
 10
12.8348901316
 20
38.9130469113
 30
0.0
 11
13.0116671827
 21
38.7362701534
 31
0.0
  0
ARC
  5
19B
330
1F
100
AcDbEntity
  8
0
  6
Continuous
 62
     7
370
    25
100
AcDbCircle
 10
13.1000552516
 20
38.8246585457
 30
0.0
 40
0.1249999999999947
100
AcDbArc
 50
225.0
 51
315.0
  0
LINE
  5
19C
330
1F
100
AcDbEntity
  8
0
  6
Continuous
 62
     7
370
    25
100
AcDbLine
 10
13.1884430606
 20
38.7362701534
 30
0.0
 11
13.3652201118
 21
38.9130469113
 31
0.0
  0
ARC
  5
19D
330
1F
100
AcDbEntity
  8
0
  6
Continuous
 62
     7
370
    25
100
AcDbCircle
 10
13.2768319469
 20
39.001435241
 30
0.0
 40
0.125000000000006
100
AcDbArc
 50
315.0
 51
45.0
  0
LINE
  5
19E
330
1F
100
AcDbEntity
  8
0
  6
Continuous
 62
     7
370
    25
100
AcDbLine
 10
15.1252197268
 20
38.2098235683
 30
0.0
 11
14.9484438489
 21
38.3866003262
 31
0.0
  0
ARC
  5
19F
330
1F
100
AcDbEntity
  8
0
  6
Continuous
 62
     7
370
    25
100
AcDbCircle
 10
14.8600552516
 20
38.2982119363
 30
0.0
 40
0.1249999999997347
100
AcDbArc
 50
44.9999999996
 51
134.9999999999
  0
LINE
  5
1A0
330
1F
100
AcDbEntity
  8
0
  6
Continuous
 62
     7
370
    25
100
AcDbLine
 10
14.7716667977
 20
38.3866003262
 30
0.0
 11
14.5948897466
 21
38.2098235683
 31
0.0
  0
ARC
  5
1A1
330
1F
100
AcDbEntity
  8
0
  6
Continuous
 62
     7
370
    25
100
AcDbCircle
 10
14.6832785563
 20
38.121435241
 30
0.0
 40
0.1249999999999847
100
AcDbArc
 50
134.9999999999
 51
225.0
  0
LINE
  5
1A2
330
1F
100
AcDbEntity
  8
0
  6
Continuous
 62
     7
370
    25
100
AcDbLine
 10
14.5948897466
 20
38.0330468838
 30
0.0
 11
14.7716667977
 21
37.8562701993
 31
0.0
  0
ARC
  5
1A3
330
1F
100
AcDbEntity
  8
0
  6
Continuous
 62
     7
370
    25
100
AcDbCircle
 10
14.8600552516
 20
37.9446585457
 30
0.0
 40
0.1250000000000726
100
AcDbArc
 50
224.9999999997
 51
315.0000000001
  0
LINE
  5
1A4
330
1F
100
AcDbEntity
  8
0
  6
Continuous
 62
     7
370
    25
100
AcDbLine
 10
14.9484438489
 20
37.8562701993
 30
0.0
 11
15.1252197268
 21
38.0330468838
 31
0.0
  0
ARC
  5
1A5
330
1F
100
AcDbEntity
  8
0
  6
Continuous
 62
     7
370
    25
100
AcDbCircle
 10
15.0368319469
 20
38.121435241
 30
0.0
 40
0.1250000000000073
100
AcDbArc
 50
315.0
 51
45.0
  0
ARC
  5
1A6
330
1F
100
AcDbEntity
  8
0
  6
Continuous
 62
     7
370
    25
100
AcDbCircle
 10
15.4694008374
 20
39.437887608
 30
0.0
 40
0.1250000000000035
100
AcDbArc
 50
315.0
 51
45.0
  0
LINE
  5
1A7
330
1F
100
AcDbEntity
  8
0
  6
Continuous
 62
     7
370
    25
100
AcDbLine
 10
15.5577887031
 20
39.5262760405
 30
0.0
 11
15.3810128252
 21
39.7030525051
 31
0.0
  0
ARC
  5
1A8
330
1F
100
AcDbEntity
  8
0
  6
Continuous
 62
     7
370
    25
100
AcDbCircle
 10
15.2926241421
 20
39.6146643033
 30
0.0
 40
0.1250000000000035
100
AcDbArc
 50
45.0
 51
135.0
  0
LINE
  5
1A9
330
1F
100
AcDbEntity
  8
0
  6
Continuous
 62
     7
370
    25
100
AcDbLine
 10
15.204235774
 20
39.7030525051
 30
0.0
 11
15.0274587228
 21
39.5262760405
 31
0.0
  0
ARC
  5
1AA
330
1F
100
AcDbEntity
  8
0
  6
Continuous
 62
     7
370
    25
100
AcDbCircle
 10
15.1158474468
 20
39.437887608
 30
0.0
 40
0.1250000000000073
100
AcDbArc
 50
135.0
 51
225.0
  0
LINE
  5
1AB
330
1F
100
AcDbEntity
  8
0
  6
Continuous
 62
     7
370
    25
100
AcDbLine
 10
15.0274587228
 20
39.3494992827
 30
0.0
 11
15.204235774
 21
39.1727225248
 31
0.0
  0
ARC
  5
1AC
330
1F
100
AcDbEntity
  8
0
  6
Continuous
 62
     7
370
    25
100
AcDbCircle
 10
15.2926241421
 20
39.2611109127
 30
0.0
 40
0.125000000000001
100
AcDbArc
 50
225.0
 51
315.0
  0
LINE
  5
1AD
330
1F
100
AcDbEntity
  8
0
  6
Continuous
 62
     7
370
    25
100
AcDbLine
 10
15.3810128252
 20
39.1727225248
 30
0.0
 11
15.5577887031
 21
39.3494992827
 31
0.0
  0
ARC
  5
1AE
330
1F
100
AcDbEntity
  8
0
  6
Continuous
 62
     7
370
    25
100
AcDbCircle
 10
14.5894008374
 20
39.437887608
 30
0.0
 40
0.1250000000000073
100
AcDbArc
 50
315.0
 51
45.0
  0
LINE
  5
1AF
330
1F
100
AcDbEntity
  8
0
  6
Continuous
 62
     7
370
    25
100
AcDbLine
 10
14.6777894822
 20
39.5262760405
 30
0.0
 11
14.501012431
 21
39.7030525051
 31
0.0
  0
ARC
  5
1B0
330
1F
100
AcDbEntity
  8
0
  6
Continuous
 62
     7
370
    25
100
AcDbCircle
 10
14.4126241421
 20
39.6146643033
 30
0.0
 40
0.1249999999999985
100
AcDbArc
 50
45.0
 51
135.0
  0
LINE
  5
1B1
330
1F
100
AcDbEntity
  8
0
  6
Continuous
 62
     7
370
    25
100
AcDbLine
 10
14.3242353798
 20
39.7030525051
 30
0.0
 11
14.147459502
 21
39.5262760405
 31
0.0
  0
ARC
  5
1B2
330
1F
100
AcDbEntity
  8
0
  6
Continuous
 62
     7
370
    25
100
AcDbCircle
 10
14.2358474468
 20
39.437887608
 30
0.0
 40
0.1250000000000048
100
AcDbArc
 50
135.0
 51
225.0
  0
LINE
  5
1B3
330
1F
100
AcDbEntity
  8
0
  6
Continuous
 62
     7
370
    25
100
AcDbLine
 10
14.147459502
 20
39.3494992827
 30
0.0
 11
14.3242353798
 21
39.1727225248
 31
0.0
  0
ARC
  5
1B4
330
1F
100
AcDbEntity
  8
0
  6
Continuous
 62
     7
370
    25
100
AcDbCircle
 10
14.4126241421
 20
39.2611109127
 30
0.0
 40
0.125000000000001
100
AcDbArc
 50
225.0
 51
315.0
  0
LINE
  5
1B5
330
1F
100
AcDbEntity
  8
0
  6
Continuous
 62
     7
370
    25
100
AcDbLine
 10
14.501012431
 20
39.1727225248
 30
0.0
 11
14.6777894822
 21
39.3494992827
 31
0.0
  0
ARC
  5
1B6
330
1F
100
AcDbEntity
  8
0
  6
Continuous
 62
     7
370
    25
100
AcDbCircle
 10
14.5894008374
 20
38.557887608
 30
0.0
 40
0.1250000000000073
100
AcDbArc
 50
315.0
 51
45.0
  0
LINE
  5
1B7
330
1F
100
AcDbEntity
  8
0
  6
Continuous
 62
     7
370
    25
100
AcDbLine
 10
14.6777894822
 20
38.6462759397
 30
0.0
 11
14.501012431
 21
38.8230526976
 31
0.0
  0
ARC
  5
1B8
330
1F
100
AcDbEntity
  8
0
  6
Continuous
 62
     7
370
    25
100
AcDbCircle
 10
14.4126241421
 20
38.7346643033
 30
0.0
 40
0.1250000000000035
100
AcDbArc
 50
45.0
 51
135.0
  0
LINE
  5
1B9
330
1F
100
AcDbEntity
  8
0
  6
Continuous
 62
     7
370
    25
100
AcDbLine
 10
14.3242353798
 20
38.8230526976
 30
0.0
 11
14.147459502
 21
38.6462759397
 31
0.0
  0
ARC
  5
1BA
330
1F
100
AcDbEntity
  8
0
  6
Continuous
 62
     7
370
    25
100
AcDbCircle
 10
14.2358474468
 20
38.557887608
 30
0.0
 40
0.1250000000000048
100
AcDbArc
 50
135.0
 51
225.0
  0
LINE
  5
1BB
330
1F
100
AcDbEntity
  8
0
  6
Continuous
 62
     7
370
    25
100
AcDbLine
 10
14.147459502
 20
38.4694993285
 30
0.0
 11
14.3242353798
 21
38.2927225707
 31
0.0
  0
ARC
  5
1BC
330
1F
100
AcDbEntity
  8
0
  6
Continuous
 62
     7
370
    25
100
AcDbCircle
 10
14.4126241421
 20
38.3811109127
 30
0.0
 40
0.1249999999999985
100
AcDbArc
 50
225.0
 51
315.0
  0
LINE
  5
1BD
330
1F
100
AcDbEntity
  8
0
  6
Continuous
 62
     7
370
    25
100
AcDbLine
 10
14.501012431
 20
38.2927225707
 30
0.0
 11
14.6777894822
 21
38.4694993285
 31
0.0
  0
LINE
  5
1BE
330
1F
100
AcDbEntity
  8
0
  6
Continuous
 62
     7
370
    25
100
AcDbLine
 10
11.6052204968
 20
39.0898235225
 30
0.0
 11
11.4284434456
 21
39.266600427
 31
0.0
  0
ARC
  5
1BF
330
1F
100
AcDbEntity
  8
0
  6
Continuous
 62
     7
370
    25
100
AcDbCircle
 10
11.3400552516
 20
39.1782119363
 30
0.0
 40
0.1249999999999734
100
AcDbArc
 50
44.9999999997
 51
134.9999999997
  0
LINE
  5
1C0
330
1F
100
AcDbEntity
  8
0
  6
Continuous
 62
     7
370
    25
100
AcDbLine
 10
11.2516663944
 20
39.266600427
 30
0.0
 11
11.0748905166
 21
39.0898235225
 31
0.0
  0
ARC
  5
1C1
330
1F
100
AcDbEntity
  8
0
  6
Continuous
 62
     7
370
    25
100
AcDbCircle
 10
11.1632785563
 20
39.001435241
 30
0.0
 40
0.1249999999999847
100
AcDbArc
 50
135.0
 51
225.0000000003
  0
LINE
  5
1C2
330
1F
100
AcDbEntity
  8
0
  6
Continuous
 62
     7
370
    25
100
AcDbLine
 10
11.0748905166
 20
38.9130469113
 30
0.0
 11
11.2516663944
 21
38.7362701534
 31
0.0
  0
ARC
  5
1C3
330
1F
100
AcDbEntity
  8
0
  6
Continuous
 62
     7
370
    25
100
AcDbCircle
 10
11.3400552516
 20
38.8246585457
 30
0.0
 40
0.125000000000001
100
AcDbArc
 50
225.0
 51
315.0
  0
LINE
  5
1C4
330
1F
100
AcDbEntity
  8
0
  6
Continuous
 62
     7
370
    25
100
AcDbLine
 10
11.4284434456
 20
38.7362701534
 30
0.0
 11
11.6052204968
 21
38.9130469113
 31
0.0
  0
ARC
  5
1C5
330
1F
100
AcDbEntity
  8
0
  6
Continuous
 62
     7
370
    25
100
AcDbCircle
 10
11.5168319469
 20
39.001435241
 30
0.0
 40
0.1250000000000022
100
AcDbArc
 50
315.0
 51
45.0
  0
ARC
  5
1C6
330
1F
100
AcDbEntity
  8
0
  6
Continuous
 62
     7
370
    25
100
AcDbCircle
 10
11.0694008374
 20
38.557887608
 30
0.0
 40
0.1250000000000048
100
AcDbArc
 50
315.0
 51
45.0
  0
LINE
  5
1C7
330
1F
100
AcDbEntity
  8
0
  6
Continuous
 62
     7
370
    25
100
AcDbLine
 10
11.1577890789
 20
38.6462759397
 30
0.0
 11
10.9810120277
 21
38.8230526976
 31
0.0
  0
ARC
  5
1C8
330
1F
100
AcDbEntity
  8
0
  6
Continuous
 62
     7
370
    25
100
AcDbCircle
 10
10.8926241421
 20
38.7346643033
 30
0.0
 40
0.125000000000001
100
AcDbArc
 50
45.0
 51
135.0
  0
LINE
  5
1C9
330
1F
100
AcDbEntity
  8
0
  6
Continuous
 62
     7
370
    25
100
AcDbLine
 10
10.8042361498
 20
38.8230526976
 30
0.0
 11
10.6274590987
 21
38.6462759397
 31
0.0
  0
ARC
  5
1CA
330
1F
100
AcDbEntity
  8
0
  6
Continuous
 62
     7
370
    25
100
AcDbCircle
 10
10.7158474468
 20
38.557887608
 30
0.0
 40
0.1250000000000048
100
AcDbArc
 50
135.0
 51
225.0
  0
LINE
  5
1CB
330
1F
100
AcDbEntity
  8
0
  6
Continuous
 62
     7
370
    25
100
AcDbLine
 10
10.6274590987
 20
38.4694993285
 30
0.0
 11
10.8042361498
 21
38.2927225707
 31
0.0
  0
ARC
  5
1CC
330
1F
100
AcDbEntity
  8
0
  6
Continuous
 62
     7
370
    25
100
AcDbCircle
 10
10.8926241421
 20
38.3811109127
 30
0.0
 40
0.124999999999996
100
AcDbArc
 50
225.0
 51
315.0
  0
LINE
  5
1CD
330
1F
100
AcDbEntity
  8
0
  6
Continuous
 62
     7
370
    25
100
AcDbLine
 10
10.9810120277
 20
38.2927225707
 30
0.0
 11
11.1577890789
 21
38.4694993285
 31
0.0
  0
LINE
  5
1CE
330
1F
100
AcDbEntity
  8
0
  6
Continuous
 62
     7
370
    25
100
AcDbLine
 10
10.7252201026
 20
39.0898235225
 30
0.0
 11
10.5484430515
 21
39.266600427
 31
0.0
  0
ARC
  5
1CF
330
1F
100
AcDbEntity
  8
0
  6
Continuous
 62
     7
370
    25
100
AcDbCircle
 10
10.4600552516
 20
39.1782119363
 30
0.0
 40
0.1250000000000161
100
AcDbArc
 50
44.9999999996
 51
134.9999999997
  0
LINE
  5
1D0
330
1F
100
AcDbEntity
  8
0
  6
Continuous
 62
     7
370
    25
100
AcDbLine
 10
10.3716671736
 20
39.266600427
 30
0.0
 11
10.1948901224
 21
39.0898235225
 31
0.0
  0
ARC
  5
1D1
330
1F
100
AcDbEntity
  8
0
  6
Continuous
 62
     7
370
    25
100
AcDbCircle
 10
10.2832785563
 20
39.001435241
 30
0.0
 40
0.1249999999999822
100
AcDbArc
 50
135.0
 51
225.0000000004
  0
LINE
  5
1D2
330
1F
100
AcDbEntity
  8
0
  6
Continuous
 62
     7
370
    25
100
AcDbLine
 10
10.1948901224
 20
38.9130469113
 30
0.0
 11
10.3716671736
 21
38.7362701534
 31
0.0
  0
ARC
  5
1D3
330
1F
100
AcDbEntity
  8
0
  6
Continuous
 62
     7
370
    25
100
AcDbCircle
 10
10.4600552516
 20
38.8246585457
 30
0.0
 40
0.1249999999999998
100
AcDbArc
 50
225.0
 51
315.0
  0
LINE
  5
1D4
330
1F
100
AcDbEntity
  8
0
  6
Continuous
 62
     7
370
    25
100
AcDbLine
 10
10.5484430515
 20
38.7362701534
 30
0.0
 11
10.7252201026
 21
38.9130469113
 31
0.0
  0
ARC
  5
1D5
330
1F
100
AcDbEntity
  8
0
  6
Continuous
 62
     7
370
    25
100
AcDbCircle
 10
10.6368319469
 20
39.001435241
 30
0.0
 40
0.125000000000001
100
AcDbArc
 50
315.0
 51
45.0
  0
ARC
  5
1D6
330
1F
100
AcDbEntity
  8
0
  6
Continuous
 62
     7
370
    25
100
AcDbCircle
 10
11.0694008374
 20
39.437887608
 30
0.0
 40
0.125000000000001
100
AcDbArc
 50
315.0
 51
45.0
  0
LINE
  5
1D7
330
1F
100
AcDbEntity
  8
0
  6
Continuous
 62
     7
370
    25
100
AcDbLine
 10
11.1577890789
 20
39.5262760405
 30
0.0
 11
10.9810120277
 21
39.7030525051
 31
0.0
  0
ARC
  5
1D8
330
1F
100
AcDbEntity
  8
0
  6
Continuous
 62
     7
370
    25
100
AcDbCircle
 10
10.8926241421
 20
39.6146643033
 30
0.0
 40
0.125000000000001
100
AcDbArc
 50
45.0
 51
135.0
  0
LINE
  5
1D9
330
1F
100
AcDbEntity
  8
0
  6
Continuous
 62
     7
370
    25
100
AcDbLine
 10
10.8042361498
 20
39.7030525051
 30
0.0
 11
10.6274590987
 21
39.5262760405
 31
0.0
  0
ARC
  5
1DA
330
1F
100
AcDbEntity
  8
0
  6
Continuous
 62
     7
370
    25
100
AcDbCircle
 10
10.7158474468
 20
39.437887608
 30
0.0
 40
0.1250000000000048
100
AcDbArc
 50
135.0
 51
225.0
  0
LINE
  5
1DB
330
1F
100
AcDbEntity
  8
0
  6
Continuous
 62
     7
370
    25
100
AcDbLine
 10
10.6274590987
 20
39.3494992827
 30
0.0
 11
10.8042361498
 21
39.1727225248
 31
0.0
  0
ARC
  5
1DC
330
1F
100
AcDbEntity
  8
0
  6
Continuous
 62
     7
370
    25
100
AcDbCircle
 10
10.8926241421
 20
39.2611109127
 30
0.0
 40
0.1250000000000023
100
AcDbArc
 50
225.0
 51
315.0
  0
LINE
  5
1DD
330
1F
100
AcDbEntity
  8
0
  6
Continuous
 62
     7
370
    25
100
AcDbLine
 10
10.9810120277
 20
39.1727225248
 30
0.0
 11
11.1577890789
 21
39.3494992827
 31
0.0
  0
LINE
  5
1DE
330
1F
100
AcDbEntity
  8
0
  6
Continuous
 62
     7
370
    25
100
AcDbLine
 10
12.4852197176
 20
39.0898235225
 30
0.0
 11
12.3084438398
 21
39.266600427
 31
0.0
  0
ARC
  5
1DF
330
1F
100
AcDbEntity
  8
0
  6
Continuous
 62
     7
370
    25
100
AcDbCircle
 10
12.2200552516
 20
39.1782119363
 30
0.0
 40
0.1250000000001191
100
AcDbArc
 50
44.9999999997
 51
135.0
  0
LINE
  5
1E0
330
1F
100
AcDbEntity
  8
0
  6
Continuous
 62
     7
370
    25
100
AcDbLine
 10
12.1316667886
 20
39.266600427
 30
0.0
 11
11.9548897374
 21
39.0898235225
 31
0.0
  0
ARC
  5
1E1
330
1F
100
AcDbEntity
  8
0
  6
Continuous
 62
     7
370
    25
100
AcDbCircle
 10
12.0432785563
 20
39.001435241
 30
0.0
 40
0.1249999999999947
100
AcDbArc
 50
135.0000000003
 51
225.0000000004
  0
LINE
  5
1E2
330
1F
100
AcDbEntity
  8
0
  6
Continuous
 62
     7
370
    25
100
AcDbLine
 10
11.9548897374
 20
38.9130469113
 30
0.0
 11
12.1316667886
 21
38.7362701534
 31
0.0
  0
ARC
  5
1E3
330
1F
100
AcDbEntity
  8
0
  6
Continuous
 62
     7
370
    25
100
AcDbCircle
 10
12.2200552516
 20
38.8246585457
 30
0.0
 40
0.1249999999999998
100
AcDbArc
 50
225.0
 51
315.0
  0
LINE
  5
1E4
330
1F
100
AcDbEntity
  8
0
  6
Continuous
 62
     7
370
    25
100
AcDbLine
 10
12.3084438398
 20
38.7362701534
 30
0.0
 11
12.4852197176
 21
38.9130469113
 31
0.0
  0
ARC
  5
1E5
330
1F
100
AcDbEntity
  8
0
  6
Continuous
 62
     7
370
    25
100
AcDbCircle
 10
12.3968319469
 20
39.001435241
 30
0.0
 40
0.1250000000000035
100
AcDbArc
 50
315.0
 51
45.0
  0
ARC
  5
1E6
330
1F
100
AcDbEntity
  8
0
  6
Continuous
 62
     7
370
    25
100
AcDbCircle
 10
11.9494008374
 20
37.677887608
 30
0.0
 40
0.1249999999999998
100
AcDbArc
 50
315.0
 51
45.0
  0
LINE
  5
1E7
330
1F
100
AcDbEntity
  8
0
  6
Continuous
 62
     7
370
    25
100
AcDbLine
 10
12.0377894731
 20
37.7662759855
 30
0.0
 11
11.8610124219
 21
37.9430526701
 31
0.0
  0
ARC
  5
1E8
330
1F
100
AcDbEntity
  8
0
  6
Continuous
 62
     7
370
    25
100
AcDbCircle
 10
11.7726241421
 20
37.8546643033
 30
0.0
 40
0.1250000000000023
100
AcDbArc
 50
45.0
 51
135.0
  0
LINE
  5
1E9
330
1F
100
AcDbEntity
  8
0
  6
Continuous
 62
     7
370
    25
100
AcDbLine
 10
11.6842353707
 20
37.9430526701
 30
0.0
 11
11.5074594928
 21
37.7662759855
 31
0.0
  0
ARC
  5
1EA
330
1F
100
AcDbEntity
  8
0
  6
Continuous
 62
     7
370
    25
100
AcDbCircle
 10
11.5958474468
 20
37.677887608
 30
0.0
 40
0.125000000000001
100
AcDbArc
 50
135.0
 51
225.0
  0
LINE
  5
1EB
330
1F
100
AcDbEntity
  8
0
  6
Continuous
 62
     7
370
    25
100
AcDbLine
 10
11.5074594928
 20
37.5894992277
 30
0.0
 11
11.6842353707
 21
37.4127225798
 31
0.0
  0
ARC
  5
1EC
330
1F
100
AcDbEntity
  8
0
  6
Continuous
 62
     7
370
    25
100
AcDbCircle
 10
11.7726241421
 20
37.5011109127
 30
0.0
 40
0.1250000000000048
100
AcDbArc
 50
225.0
 51
315.0
  0
LINE
  5
1ED
330
1F
100
AcDbEntity
  8
0
  6
Continuous
 62
     7
370
    25
100
AcDbLine
 10
11.8610124219
 20
37.4127225798
 30
0.0
 11
12.0377894731
 21
37.5894992277
 31
0.0
  0
LINE
  5
1EE
330
1F
100
AcDbEntity
  8
0
  6
Continuous
 62
     7
370
    25
100
AcDbLine
 10
11.6052204968
 20
38.2098235683
 30
0.0
 11
11.4284434456
 21
38.3866003262
 31
0.0
  0
ARC
  5
1EF
330
1F
100
AcDbEntity
  8
0
  6
Continuous
 62
     7
370
    25
100
AcDbCircle
 10
11.3400552516
 20
38.2982119363
 30
0.0
 40
0.1249999999999935
100
AcDbArc
 50
44.9999999998
 51
134.9999999997
  0
LINE
  5
1F0
330
1F
100
AcDbEntity
  8
0
  6
Continuous
 62
     7
370
    25
100
AcDbLine
 10
11.2516663944
 20
38.3866003262
 30
0.0
 11
11.0748905166
 21
38.2098235683
 31
0.0
  0
ARC
  5
1F1
330
1F
100
AcDbEntity
  8
0
  6
Continuous
 62
     7
370
    25
100
AcDbCircle
 10
11.1632785563
 20
38.121435241
 30
0.0
 40
0.1249999999999834
100
AcDbArc
 50
135.0
 51
225.0000000002
  0
LINE
  5
1F2
330
1F
100
AcDbEntity
  8
0
  6
Continuous
 62
     7
370
    25
100
AcDbLine
 10
11.0748905166
 20
38.0330468838
 30
0.0
 11
11.2516663944
 21
37.8562701993
 31
0.0
  0
ARC
  5
1F3
330
1F
100
AcDbEntity
  8
0
  6
Continuous
 62
     7
370
    25
100
AcDbCircle
 10
11.3400552516
 20
37.9446585457
 30
0.0
 40
0.1249999999999998
100
AcDbArc
 50
225.0
 51
315.0
  0
LINE
  5
1F4
330
1F
100
AcDbEntity
  8
0
  6
Continuous
 62
     7
370
    25
100
AcDbLine
 10
11.4284434456
 20
37.8562701993
 30
0.0
 11
11.6052204968
 21
38.0330468838
 31
0.0
  0
ARC
  5
1F5
330
1F
100
AcDbEntity
  8
0
  6
Continuous
 62
     7
370
    25
100
AcDbCircle
 10
11.5168319469
 20
38.121435241
 30
0.0
 40
0.1250000000000085
100
AcDbArc
 50
315.0
 51
45.0
  0
ARC
  5
1F6
330
1F
100
AcDbEntity
  8
0
  6
Continuous
 62
     7
370
    25
100
AcDbCircle
 10
10.1894008374
 20
37.677887608
 30
0.0
 40
0.125000000000001
100
AcDbArc
 50
315.0
 51
45.0
  0
LINE
  5
1F7
330
1F
100
AcDbEntity
  8
0
  6
Continuous
 62
     7
370
    25
100
AcDbLine
 10
10.2777892714
 20
37.7662759855
 30
0.0
 11
10.1010122202
 21
37.9430526701
 31
0.0
  0
ARC
  5
1F8
330
1F
100
AcDbEntity
  8
0
  6
Continuous
 62
     7
370
    25
100
AcDbCircle
 10
10.0126241421
 20
37.8546643033
 30
0.0
 40
0.1249999999999998
100
AcDbArc
 50
44.9999999999
 51
135.0
  0
LINE
  5
1F9
330
1F
100
AcDbEntity
  8
0
  6
Continuous
 62
     7
370
    25
100
AcDbLine
 10
9.9242357557
 20
37.9430526701
 30
0.0
 11
9.7474592912
 21
37.7662759855
 31
0.0
  0
ARC
  5
1FA
330
1F
100
AcDbEntity
  8
0
  6
Continuous
 62
     7
370
    25
100
AcDbCircle
 10
9.8358474468
 20
37.677887608
 30
0.0
 40
0.1250000000000048
100
AcDbArc
 50
135.0
 51
225.0
  0
LINE
  5
1FB
330
1F
100
AcDbEntity
  8
0
  6
Continuous
 62
     7
370
    25
100
AcDbLine
 10
9.7474592912
 20
37.5894992277
 30
0.0
 11
9.9242357557
 21
37.4127225798
 31
0.0
  0
ARC
  5
1FC
330
1F
100
AcDbEntity
  8
0
  6
Continuous
 62
     7
370
    25
100
AcDbCircle
 10
10.0126241421
 20
37.5011109127
 30
0.0
 40
0.1249999999999972
100
AcDbArc
 50
225.0
 51
315.0
  0
LINE
  5
1FD
330
1F
100
AcDbEntity
  8
0
  6
Continuous
 62
     7
370
    25
100
AcDbLine
 10
10.1010122202
 20
37.4127225798
 30
0.0
 11
10.2777892714
 21
37.5894992277
 31
0.0
  0
LINE
  5
1FE
330
1F
100
AcDbEntity
  8
0
  6
Continuous
 62
     7
370
    25
100
AcDbLine
 10
16.6526239488
 20
36.9714725222
 30
0.0
 11
16.4026247034
 21
36.9714725222
 31
0.0
  0
LINE
  5
1FF
330
1F
100
AcDbEntity
  8
0
  6
Continuous
 62
     7
370
    25
100
AcDbLine
 10
16.6526239488
 20
36.9714725222
 30
0.0
 11
16.6526239488
 21
36.802887608
 31
0.0
  0
LINE
  5
200
330
1F
100
AcDbEntity
  8
0
  6
Continuous
 62
     7
370
    25
100
AcDbLine
 10
16.6526239488
 20
36.802887608
 30
0.0
 11
0.6526241421
 21
36.802887608
 31
0.0
  0
LINE
  5
201
330
1F
100
AcDbEntity
  8
0
  6
Continuous
 62
     7
370
    25
100
AcDbLine
 10
0.6526241421
 20
36.9064409984
 30
0.0
 11
0.6526241421
 21
36.802887608
 31
0.0
  0
LINE
  5
202
330
1F
100
AcDbEntity
  8
0
  6
Continuous
 62
     7
370
    25
100
AcDbLine
 10
0.9026241391
 20
36.9064409984
 30
0.0
 11
0.6526241421
 21
36.9064409984
 31
0.0
  0
LINE
  5
203
330
1F
100
AcDbEntity
  8
0
  6
Continuous
 62
     7
370
    25
100
AcDbLine
 10
0.9026241391
 20
37.0099943888
 30
0.0
 11
0.9026241391
 21
36.9064409984
 31
0.0
  0
LINE
  5
204
330
1F
100
AcDbEntity
  8
0
  6
Continuous
 62
     7
370
    25
100
AcDbLine
 10
16.4026247034
 20
37.0099943888
 30
0.0
 11
16.4026247034
 21
36.9714725222
 31
0.0
  0
LINE
  5
205
330
1F
100
AcDbEntity
  8
0
  6
Continuous
 62
     7
370
    25
100
AcDbLine
 10
16.6526239488
 20
40.3128875135
 30
0.0
 11
16.6526239488
 21
36.9714725222
 31
0.0
  0
LINE
  5
206
330
1F
100
AcDbEntity
  8
0
  6
Continuous
 62
     7
370
    25
100
AcDbLine
 10
16.4026247034
 20
40.3128875135
 30
0.0
 11
16.6526239488
 21
40.3128875135
 31
0.0
  0
LINE
  5
207
330
1F
100
AcDbEntity
  8
0
  6
Continuous
 62
     7
370
    25
100
AcDbLine
 10
0.6526241421
 20
40.3128875135
 30
0.0
 11
0.6526241421
 21
36.9064409984
 31
0.0
  0
LINE
  5
208
330
1F
100
AcDbEntity
  8
0
  6
Continuous
 62
     7
370
    25
100
AcDbLine
 10
1.1526241361
 20
40.3128875135
 30
0.0
 11
0.6526241421
 21
40.3128875135
 31
0.0
  0
LINE
  5
209
330
1F
100
AcDbEntity
  8
0
  6
Continuous
 62
     7
370
    25
100
AcDbLine
 10
12.7974848268
 20
42.256714262
 30
0.0
 11
12.9742607047
 21
42.0799375775
 31
0.0
  0
ARC
  5
20A
330
1F
100
AcDbEntity
  8
0
  6
Continuous
 62
     7
370
    25
100
AcDbCircle
 10
13.0626493656
 20
42.1683259293
 30
0.0
 40
0.1249999999999972
100
AcDbArc
 50
225.0
 51
315.0
  0
LINE
  5
20B
330
1F
100
AcDbEntity
  8
0
  6
Continuous
 62
     7
370
    25
100
AcDbLine
 10
13.1510377559
 20
42.0799375775
 30
0.0
 11
13.3278148071
 21
42.256714262
 31
0.0
  0
ARC
  5
20C
330
1F
100
AcDbEntity
  8
0
  6
Continuous
 62
     7
370
    25
100
AcDbCircle
 10
13.2394260609
 20
42.3451026246
 30
0.0
 40
0.1249999999999985
100
AcDbArc
 50
315.0
 51
45.0
  0
LINE
  5
20D
330
1F
100
AcDbEntity
  8
0
  6
Continuous
 62
     7
370
    25
100
AcDbLine
 10
13.1510377559
 20
42.6102677044
 30
0.0
 11
13.3278148071
 21
42.4334909465
 31
0.0
  0
ARC
  5
20E
330
1F
100
AcDbEntity
  8
0
  6
Continuous
 62
     7
370
    25
100
AcDbCircle
 10
13.0626493656
 20
42.5218793199
 30
0.0
 40
0.1249999999999985
100
AcDbArc
 50
45.0
 51
135.0
  0
LINE
  5
20F
330
1F
100
AcDbEntity
  8
0
  6
Continuous
 62
     7
370
    25
100
AcDbLine
 10
12.7974848268
 20
42.4334909465
 30
0.0
 11
12.9742607047
 21
42.6102677044
 31
0.0
  0
ARC
  5
210
330
1F
100
AcDbEntity
  8
0
  6
Continuous
 62
     7
370
    25
100
AcDbCircle
 10
12.8858726703
 20
42.3451026246
 30
0.0
 40
0.1250000000000035
100
AcDbArc
 50
135.0
 51
225.0
  0
LINE
  5
211
330
1F
100
AcDbEntity
  8
0
  6
Continuous
 62
     7
370
    25
100
AcDbLine
 10
13.1510377559
 20
41.7302676769
 30
0.0
 11
13.3278148071
 21
41.5534909557
 31
0.0
  0
ARC
  5
212
330
1F
100
AcDbEntity
  8
0
  6
Continuous
 62
     7
370
    25
100
AcDbCircle
 10
13.0626493656
 20
41.6418793199
 30
0.0
 40
0.1249999999999985
100
AcDbArc
 50
45.0
 51
135.0
  0
LINE
  5
213
330
1F
100
AcDbEntity
  8
0
  6
Continuous
 62
     7
370
    25
100
AcDbLine
 10
12.7974848268
 20
41.5534909557
 30
0.0
 11
12.9742607047
 21
41.7302676769
 31
0.0
  0
LINE
  5
214
330
1F
100
AcDbEntity
  8
0
  6
Continuous
 62
     7
370
    25
100
AcDbLine
 10
13.3278148071
 20
41.5534909557
 30
0.0
 11
12.7974848268
 21
41.5534909557
 31
0.0
  0
LINE
  5
215
330
1F
100
AcDbEntity
  8
0
  6
Continuous
 62
     7
370
    25
100
AcDbLine
 10
12.3555421988
 20
42.6986560833
 30
0.0
 11
12.53231925
 21
42.5218793255
 31
0.0
  0
ARC
  5
216
330
1F
100
AcDbEntity
  8
0
  6
Continuous
 62
     7
370
    25
100
AcDbCircle
 10
12.6207076273
 20
42.6102676675
 30
0.0
 40
0.1250000000000048
100
AcDbArc
 50
225.0
 51
315.0
  0
LINE
  5
217
330
1F
100
AcDbEntity
  8
0
  6
Continuous
 62
     7
370
    25
100
AcDbLine
 10
12.7090963012
 20
42.5218793255
 30
0.0
 11
12.8858721791
 21
42.6986560833
 31
0.0
  0
ARC
  5
218
330
1F
100
AcDbEntity
  8
0
  6
Continuous
 62
     7
370
    25
100
AcDbCircle
 10
12.7974843226
 20
42.7870443628
 30
0.0
 40
0.1249999999999998
100
AcDbArc
 50
315.0
 51
45.0
  0
LINE
  5
219
330
1F
100
AcDbEntity
  8
0
  6
Continuous
 62
     7
370
    25
100
AcDbLine
 10
12.8858721791
 20
42.8754326945
 30
0.0
 11
12.7090963012
 21
43.0522094524
 31
0.0
  0
ARC
  5
21A
330
1F
100
AcDbEntity
  8
0
  6
Continuous
 62
     7
370
    25
100
AcDbCircle
 10
12.6207076273
 20
42.9638210581
 30
0.0
 40
0.1249999999999972
100
AcDbArc
 50
45.0
 51
135.0
  0
LINE
  5
21B
330
1F
100
AcDbEntity
  8
0
  6
Continuous
 62
     7
370
    25
100
AcDbLine
 10
12.53231925
 20
43.0522094524
 30
0.0
 11
12.3555421988
 21
42.8754326945
 31
0.0
  0
ARC
  5
21C
330
1F
100
AcDbEntity
  8
0
  6
Continuous
 62
     7
370
    25
100
AcDbCircle
 10
12.443930932
 20
42.7870443628
 30
0.0
 40
0.1249999999999972
100
AcDbArc
 50
135.0
 51
225.0
  0
LINE
  5
21D
330
1F
100
AcDbEntity
  8
0
  6
Continuous
 62
     7
370
    25
100
AcDbLine
 10
13.235542593
 20
43.5786560375
 30
0.0
 11
13.4123196442
 21
43.4018792796
 31
0.0
  0
ARC
  5
21E
330
1F
100
AcDbEntity
  8
0
  6
Continuous
 62
     7
370
    25
100
AcDbCircle
 10
13.5007076273
 20
43.4902676675
 30
0.0
 40
0.1250000000000035
100
AcDbArc
 50
225.0
 51
315.0
  0
LINE
  5
21F
330
1F
100
AcDbEntity
  8
0
  6
Continuous
 62
     7
370
    25
100
AcDbLine
 10
13.5890955221
 20
43.4018792796
 30
0.0
 11
13.7658725733
 21
43.5786560375
 31
0.0
  0
ARC
  5
220
330
1F
100
AcDbEntity
  8
0
  6
Continuous
 62
     7
370
    25
100
AcDbCircle
 10
13.6774843226
 20
43.6670443628
 30
0.0
 40
0.1249999999999972
100
AcDbArc
 50
315.0
 51
45.0
  0
LINE
  5
221
330
1F
100
AcDbEntity
  8
0
  6
Continuous
 62
     7
370
    25
100
AcDbLine
 10
13.7658725733
 20
43.7554327954
 30
0.0
 11
13.5890955221
 21
43.9322092599
 31
0.0
  0
ARC
  5
222
330
1F
100
AcDbEntity
  8
0
  6
Continuous
 62
     7
370
    25
100
AcDbCircle
 10
13.5007076273
 20
43.8438210581
 30
0.0
 40
0.1250000000000073
100
AcDbArc
 50
45.0
 51
135.0
  0
LINE
  5
223
330
1F
100
AcDbEntity
  8
0
  6
Continuous
 62
     7
370
    25
100
AcDbLine
 10
13.4123196442
 20
43.9322092599
 30
0.0
 11
13.235542593
 21
43.7554327954
 31
0.0
  0
ARC
  5
224
330
1F
100
AcDbEntity
  8
0
  6
Continuous
 62
     7
370
    25
100
AcDbCircle
 10
13.323930932
 20
43.6670443628
 30
0.0
 40
0.125000000000001
100
AcDbArc
 50
135.0
 51
225.0
  0
LINE
  5
225
330
1F
100
AcDbEntity
  8
0
  6
Continuous
 62
     7
370
    25
100
AcDbLine
 10
15.437484836
 20
43.1367142895
 30
0.0
 11
15.6142607138
 21
42.9599375317
 31
0.0
  0
LINE
  5
226
330
1F
100
AcDbEntity
  8
0
  6
Continuous
 62
     7
370
    25
100
AcDbLine
 10
15.6142607138
 20
42.9599375317
 30
0.0
 11
15.6142607138
 21
43.4902676586
 31
0.0
  0
LINE
  5
227
330
1F
100
AcDbEntity
  8
0
  6
Continuous
 62
     7
370
    25
100
AcDbLine
 10
15.437484836
 20
43.3134909007
 30
0.0
 11
15.6142607138
 21
43.4902676586
 31
0.0
  0
ARC
  5
228
330
1F
100
AcDbEntity
  8
0
  6
Continuous
 62
     7
370
    25
100
AcDbCircle
 10
15.5258726703
 20
43.2251026246
 30
0.0
 40
0.1249999999999998
100
AcDbArc
 50
135.0
 51
225.0
  0
LINE
  5
229
330
1F
100
AcDbEntity
  8
0
  6
Continuous
 62
     7
370
    25
100
AcDbLine
 10
11.475542978
 20
42.6986560833
 30
0.0
 11
11.6523188559
 21
42.5218793255
 31
0.0
  0
ARC
  5
22A
330
1F
100
AcDbEntity
  8
0
  6
Continuous
 62
     7
370
    25
100
AcDbCircle
 10
11.7407076273
 20
42.6102676675
 30
0.0
 40
0.125000000000001
100
AcDbArc
 50
225.0
 51
315.0
  0
LINE
  5
22B
330
1F
100
AcDbEntity
  8
0
  6
Continuous
 62
     7
370
    25
100
AcDbLine
 10
11.8290959071
 20
42.5218793255
 30
0.0
 11
12.0058729583
 21
42.6986560833
 31
0.0
  0
ARC
  5
22C
330
1F
100
AcDbEntity
  8
0
  6
Continuous
 62
     7
370
    25
100
AcDbCircle
 10
11.9174843226
 20
42.7870443628
 30
0.0
 40
0.1250000000000035
100
AcDbArc
 50
315.0
 51
45.0
  0
LINE
  5
22D
330
1F
100
AcDbEntity
  8
0
  6
Continuous
 62
     7
370
    25
100
AcDbLine
 10
12.0058729583
 20
42.8754326945
 30
0.0
 11
11.8290959071
 21
43.0522094524
 31
0.0
  0
ARC
  5
22E
330
1F
100
AcDbEntity
  8
0
  6
Continuous
 62
     7
370
    25
100
AcDbCircle
 10
11.7407076273
 20
42.9638210581
 30
0.0
 40
0.1249999999999972
100
AcDbArc
 50
45.0
 51
135.0
  0
LINE
  5
22F
330
1F
100
AcDbEntity
  8
0
  6
Continuous
 62
     7
370
    25
100
AcDbLine
 10
11.6523188559
 20
43.0522094524
 30
0.0
 11
11.475542978
 21
42.8754326945
 31
0.0
  0
ARC
  5
230
330
1F
100
AcDbEntity
  8
0
  6
Continuous
 62
     7
370
    25
100
AcDbCircle
 10
11.563930932
 20
42.7870443628
 30
0.0
 40
0.125000000000006
100
AcDbArc
 50
135.0
 51
225.0
  0
LINE
  5
231
330
1F
100
AcDbEntity
  8
0
  6
Continuous
 62
     7
370
    25
100
AcDbLine
 10
11.9174844327
 20
44.0167143904
 30
0.0
 11
12.0942614838
 21
43.8399376325
 31
0.0
  0
ARC
  5
232
330
1F
100
AcDbEntity
  8
0
  6
Continuous
 62
     7
370
    25
100
AcDbCircle
 10
12.1826493656
 20
43.9283259293
 30
0.0
 40
0.1250000000000023
100
AcDbArc
 50
225.0
 51
315.0
  0
LINE
  5
233
330
1F
100
AcDbEntity
  8
0
  6
Continuous
 62
     7
370
    25
100
AcDbLine
 10
12.2710373617
 20
43.8399376325
 30
0.0
 11
12.4478144129
 21
44.0167143904
 31
0.0
  0
ARC
  5
234
330
1F
100
AcDbEntity
  8
0
  6
Continuous
 62
     7
370
    25
100
AcDbCircle
 10
12.3594260609
 20
44.1051026246
 30
0.0
 40
0.1250000000000202
100
AcDbArc
 50
315.0000000004
 51
317.4651158035
  0
LINE
  5
235
330
1F
100
AcDbEntity
  8
0
  6
Continuous
 62
     7
370
    25
100
AcDbLine
 10
12.4515338366
 20
44.0205977855
 30
0.0
 11
11.913765009
 21
44.0205977855
 31
0.0
  0
ARC
  5
236
330
1F
100
AcDbEntity
  8
0
  6
Continuous
 62
     7
370
    25
100
AcDbCircle
 10
12.0058726703
 20
44.1051026246
 30
0.0
 40
0.125000000000001
100
AcDbArc
 50
222.5348841969
 51
225.0
  0
LINE
  5
237
330
1F
100
AcDbEntity
  8
0
  6
Continuous
 62
     7
370
    25
100
AcDbLine
 10
11.9174844327
 20
42.256714262
 30
0.0
 11
12.0942614838
 21
42.0799375775
 31
0.0
  0
ARC
  5
238
330
1F
100
AcDbEntity
  8
0
  6
Continuous
 62
     7
370
    25
100
AcDbCircle
 10
12.1826493656
 20
42.1683259293
 30
0.0
 40
0.125000000000001
100
AcDbArc
 50
225.0
 51
315.0
  0
LINE
  5
239
330
1F
100
AcDbEntity
  8
0
  6
Continuous
 62
     7
370
    25
100
AcDbLine
 10
12.2710373617
 20
42.0799375775
 30
0.0
 11
12.4478144129
 21
42.256714262
 31
0.0
  0
ARC
  5
23A
330
1F
100
AcDbEntity
  8
0
  6
Continuous
 62
     7
370
    25
100
AcDbCircle
 10
12.3594260609
 20
42.3451026246
 30
0.0
 40
0.1250000000000048
100
AcDbArc
 50
315.0
 51
45.0
  0
LINE
  5
23B
330
1F
100
AcDbEntity
  8
0
  6
Continuous
 62
     7
370
    25
100
AcDbLine
 10
12.2710373617
 20
42.6102677044
 30
0.0
 11
12.4478144129
 21
42.4334909465
 31
0.0
  0
ARC
  5
23C
330
1F
100
AcDbEntity
  8
0
  6
Continuous
 62
     7
370
    25
100
AcDbCircle
 10
12.1826493656
 20
42.5218793199
 30
0.0
 40
0.125000000000001
100
AcDbArc
 50
45.0
 51
135.0
  0
LINE
  5
23D
330
1F
100
AcDbEntity
  8
0
  6
Continuous
 62
     7
370
    25
100
AcDbLine
 10
11.9174844327
 20
42.4334909465
 30
0.0
 11
12.0942614838
 21
42.6102677044
 31
0.0
  0
ARC
  5
23E
330
1F
100
AcDbEntity
  8
0
  6
Continuous
 62
     7
370
    25
100
AcDbCircle
 10
12.0058726703
 20
42.3451026246
 30
0.0
 40
0.1250000000000022
100
AcDbArc
 50
135.0
 51
225.0
  0
LINE
  5
23F
330
1F
100
AcDbEntity
  8
0
  6
Continuous
 62
     7
370
    25
100
AcDbLine
 10
14.5574844418
 20
42.256714262
 30
0.0
 11
14.734261493
 21
42.0799375775
 31
0.0
  0
ARC
  5
240
330
1F
100
AcDbEntity
  8
0
  6
Continuous
 62
     7
370
    25
100
AcDbCircle
 10
14.8226493656
 20
42.1683259293
 30
0.0
 40
0.1249999999999972
100
AcDbArc
 50
225.0
 51
315.0
  0
LINE
  5
241
330
1F
100
AcDbEntity
  8
0
  6
Continuous
 62
     7
370
    25
100
AcDbLine
 10
14.9110373709
 20
42.0799375775
 30
0.0
 11
15.0878144221
 21
42.256714262
 31
0.0
  0
ARC
  5
242
330
1F
100
AcDbEntity
  8
0
  6
Continuous
 62
     7
370
    25
100
AcDbCircle
 10
14.9994260609
 20
42.3451026246
 30
0.0
 40
0.125000000000001
100
AcDbArc
 50
315.0
 51
45.0
  0
LINE
  5
243
330
1F
100
AcDbEntity
  8
0
  6
Continuous
 62
     7
370
    25
100
AcDbLine
 10
14.9110373709
 20
42.6102677044
 30
0.0
 11
15.0878144221
 21
42.4334909465
 31
0.0
  0
ARC
  5
244
330
1F
100
AcDbEntity
  8
0
  6
Continuous
 62
     7
370
    25
100
AcDbCircle
 10
14.8226493656
 20
42.5218793199
 30
0.0
 40
0.1249999999999972
100
AcDbArc
 50
45.0
 51
135.0
  0
LINE
  5
245
330
1F
100
AcDbEntity
  8
0
  6
Continuous
 62
     7
370
    25
100
AcDbLine
 10
14.5574844418
 20
42.4334909465
 30
0.0
 11
14.734261493
 21
42.6102677044
 31
0.0
  0
ARC
  5
246
330
1F
100
AcDbEntity
  8
0
  6
Continuous
 62
     7
370
    25
100
AcDbCircle
 10
14.6458726703
 20
42.3451026246
 30
0.0
 40
0.1250000000000048
100
AcDbArc
 50
135.0
 51
225.0
  0
LINE
  5
247
330
1F
100
AcDbEntity
  8
0
  6
Continuous
 62
     7
370
    25
100
AcDbLine
 10
14.5574844418
 20
44.0167143904
 30
0.0
 11
14.734261493
 21
43.8399376325
 31
0.0
  0
ARC
  5
248
330
1F
100
AcDbEntity
  8
0
  6
Continuous
 62
     7
370
    25
100
AcDbCircle
 10
14.8226493656
 20
43.9283259293
 30
0.0
 40
0.1250000000000023
100
AcDbArc
 50
225.0
 51
315.0
  0
LINE
  5
249
330
1F
100
AcDbEntity
  8
0
  6
Continuous
 62
     7
370
    25
100
AcDbLine
 10
14.9110373709
 20
43.8399376325
 30
0.0
 11
15.0878144221
 21
44.0167143904
 31
0.0
  0
ARC
  5
24A
330
1F
100
AcDbEntity
  8
0
  6
Continuous
 62
     7
370
    25
100
AcDbCircle
 10
14.9994260609
 20
44.1051026246
 30
0.0
 40
0.1250000000000207
100
AcDbArc
 50
315.0000000004
 51
317.4651158035
  0
LINE
  5
24B
330
1F
100
AcDbEntity
  8
0
  6
Continuous
 62
     7
370
    25
100
AcDbLine
 10
15.0915338458
 20
44.0205977855
 30
0.0
 11
14.5537650181
 21
44.0205977855
 31
0.0
  0
ARC
  5
24C
330
1F
100
AcDbEntity
  8
0
  6
Continuous
 62
     7
370
    25
100
AcDbCircle
 10
14.6458726703
 20
44.1051026246
 30
0.0
 40
0.125000000000001
100
AcDbArc
 50
222.5348841969
 51
225.0
  0
LINE
  5
24D
330
1F
100
AcDbEntity
  8
0
  6
Continuous
 62
     7
370
    25
100
AcDbLine
 10
15.1723192592
 20
43.0522094524
 30
0.0
 11
14.995542208
 21
42.8754326945
 31
0.0
  0
ARC
  5
24E
330
1F
100
AcDbEntity
  8
0
  6
Continuous
 62
     7
370
    25
100
AcDbCircle
 10
15.083930932
 20
42.7870443628
 30
0.0
 40
0.1250000000000035
100
AcDbArc
 50
135.0
 51
225.0
  0
LINE
  5
24F
330
1F
100
AcDbEntity
  8
0
  6
Continuous
 62
     7
370
    25
100
AcDbLine
 10
14.995542208
 20
42.6986560833
 30
0.0
 11
15.1723192592
 21
42.5218793255
 31
0.0
  0
ARC
  5
250
330
1F
100
AcDbEntity
  8
0
  6
Continuous
 62
     7
370
    25
100
AcDbCircle
 10
15.2607076273
 20
42.6102676675
 30
0.0
 40
0.1250000000000048
100
AcDbArc
 50
225.0
 51
315.0
  0
LINE
  5
251
330
1F
100
AcDbEntity
  8
0
  6
Continuous
 62
     7
370
    25
100
AcDbLine
 10
15.3490963104
 20
42.5218793255
 30
0.0
 11
15.5258721883
 21
42.6986560833
 31
0.0
  0
ARC
  5
252
330
1F
100
AcDbEntity
  8
0
  6
Continuous
 62
     7
370
    25
100
AcDbCircle
 10
15.4374843226
 20
42.7870443628
 30
0.0
 40
0.1250000000000048
100
AcDbArc
 50
315.0
 51
45.0
  0
LINE
  5
253
330
1F
100
AcDbEntity
  8
0
  6
Continuous
 62
     7
370
    25
100
AcDbLine
 10
15.5258721883
 20
42.8754326945
 30
0.0
 11
15.3490963104
 21
43.0522094524
 31
0.0
  0
ARC
  5
254
330
1F
100
AcDbEntity
  8
0
  6
Continuous
 62
     7
370
    25
100
AcDbCircle
 10
15.2607076273
 20
42.9638210581
 30
0.0
 40
0.1249999999999985
100
AcDbArc
 50
45.0
 51
135.0
  0
LINE
  5
255
330
1F
100
AcDbEntity
  8
0
  6
Continuous
 62
     7
370
    25
100
AcDbLine
 10
15.437484836
 20
42.256714262
 30
0.0
 11
15.6142607138
 21
42.0799375775
 31
0.0
  0
LINE
  5
256
330
1F
100
AcDbEntity
  8
0
  6
Continuous
 62
     7
370
    25
100
AcDbLine
 10
15.6142607138
 20
42.0799375775
 30
0.0
 11
15.6142607138
 21
42.6102677044
 31
0.0
  0
LINE
  5
257
330
1F
100
AcDbEntity
  8
0
  6
Continuous
 62
     7
370
    25
100
AcDbLine
 10
15.437484836
 20
42.4334909465
 30
0.0
 11
15.6142607138
 21
42.6102677044
 31
0.0
  0
ARC
  5
258
330
1F
100
AcDbEntity
  8
0
  6
Continuous
 62
     7
370
    25
100
AcDbCircle
 10
15.5258726703
 20
42.3451026246
 30
0.0
 40
0.1250000000000048
100
AcDbArc
 50
135.0
 51
225.0
  0
LINE
  5
259
330
1F
100
AcDbEntity
  8
0
  6
Continuous
 62
     7
370
    25
100
AcDbLine
 10
14.9110373709
 20
41.7302676769
 30
0.0
 11
15.0878144221
 21
41.5534909557
 31
0.0
  0
ARC
  5
25A
330
1F
100
AcDbEntity
  8
0
  6
Continuous
 62
     7
370
    25
100
AcDbCircle
 10
14.8226493656
 20
41.6418793199
 30
0.0
 40
0.124999999999996
100
AcDbArc
 50
45.0
 51
135.0
  0
LINE
  5
25B
330
1F
100
AcDbEntity
  8
0
  6
Continuous
 62
     7
370
    25
100
AcDbLine
 10
14.5574844418
 20
41.5534909557
 30
0.0
 11
14.734261493
 21
41.7302676769
 31
0.0
  0
LINE
  5
25C
330
1F
100
AcDbEntity
  8
0
  6
Continuous
 62
     7
370
    25
100
AcDbLine
 10
15.0878144221
 20
41.5534909557
 30
0.0
 11
14.5574844418
 21
41.5534909557
 31
0.0
  0
LINE
  5
25D
330
1F
100
AcDbEntity
  8
0
  6
Continuous
 62
     7
370
    25
100
AcDbLine
 10
13.4123196442
 20
42.1722094249
 30
0.0
 11
13.235542593
 21
41.9954327404
 31
0.0
  0
ARC
  5
25E
330
1F
100
AcDbEntity
  8
0
  6
Continuous
 62
     7
370
    25
100
AcDbCircle
 10
13.323930932
 20
41.9070443628
 30
0.0
 40
0.125000000000001
100
AcDbArc
 50
135.0
 51
225.0
  0
LINE
  5
25F
330
1F
100
AcDbEntity
  8
0
  6
Continuous
 62
     7
370
    25
100
AcDbLine
 10
13.235542593
 20
41.8186559825
 30
0.0
 11
13.4123196442
 21
41.6418793346
 31
0.0
  0
ARC
  5
260
330
1F
100
AcDbEntity
  8
0
  6
Continuous
 62
     7
370
    25
100
AcDbCircle
 10
13.5007076273
 20
41.7302676675
 30
0.0
 40
0.1249999999999985
100
AcDbArc
 50
225.0
 51
315.0
  0
LINE
  5
261
330
1F
100
AcDbEntity
  8
0
  6
Continuous
 62
     7
370
    25
100
AcDbLine
 10
13.5890955221
 20
41.6418793346
 30
0.0
 11
13.7658725733
 21
41.8186559825
 31
0.0
  0
ARC
  5
262
330
1F
100
AcDbEntity
  8
0
  6
Continuous
 62
     7
370
    25
100
AcDbCircle
 10
13.6774843226
 20
41.9070443628
 30
0.0
 40
0.1249999999999998
100
AcDbArc
 50
315.0
 51
45.0
  0
LINE
  5
263
330
1F
100
AcDbEntity
  8
0
  6
Continuous
 62
     7
370
    25
100
AcDbLine
 10
13.7658725733
 20
41.9954327404
 30
0.0
 11
13.5890955221
 21
42.1722094249
 31
0.0
  0
ARC
  5
264
330
1F
100
AcDbEntity
  8
0
  6
Continuous
 62
     7
370
    25
100
AcDbCircle
 10
13.5007076273
 20
42.0838210581
 30
0.0
 40
0.1250000000000023
100
AcDbArc
 50
45.0
 51
135.0
  0
LINE
  5
265
330
1F
100
AcDbEntity
  8
0
  6
Continuous
 62
     7
370
    25
100
AcDbLine
 10
14.1155429872
 20
42.6986560833
 30
0.0
 11
14.292318865
 21
42.5218793255
 31
0.0
  0
ARC
  5
266
330
1F
100
AcDbEntity
  8
0
  6
Continuous
 62
     7
370
    25
100
AcDbCircle
 10
14.3807076273
 20
42.6102676675
 30
0.0
 40
0.1250000000000023
100
AcDbArc
 50
225.0
 51
315.0
  0
LINE
  5
267
330
1F
100
AcDbEntity
  8
0
  6
Continuous
 62
     7
370
    25
100
AcDbLine
 10
14.4690959162
 20
42.5218793255
 30
0.0
 11
14.6458729674
 21
42.6986560833
 31
0.0
  0
ARC
  5
268
330
1F
100
AcDbEntity
  8
0
  6
Continuous
 62
     7
370
    25
100
AcDbCircle
 10
14.5574843226
 20
42.7870443628
 30
0.0
 40
0.1250000000000048
100
AcDbArc
 50
315.0
 51
45.0
  0
LINE
  5
269
330
1F
100
AcDbEntity
  8
0
  6
Continuous
 62
     7
370
    25
100
AcDbLine
 10
14.6458729674
 20
42.8754326945
 30
0.0
 11
14.4690959162
 21
43.0522094524
 31
0.0
  0
ARC
  5
26A
330
1F
100
AcDbEntity
  8
0
  6
Continuous
 62
     7
370
    25
100
AcDbCircle
 10
14.3807076273
 20
42.9638210581
 30
0.0
 40
0.1249999999999972
100
AcDbArc
 50
45.0
 51
135.0
  0
LINE
  5
26B
330
1F
100
AcDbEntity
  8
0
  6
Continuous
 62
     7
370
    25
100
AcDbLine
 10
14.292318865
 20
43.0522094524
 30
0.0
 11
14.1155429872
 21
42.8754326945
 31
0.0
  0
ARC
  5
26C
330
1F
100
AcDbEntity
  8
0
  6
Continuous
 62
     7
370
    25
100
AcDbCircle
 10
14.203930932
 20
42.7870443628
 30
0.0
 40
0.1249999999999972
100
AcDbArc
 50
135.0
 51
225.0
  0
LINE
  5
26D
330
1F
100
AcDbEntity
  8
0
  6
Continuous
 62
     7
370
    25
100
AcDbLine
 10
13.6774840477
 20
44.0167143904
 30
0.0
 11
13.8542610988
 21
43.8399376325
 31
0.0
  0
ARC
  5
26E
330
1F
100
AcDbEntity
  8
0
  6
Continuous
 62
     7
370
    25
100
AcDbCircle
 10
13.9426493656
 20
43.9283259293
 30
0.0
 40
0.1250000000000023
100
AcDbArc
 50
225.0
 51
315.0
  0
LINE
  5
26F
330
1F
100
AcDbEntity
  8
0
  6
Continuous
 62
     7
370
    25
100
AcDbLine
 10
14.03103815
 20
43.8399376325
 30
0.0
 11
14.2078140279
 21
44.0167143904
 31
0.0
  0
ARC
  5
270
330
1F
100
AcDbEntity
  8
0
  6
Continuous
 62
     7
370
    25
100
AcDbCircle
 10
14.1194260609
 20
44.1051026246
 30
0.0
 40
0.1250000000000224
100
AcDbArc
 50
315.0000000004
 51
317.4651158035
  0
LINE
  5
271
330
1F
100
AcDbEntity
  8
0
  6
Continuous
 62
     7
370
    25
100
AcDbLine
 10
14.2115346249
 20
44.0205977855
 30
0.0
 11
13.673764624
 21
44.0205977855
 31
0.0
  0
ARC
  5
272
330
1F
100
AcDbEntity
  8
0
  6
Continuous
 62
     7
370
    25
100
AcDbCircle
 10
13.7658726703
 20
44.1051026246
 30
0.0
 40
0.125000000000006
100
AcDbArc
 50
222.5348841969
 51
225.0
  0
LINE
  5
273
330
1F
100
AcDbEntity
  8
0
  6
Continuous
 62
     7
370
    25
100
AcDbLine
 10
9.7155427763
 20
42.6986560833
 30
0.0
 11
9.8923192409
 21
42.5218793255
 31
0.0
  0
ARC
  5
274
330
1F
100
AcDbEntity
  8
0
  6
Continuous
 62
     7
370
    25
100
AcDbCircle
 10
9.9807076273
 20
42.6102676675
 30
0.0
 40
0.1250000000000035
100
AcDbArc
 50
225.0
 51
315.0
  0
LINE
  5
275
330
1F
100
AcDbEntity
  8
0
  6
Continuous
 62
     7
370
    25
100
AcDbLine
 10
10.0690957054
 20
42.5218793255
 30
0.0
 11
10.2458727566
 21
42.6986560833
 31
0.0
  0
ARC
  5
276
330
1F
100
AcDbEntity
  8
0
  6
Continuous
 62
     7
370
    25
100
AcDbCircle
 10
10.1574843226
 20
42.7870443628
 30
0.0
 40
0.1250000000000035
100
AcDbArc
 50
315.0
 51
45.0
  0
LINE
  5
277
330
1F
100
AcDbEntity
  8
0
  6
Continuous
 62
     7
370
    25
100
AcDbLine
 10
10.2458727566
 20
42.8754326945
 30
0.0
 11
10.0690957054
 21
43.0522094524
 31
0.0
  0
ARC
  5
278
330
1F
100
AcDbEntity
  8
0
  6
Continuous
 62
     7
370
    25
100
AcDbCircle
 10
9.9807076273
 20
42.9638210581
 30
0.0
 40
0.1249999999999947
100
AcDbArc
 50
45.0
 51
135.0
  0
LINE
  5
279
330
1F
100
AcDbEntity
  8
0
  6
Continuous
 62
     7
370
    25
100
AcDbLine
 10
9.8923192409
 20
43.0522094524
 30
0.0
 11
9.7155427763
 21
42.8754326945
 31
0.0
  0
ARC
  5
27A
330
1F
100
AcDbEntity
  8
0
  6
Continuous
 62
     7
370
    25
100
AcDbCircle
 10
9.803930932
 20
42.7870443628
 30
0.0
 40
0.1250000000000023
100
AcDbArc
 50
135.0
 51
225.0
  0
LINE
  5
27B
330
1F
100
AcDbEntity
  8
0
  6
Continuous
 62
     7
370
    25
100
AcDbLine
 10
10.157484231
 20
42.256714262
 30
0.0
 11
10.3342612822
 21
42.0799375775
 31
0.0
  0
ARC
  5
27C
330
1F
100
AcDbEntity
  8
0
  6
Continuous
 62
     7
370
    25
100
AcDbCircle
 10
10.4226493656
 20
42.1683259293
 30
0.0
 40
0.1250000000000073
100
AcDbArc
 50
225.0
 51
315.0
  0
LINE
  5
27D
330
1F
100
AcDbEntity
  8
0
  6
Continuous
 62
     7
370
    25
100
AcDbLine
 10
10.5110377467
 20
42.0799375775
 30
0.0
 11
10.6878147979
 21
42.256714262
 31
0.0
  0
ARC
  5
27E
330
1F
100
AcDbEntity
  8
0
  6
Continuous
 62
     7
370
    25
100
AcDbCircle
 10
10.5994260609
 20
42.3451026246
 30
0.0
 40
0.1249999999999985
100
AcDbArc
 50
315.0
 51
45.0
  0
LINE
  5
27F
330
1F
100
AcDbEntity
  8
0
  6
Continuous
 62
     7
370
    25
100
AcDbLine
 10
10.5110377467
 20
42.6102677044
 30
0.0
 11
10.6878147979
 21
42.4334909465
 31
0.0
  0
ARC
  5
280
330
1F
100
AcDbEntity
  8
0
  6
Continuous
 62
     7
370
    25
100
AcDbCircle
 10
10.4226493656
 20
42.5218793199
 30
0.0
 40
0.1250000000000073
100
AcDbArc
 50
45.0
 51
135.0
  0
LINE
  5
281
330
1F
100
AcDbEntity
  8
0
  6
Continuous
 62
     7
370
    25
100
AcDbLine
 10
10.157484231
 20
42.4334909465
 30
0.0
 11
10.3342612822
 21
42.6102677044
 31
0.0
  0
ARC
  5
282
330
1F
100
AcDbEntity
  8
0
  6
Continuous
 62
     7
370
    25
100
AcDbCircle
 10
10.2458726703
 20
42.3451026246
 30
0.0
 40
0.1249999999999998
100
AcDbArc
 50
135.0
 51
225.0
  0
LINE
  5
283
330
1F
100
AcDbEntity
  8
0
  6
Continuous
 62
     7
370
    25
100
AcDbLine
 10
10.157484231
 20
44.0167143904
 30
0.0
 11
10.3342612822
 21
43.8399376325
 31
0.0
  0
ARC
  5
284
330
1F
100
AcDbEntity
  8
0
  6
Continuous
 62
     7
370
    25
100
AcDbCircle
 10
10.4226493656
 20
43.9283259293
 30
0.0
 40
0.1249999999999972
100
AcDbArc
 50
225.0
 51
315.0
  0
LINE
  5
285
330
1F
100
AcDbEntity
  8
0
  6
Continuous
 62
     7
370
    25
100
AcDbLine
 10
10.5110377467
 20
43.8399376325
 30
0.0
 11
10.6878147979
 21
44.0167143904
 31
0.0
  0
ARC
  5
286
330
1F
100
AcDbEntity
  8
0
  6
Continuous
 62
     7
370
    25
100
AcDbCircle
 10
10.5994260609
 20
44.1051026246
 30
0.0
 40
0.1250000000000167
100
AcDbArc
 50
315.0000000004
 51
317.4651158035
  0
LINE
  5
287
330
1F
100
AcDbEntity
  8
0
  6
Continuous
 62
     7
370
    25
100
AcDbLine
 10
10.6915342216
 20
44.0205977855
 30
0.0
 11
10.1537642206
 21
44.0205977855
 31
0.0
  0
ARC
  5
288
330
1F
100
AcDbEntity
  8
0
  6
Continuous
 62
     7
370
    25
100
AcDbCircle
 10
10.2458726703
 20
44.1051026246
 30
0.0
 40
0.125000000000006
100
AcDbArc
 50
222.534884197
 51
225.0
  0
LINE
  5
289
330
1F
100
AcDbEntity
  8
0
  6
Continuous
 62
     7
370
    25
100
AcDbLine
 10
11.0374840385
 20
42.256714262
 30
0.0
 11
11.2142610897
 21
42.0799375775
 31
0.0
  0
ARC
  5
28A
330
1F
100
AcDbEntity
  8
0
  6
Continuous
 62
     7
370
    25
100
AcDbCircle
 10
11.3026493656
 20
42.1683259293
 30
0.0
 40
0.1250000000000035
100
AcDbArc
 50
225.0
 51
315.0
  0
LINE
  5
28B
330
1F
100
AcDbEntity
  8
0
  6
Continuous
 62
     7
370
    25
100
AcDbLine
 10
11.3910381409
 20
42.0799375775
 30
0.0
 11
11.5678140187
 21
42.256714262
 31
0.0
  0
ARC
  5
28C
330
1F
100
AcDbEntity
  8
0
  6
Continuous
 62
     7
370
    25
100
AcDbCircle
 10
11.4794260609
 20
42.3451026246
 30
0.0
 40
0.1250000000000035
100
AcDbArc
 50
315.0
 51
45.0
  0
LINE
  5
28D
330
1F
100
AcDbEntity
  8
0
  6
Continuous
 62
     7
370
    25
100
AcDbLine
 10
11.3910381409
 20
42.6102677044
 30
0.0
 11
11.5678140187
 21
42.4334909465
 31
0.0
  0
ARC
  5
28E
330
1F
100
AcDbEntity
  8
0
  6
Continuous
 62
     7
370
    25
100
AcDbCircle
 10
11.3026493656
 20
42.5218793199
 30
0.0
 40
0.125000000000001
100
AcDbArc
 50
45.0
 51
135.0
  0
LINE
  5
28F
330
1F
100
AcDbEntity
  8
0
  6
Continuous
 62
     7
370
    25
100
AcDbLine
 10
11.0374840385
 20
42.4334909465
 30
0.0
 11
11.2142610897
 21
42.6102677044
 31
0.0
  0
ARC
  5
290
330
1F
100
AcDbEntity
  8
0
  6
Continuous
 62
     7
370
    25
100
AcDbCircle
 10
11.1258726703
 20
42.3451026246
 30
0.0
 40
0.1249999999999985
100
AcDbArc
 50
135.0
 51
225.0
  0
LINE
  5
291
330
1F
100
AcDbEntity
  8
0
  6
Continuous
 62
     7
370
    25
100
AcDbLine
 10
11.0374840385
 20
44.0167143904
 30
0.0
 11
11.2142610897
 21
43.8399376325
 31
0.0
  0
ARC
  5
292
330
1F
100
AcDbEntity
  8
0
  6
Continuous
 62
     7
370
    25
100
AcDbCircle
 10
11.3026493656
 20
43.9283259293
 30
0.0
 40
0.1249999999999985
100
AcDbArc
 50
225.0
 51
315.0
  0
LINE
  5
293
330
1F
100
AcDbEntity
  8
0
  6
Continuous
 62
     7
370
    25
100
AcDbLine
 10
11.3910381409
 20
43.8399376325
 30
0.0
 11
11.5678140187
 21
44.0167143904
 31
0.0
  0
ARC
  5
294
330
1F
100
AcDbEntity
  8
0
  6
Continuous
 62
     7
370
    25
100
AcDbCircle
 10
11.4794260609
 20
44.1051026246
 30
0.0
 40
0.1250000000000215
100
AcDbArc
 50
315.0000000004
 51
317.4651158035
  0
LINE
  5
295
330
1F
100
AcDbEntity
  8
0
  6
Continuous
 62
     7
370
    25
100
AcDbLine
 10
11.5715346158
 20
44.0205977855
 30
0.0
 11
11.0337646148
 21
44.0205977855
 31
0.0
  0
LINE
  5
296
330
1F
100
AcDbEntity
  8
0
  6
Continuous
 62
     7
370
    25
100
AcDbLine
 10
10.5955425838
 20
42.6986560833
 30
0.0
 11
10.772319635
 21
42.5218793255
 31
0.0
  0
ARC
  5
297
330
1F
100
AcDbEntity
  8
0
  6
Continuous
 62
     7
370
    25
100
AcDbCircle
 10
10.8607076273
 20
42.6102676675
 30
0.0
 40
0.1249999999999998
100
AcDbArc
 50
225.0
 51
315.0
  0
LINE
  5
298
330
1F
100
AcDbEntity
  8
0
  6
Continuous
 62
     7
370
    25
100
AcDbLine
 10
10.9490955129
 20
42.5218793255
 30
0.0
 11
11.1258725641
 21
42.6986560833
 31
0.0
  0
ARC
  5
299
330
1F
100
AcDbEntity
  8
0
  6
Continuous
 62
     7
370
    25
100
AcDbCircle
 10
11.0374843226
 20
42.7870443628
 30
0.0
 40
0.1250000000000048
100
AcDbArc
 50
315.0
 51
45.0
  0
LINE
  5
29A
330
1F
100
AcDbEntity
  8
0
  6
Continuous
 62
     7
370
    25
100
AcDbLine
 10
11.1258725641
 20
42.8754326945
 30
0.0
 11
10.9490955129
 21
43.0522094524
 31
0.0
  0
ARC
  5
29B
330
1F
100
AcDbEntity
  8
0
  6
Continuous
 62
     7
370
    25
100
AcDbCircle
 10
10.8607076273
 20
42.9638210581
 30
0.0
 40
0.1249999999999985
100
AcDbArc
 50
45.0
 51
135.0
  0
LINE
  5
29C
330
1F
100
AcDbEntity
  8
0
  6
Continuous
 62
     7
370
    25
100
AcDbLine
 10
10.772319635
 20
43.0522094524
 30
0.0
 11
10.5955425838
 21
42.8754326945
 31
0.0
  0
ARC
  5
29D
330
1F
100
AcDbEntity
  8
0
  6
Continuous
 62
     7
370
    25
100
AcDbCircle
 10
10.683930932
 20
42.7870443628
 30
0.0
 40
0.125000000000006
100
AcDbArc
 50
135.0
 51
225.0
  0
LINE
  5
29E
330
1F
100
AcDbEntity
  8
0
  6
Continuous
 62
     7
370
    25
100
AcDbLine
 10
10.5110377467
 20
41.7302676769
 30
0.0
 11
10.6878147979
 21
41.5534909557
 31
0.0
  0
ARC
  5
29F
330
1F
100
AcDbEntity
  8
0
  6
Continuous
 62
     7
370
    25
100
AcDbCircle
 10
10.4226493656
 20
41.6418793199
 30
0.0
 40
0.1249999999999998
100
AcDbArc
 50
45.0
 51
135.0
  0
LINE
  5
2A0
330
1F
100
AcDbEntity
  8
0
  6
Continuous
 62
     7
370
    25
100
AcDbLine
 10
10.157484231
 20
41.5534909557
 30
0.0
 11
10.3342612822
 21
41.7302676769
 31
0.0
  0
LINE
  5
2A1
330
1F
100
AcDbEntity
  8
0
  6
Continuous
 62
     7
370
    25
100
AcDbLine
 10
10.6878147979
 20
41.5534909557
 30
0.0
 11
10.157484231
 21
41.5534909557
 31
0.0
  0
LINE
  5
2A2
330
1F
100
AcDbEntity
  8
0
  6
Continuous
 62
     7
370
    25
100
AcDbLine
 10
15.5258721883
 20
41.9954327404
 30
0.0
 11
15.3490963104
 21
42.1722094249
 31
0.0
  0
ARC
  5
2A3
330
1F
100
AcDbEntity
  8
0
  6
Continuous
 62
     7
370
    25
100
AcDbCircle
 10
15.2607076273
 20
42.0838210581
 30
0.0
 40
0.1249999999999985
100
AcDbArc
 50
45.0
 51
135.0
  0
LINE
  5
2A4
330
1F
100
AcDbEntity
  8
0
  6
Continuous
 62
     7
370
    25
100
AcDbLine
 10
15.1723192592
 20
42.1722094249
 30
0.0
 11
14.995542208
 21
41.9954327404
 31
0.0
  0
ARC
  5
2A5
330
1F
100
AcDbEntity
  8
0
  6
Continuous
 62
     7
370
    25
100
AcDbCircle
 10
15.083930932
 20
41.9070443628
 30
0.0
 40
0.1250000000000085
100
AcDbArc
 50
135.0
 51
225.0
  0
LINE
  5
2A6
330
1F
100
AcDbEntity
  8
0
  6
Continuous
 62
     7
370
    25
100
AcDbLine
 10
14.995542208
 20
41.8186559825
 30
0.0
 11
15.1723192592
 21
41.6418793346
 31
0.0
  0
ARC
  5
2A7
330
1F
100
AcDbEntity
  8
0
  6
Continuous
 62
     7
370
    25
100
AcDbCircle
 10
15.2607076273
 20
41.7302676675
 30
0.0
 40
0.125000000000001
100
AcDbArc
 50
225.0
 51
315.0
  0
LINE
  5
2A8
330
1F
100
AcDbEntity
  8
0
  6
Continuous
 62
     7
370
    25
100
AcDbLine
 10
15.3490963104
 20
41.6418793346
 30
0.0
 11
15.5258721883
 21
41.8186559825
 31
0.0
  0
ARC
  5
2A9
330
1F
100
AcDbEntity
  8
0
  6
Continuous
 62
     7
370
    25
100
AcDbCircle
 10
15.4374843226
 20
41.9070443628
 30
0.0
 40
0.1250000000000048
100
AcDbArc
 50
315.0
 51
45.0
  0
LINE
  5
2AA
330
1F
100
AcDbEntity
  8
0
  6
Continuous
 62
     7
370
    25
100
AcDbLine
 10
16.3707081886
 20
41.0320443628
 30
0.0
 11
16.3707081886
 21
44.3349374875
 31
0.0
  0
LINE
  5
2AB
330
1F
100
AcDbEntity
  8
0
  6
Continuous
 62
     7
370
    25
100
AcDbLine
 10
16.3707081886
 20
41.0320443628
 30
0.0
 11
1.1207076213
 21
41.0320443628
 31
0.0
  0
LINE
  5
2AC
330
1F
100
AcDbEntity
  8
0
  6
Continuous
 62
     7
370
    25
100
AcDbLine
 10
1.1207076213
 20
41.0320443628
 30
0.0
 11
1.1207076213
 21
41.6124988941
 31
0.0
  0
LINE
  5
2AD
330
1F
100
AcDbEntity
  8
0
  6
Continuous
 62
     7
370
    25
100
AcDbLine
 10
1.1207076213
 20
41.6124988941
 30
0.0
 11
0.8707076243
 21
41.6124988941
 31
0.0
  0
LINE
  5
2AE
330
1F
100
AcDbEntity
  8
0
  6
Continuous
 62
     7
370
    25
100
AcDbLine
 10
0.8707076243
 20
41.6124988941
 30
0.0
 11
0.8707076243
 21
44.3349374875
 31
0.0
  0
LINE
  5
2AF
330
1F
100
AcDbEntity
  8
0
  6
Continuous
 62
     7
370
    25
100
AcDbLine
 10
16.3707081886
 20
44.3349374875
 30
0.0
 11
0.8707076243
 21
44.3349374875
 31
0.0
  0
LINE
  5
2B0
330
1F
100
AcDbEntity
  8
0
  6
Continuous
 62
     7
370
    25
100
AcDbLine
 10
10.772319635
 20
42.1722094249
 30
0.0
 11
10.5955425838
 21
41.9954327404
 31
0.0
  0
ARC
  5
2B1
330
1F
100
AcDbEntity
  8
0
  6
Continuous
 62
     7
370
    25
100
AcDbCircle
 10
10.683930932
 20
41.9070443628
 30
0.0
 40
0.125000000000006
100
AcDbArc
 50
135.0
 51
225.0
  0
LINE
  5
2B2
330
1F
100
AcDbEntity
  8
0
  6
Continuous
 62
     7
370
    25
100
AcDbLine
 10
10.5955425838
 20
41.8186559825
 30
0.0
 11
10.772319635
 21
41.6418793346
 31
0.0
  0
ARC
  5
2B3
330
1F
100
AcDbEntity
  8
0
  6
Continuous
 62
     7
370
    25
100
AcDbCircle
 10
10.8607076273
 20
41.7302676675
 30
0.0
 40
0.125000000000001
100
AcDbArc
 50
225.0
 51
315.0
  0
LINE
  5
2B4
330
1F
100
AcDbEntity
  8
0
  6
Continuous
 62
     7
370
    25
100
AcDbLine
 10
10.9490955129
 20
41.6418793346
 30
0.0
 11
11.1258725641
 21
41.8186559825
 31
0.0
  0
ARC
  5
2B5
330
1F
100
AcDbEntity
  8
0
  6
Continuous
 62
     7
370
    25
100
AcDbCircle
 10
11.0374843226
 20
41.9070443628
 30
0.0
 40
0.1250000000000035
100
AcDbArc
 50
315.0
 51
45.0
  0
LINE
  5
2B6
330
1F
100
AcDbEntity
  8
0
  6
Continuous
 62
     7
370
    25
100
AcDbLine
 10
11.1258725641
 20
41.9954327404
 30
0.0
 11
10.9490955129
 21
42.1722094249
 31
0.0
  0
ARC
  5
2B7
330
1F
100
AcDbEntity
  8
0
  6
Continuous
 62
     7
370
    25
100
AcDbCircle
 10
10.8607076273
 20
42.0838210581
 30
0.0
 40
0.125000000000001
100
AcDbArc
 50
45.0
 51
135.0
  0
LINE
  5
2B8
330
1F
100
AcDbEntity
  8
0
  6
Continuous
 62
     7
370
    25
100
AcDbLine
 10
10.5955425838
 20
43.5786560375
 30
0.0
 11
10.772319635
 21
43.4018792796
 31
0.0
  0
ARC
  5
2B9
330
1F
100
AcDbEntity
  8
0
  6
Continuous
 62
     7
370
    25
100
AcDbCircle
 10
10.8607076273
 20
43.4902676675
 30
0.0
 40
0.1250000000000023
100
AcDbArc
 50
225.0
 51
315.0
  0
LINE
  5
2BA
330
1F
100
AcDbEntity
  8
0
  6
Continuous
 62
     7
370
    25
100
AcDbLine
 10
10.9490955129
 20
43.4018792796
 30
0.0
 11
11.1258725641
 21
43.5786560375
 31
0.0
  0
ARC
  5
2BB
330
1F
100
AcDbEntity
  8
0
  6
Continuous
 62
     7
370
    25
100
AcDbCircle
 10
11.0374843226
 20
43.6670443628
 30
0.0
 40
0.1250000000000035
100
AcDbArc
 50
315.0
 51
45.0
  0
LINE
  5
2BC
330
1F
100
AcDbEntity
  8
0
  6
Continuous
 62
     7
370
    25
100
AcDbLine
 10
11.1258725641
 20
43.7554327954
 30
0.0
 11
10.9490955129
 21
43.9322092599
 31
0.0
  0
ARC
  5
2BD
330
1F
100
AcDbEntity
  8
0
  6
Continuous
 62
     7
370
    25
100
AcDbCircle
 10
10.8607076273
 20
43.8438210581
 30
0.0
 40
0.1249999999999985
100
AcDbArc
 50
45.0
 51
135.0
  0
LINE
  5
2BE
330
1F
100
AcDbEntity
  8
0
  6
Continuous
 62
     7
370
    25
100
AcDbLine
 10
10.772319635
 20
43.9322092599
 30
0.0
 11
10.5955425838
 21
43.7554327954
 31
0.0
  0
ARC
  5
2BF
330
1F
100
AcDbEntity
  8
0
  6
Continuous
 62
     7
370
    25
100
AcDbCircle
 10
10.683930932
 20
43.6670443628
 30
0.0
 40
0.125000000000001
100
AcDbArc
 50
135.0
 51
225.0
  0
LINE
  5
2C0
330
1F
100
AcDbEntity
  8
0
  6
Continuous
 62
     7
370
    25
100
AcDbLine
 10
11.0374840385
 20
43.1367142895
 30
0.0
 11
11.2142610897
 21
42.9599375317
 31
0.0
  0
ARC
  5
2C1
330
1F
100
AcDbEntity
  8
0
  6
Continuous
 62
     7
370
    25
100
AcDbCircle
 10
11.3026493656
 20
43.0483259293
 30
0.0
 40
0.1250000000000035
100
AcDbArc
 50
225.0
 51
315.0
  0
LINE
  5
2C2
330
1F
100
AcDbEntity
  8
0
  6
Continuous
 62
     7
370
    25
100
AcDbLine
 10
11.3910381409
 20
42.9599375317
 30
0.0
 11
11.5678140187
 21
43.1367142895
 31
0.0
  0
ARC
  5
2C3
330
1F
100
AcDbEntity
  8
0
  6
Continuous
 62
     7
370
    25
100
AcDbCircle
 10
11.4794260609
 20
43.2251026246
 30
0.0
 40
0.1249999999999985
100
AcDbArc
 50
315.0
 51
45.0
  0
LINE
  5
2C4
330
1F
100
AcDbEntity
  8
0
  6
Continuous
 62
     7
370
    25
100
AcDbLine
 10
11.3910381409
 20
43.4902676586
 30
0.0
 11
11.5678140187
 21
43.3134909007
 31
0.0
  0
ARC
  5
2C5
330
1F
100
AcDbEntity
  8
0
  6
Continuous
 62
     7
370
    25
100
AcDbCircle
 10
11.3026493656
 20
43.4018793199
 30
0.0
 40
0.1249999999999972
100
AcDbArc
 50
45.0
 51
135.0
  0
LINE
  5
2C6
330
1F
100
AcDbEntity
  8
0
  6
Continuous
 62
     7
370
    25
100
AcDbLine
 10
11.0374840385
 20
43.3134909007
 30
0.0
 11
11.2142610897
 21
43.4902676586
 31
0.0
  0
ARC
  5
2C7
330
1F
100
AcDbEntity
  8
0
  6
Continuous
 62
     7
370
    25
100
AcDbCircle
 10
11.1258726703
 20
43.2251026246
 30
0.0
 40
0.1250000000000023
100
AcDbArc
 50
135.0
 51
225.0
  0
LINE
  5
2C8
330
1F
100
AcDbEntity
  8
0
  6
Continuous
 62
     7
370
    25
100
AcDbLine
 10
11.3910381409
 20
41.7302676769
 30
0.0
 11
11.5678140187
 21
41.5534909557
 31
0.0
  0
ARC
  5
2C9
330
1F
100
AcDbEntity
  8
0
  6
Continuous
 62
     7
370
    25
100
AcDbCircle
 10
11.3026493656
 20
41.6418793199
 30
0.0
 40
0.124999999999996
100
AcDbArc
 50
45.0
 51
135.0
  0
LINE
  5
2CA
330
1F
100
AcDbEntity
  8
0
  6
Continuous
 62
     7
370
    25
100
AcDbLine
 10
11.0374840385
 20
41.5534909557
 30
0.0
 11
11.2142610897
 21
41.7302676769
 31
0.0
  0
LINE
  5
2CB
330
1F
100
AcDbEntity
  8
0
  6
Continuous
 62
     7
370
    25
100
AcDbLine
 10
11.5678140187
 20
41.5534909557
 30
0.0
 11
11.0374840385
 21
41.5534909557
 31
0.0
  0
LINE
  5
2CC
330
1F
100
AcDbEntity
  8
0
  6
Continuous
 62
     7
370
    25
100
AcDbLine
 10
10.157484231
 20
43.1367142895
 30
0.0
 11
10.3342612822
 21
42.9599375317
 31
0.0
  0
ARC
  5
2CD
330
1F
100
AcDbEntity
  8
0
  6
Continuous
 62
     7
370
    25
100
AcDbCircle
 10
10.4226493656
 20
43.0483259293
 30
0.0
 40
0.125000000000006
100
AcDbArc
 50
225.0
 51
315.0
  0
LINE
  5
2CE
330
1F
100
AcDbEntity
  8
0
  6
Continuous
 62
     7
370
    25
100
AcDbLine
 10
10.5110377467
 20
42.9599375317
 30
0.0
 11
10.6878147979
 21
43.1367142895
 31
0.0
  0
ARC
  5
2CF
330
1F
100
AcDbEntity
  8
0
  6
Continuous
 62
     7
370
    25
100
AcDbCircle
 10
10.5994260609
 20
43.2251026246
 30
0.0
 40
0.1249999999999985
100
AcDbArc
 50
315.0
 51
45.0
  0
LINE
  5
2D0
330
1F
100
AcDbEntity
  8
0
  6
Continuous
 62
     7
370
    25
100
AcDbLine
 10
10.5110377467
 20
43.4902676586
 30
0.0
 11
10.6878147979
 21
43.3134909007
 31
0.0
  0
ARC
  5
2D1
330
1F
100
AcDbEntity
  8
0
  6
Continuous
 62
     7
370
    25
100
AcDbCircle
 10
10.4226493656
 20
43.4018793199
 30
0.0
 40
0.1249999999999972
100
AcDbArc
 50
45.0
 51
135.0
  0
LINE
  5
2D2
330
1F
100
AcDbEntity
  8
0
  6
Continuous
 62
     7
370
    25
100
AcDbLine
 10
10.157484231
 20
43.3134909007
 30
0.0
 11
10.3342612822
 21
43.4902676586
 31
0.0
  0
ARC
  5
2D3
330
1F
100
AcDbEntity
  8
0
  6
Continuous
 62
     7
370
    25
100
AcDbCircle
 10
10.2458726703
 20
43.2251026246
 30
0.0
 40
0.125000000000001
100
AcDbArc
 50
135.0
 51
225.0
  0
LINE
  5
2D4
330
1F
100
AcDbEntity
  8
0
  6
Continuous
 62
     7
370
    25
100
AcDbLine
 10
9.6310379392
 20
42.9599375317
 30
0.0
 11
9.8078144037
 21
43.1367142895
 31
0.0
  0
ARC
  5
2D5
330
1F
100
AcDbEntity
  8
0
  6
Continuous
 62
     7
370
    25
100
AcDbCircle
 10
9.7194260609
 20
43.2251026246
 30
0.0
 40
0.1250000000000048
100
AcDbArc
 50
315.0
 51
45.0
  0
LINE
  5
2D6
330
1F
100
AcDbEntity
  8
0
  6
Continuous
 62
     7
370
    25
100
AcDbLine
 10
9.6310379392
 20
43.4902676586
 30
0.0
 11
9.8078144037
 21
43.3134909007
 31
0.0
  0
ARC
  5
2D7
330
1F
100
AcDbEntity
  8
0
  6
Continuous
 62
     7
370
    25
100
AcDbCircle
 10
9.5426493656
 20
43.4018793199
 30
0.0
 40
0.124999999999991
100
AcDbArc
 50
44.9999999997
 51
47.4651158028
  0
LINE
  5
2D8
330
1F
100
AcDbEntity
  8
0
  6
Continuous
 62
     7
370
    25
100
AcDbLine
 10
9.6271542507
 20
42.956217668
 30
0.0
 11
9.6271542507
 21
43.4939875223
 31
0.0
  0
ARC
  5
2D9
330
1F
100
AcDbEntity
  8
0
  6
Continuous
 62
     7
370
    25
100
AcDbCircle
 10
9.5426493656
 20
43.0483259293
 30
0.0
 40
0.1250000000000042
100
AcDbArc
 50
312.5348841969
 51
315.0
  0
LINE
  5
2DA
330
1F
100
AcDbEntity
  8
0
  6
Continuous
 62
     7
370
    25
100
AcDbLine
 10
9.7155427763
 20
43.5786560375
 30
0.0
 11
9.8923192409
 21
43.4018792796
 31
0.0
  0
ARC
  5
2DB
330
1F
100
AcDbEntity
  8
0
  6
Continuous
 62
     7
370
    25
100
AcDbCircle
 10
9.9807076273
 20
43.4902676675
 30
0.0
 40
0.1250000000000035
100
AcDbArc
 50
225.0
 51
315.0
  0
LINE
  5
2DC
330
1F
100
AcDbEntity
  8
0
  6
Continuous
 62
     7
370
    25
100
AcDbLine
 10
10.0690957054
 20
43.4018792796
 30
0.0
 11
10.2458727566
 21
43.5786560375
 31
0.0
  0
ARC
  5
2DD
330
1F
100
AcDbEntity
  8
0
  6
Continuous
 62
     7
370
    25
100
AcDbCircle
 10
10.1574843226
 20
43.6670443628
 30
0.0
 40
0.1250000000000035
100
AcDbArc
 50
315.0
 51
45.0
  0
LINE
  5
2DE
330
1F
100
AcDbEntity
  8
0
  6
Continuous
 62
     7
370
    25
100
AcDbLine
 10
10.2458727566
 20
43.7554327954
 30
0.0
 11
10.0690957054
 21
43.9322092599
 31
0.0
  0
ARC
  5
2DF
330
1F
100
AcDbEntity
  8
0
  6
Continuous
 62
     7
370
    25
100
AcDbCircle
 10
9.9807076273
 20
43.8438210581
 30
0.0
 40
0.1250000000000023
100
AcDbArc
 50
45.0
 51
135.0
  0
LINE
  5
2E0
330
1F
100
AcDbEntity
  8
0
  6
Continuous
 62
     7
370
    25
100
AcDbLine
 10
9.8923192409
 20
43.9322092599
 30
0.0
 11
9.7155427763
 21
43.7554327954
 31
0.0
  0
ARC
  5
2E1
330
1F
100
AcDbEntity
  8
0
  6
Continuous
 62
     7
370
    25
100
AcDbCircle
 10
9.803930932
 20
43.6670443628
 30
0.0
 40
0.1249999999999985
100
AcDbArc
 50
135.0
 51
225.0
  0
LINE
  5
2E2
330
1F
100
AcDbEntity
  8
0
  6
Continuous
 62
     7
370
    25
100
AcDbLine
 10
9.8923192409
 20
42.1722094249
 30
0.0
 11
9.7155427763
 21
41.9954327404
 31
0.0
  0
ARC
  5
2E3
330
1F
100
AcDbEntity
  8
0
  6
Continuous
 62
     7
370
    25
100
AcDbCircle
 10
9.803930932
 20
41.9070443628
 30
0.0
 40
0.125000000000001
100
AcDbArc
 50
135.0
 51
225.0
  0
LINE
  5
2E4
330
1F
100
AcDbEntity
  8
0
  6
Continuous
 62
     7
370
    25
100
AcDbLine
 10
9.7155427763
 20
41.8186559825
 30
0.0
 11
9.8923192409
 21
41.6418793346
 31
0.0
  0
ARC
  5
2E5
330
1F
100
AcDbEntity
  8
0
  6
Continuous
 62
     7
370
    25
100
AcDbCircle
 10
9.9807076273
 20
41.7302676675
 30
0.0
 40
0.1249999999999985
100
AcDbArc
 50
225.0
 51
315.0
  0
LINE
  5
2E6
330
1F
100
AcDbEntity
  8
0
  6
Continuous
 62
     7
370
    25
100
AcDbLine
 10
10.0690957054
 20
41.6418793346
 30
0.0
 11
10.2458727566
 21
41.8186559825
 31
0.0
  0
ARC
  5
2E7
330
1F
100
AcDbEntity
  8
0
  6
Continuous
 62
     7
370
    25
100
AcDbCircle
 10
10.1574843226
 20
41.9070443628
 30
0.0
 40
0.1249999999999985
100
AcDbArc
 50
315.0
 51
45.0
  0
LINE
  5
2E8
330
1F
100
AcDbEntity
  8
0
  6
Continuous
 62
     7
370
    25
100
AcDbLine
 10
10.2458727566
 20
41.9954327404
 30
0.0
 11
10.0690957054
 21
42.1722094249
 31
0.0
  0
ARC
  5
2E9
330
1F
100
AcDbEntity
  8
0
  6
Continuous
 62
     7
370
    25
100
AcDbCircle
 10
9.9807076273
 20
42.0838210581
 30
0.0
 40
0.125000000000006
100
AcDbArc
 50
45.0
 51
135.0
  0
LINE
  5
2EA
330
1F
100
AcDbEntity
  8
0
  6
Continuous
 62
     7
370
    25
100
AcDbLine
 10
9.6310379392
 20
42.0799375775
 30
0.0
 11
9.8078144037
 21
42.256714262
 31
0.0
  0
ARC
  5
2EB
330
1F
100
AcDbEntity
  8
0
  6
Continuous
 62
     7
370
    25
100
AcDbCircle
 10
9.7194260609
 20
42.3451026246
 30
0.0
 40
0.1249999999999985
100
AcDbArc
 50
315.0
 51
45.0
  0
LINE
  5
2EC
330
1F
100
AcDbEntity
  8
0
  6
Continuous
 62
     7
370
    25
100
AcDbLine
 10
9.6310379392
 20
42.6102677044
 30
0.0
 11
9.8078144037
 21
42.4334909465
 31
0.0
  0
ARC
  5
2ED
330
1F
100
AcDbEntity
  8
0
  6
Continuous
 62
     7
370
    25
100
AcDbCircle
 10
9.5426493656
 20
42.5218793199
 30
0.0
 40
0.1249999999999897
100
AcDbArc
 50
44.9999999997
 51
47.4651158028
  0
LINE
  5
2EE
330
1F
100
AcDbEntity
  8
0
  6
Continuous
 62
     7
370
    25
100
AcDbLine
 10
9.6271542507
 20
42.0762177138
 30
0.0
 11
9.6271542507
 21
42.6139875681
 31
0.0
  0
ARC
  5
2EF
330
1F
100
AcDbEntity
  8
0
  6
Continuous
 62
     7
370
    25
100
AcDbCircle
 10
9.5426493656
 20
42.1683259293
 30
0.0
 40
0.125000000000006
100
AcDbArc
 50
312.5348841969
 51
315.0
  0
LINE
  5
2F0
330
1F
100
AcDbEntity
  8
0
  6
Continuous
 62
     7
370
    25
100
AcDbLine
 10
13.6774840477
 20
43.1367142895
 30
0.0
 11
13.8542610988
 21
42.9599375317
 31
0.0
  0
ARC
  5
2F1
330
1F
100
AcDbEntity
  8
0
  6
Continuous
 62
     7
370
    25
100
AcDbCircle
 10
13.9426493656
 20
43.0483259293
 30
0.0
 40
0.1250000000000023
100
AcDbArc
 50
225.0
 51
315.0
  0
LINE
  5
2F2
330
1F
100
AcDbEntity
  8
0
  6
Continuous
 62
     7
370
    25
100
AcDbLine
 10
14.03103815
 20
42.9599375317
 30
0.0
 11
14.2078140279
 21
43.1367142895
 31
0.0
  0
ARC
  5
2F3
330
1F
100
AcDbEntity
  8
0
  6
Continuous
 62
     7
370
    25
100
AcDbCircle
 10
14.1194260609
 20
43.2251026246
 30
0.0
 40
0.1250000000000048
100
AcDbArc
 50
315.0
 51
45.0
  0
LINE
  5
2F4
330
1F
100
AcDbEntity
  8
0
  6
Continuous
 62
     7
370
    25
100
AcDbLine
 10
14.03103815
 20
43.4902676586
 30
0.0
 11
14.2078140279
 21
43.3134909007
 31
0.0
  0
ARC
  5
2F5
330
1F
100
AcDbEntity
  8
0
  6
Continuous
 62
     7
370
    25
100
AcDbCircle
 10
13.9426493656
 20
43.4018793199
 30
0.0
 40
0.1250000000000035
100
AcDbArc
 50
45.0
 51
135.0
  0
LINE
  5
2F6
330
1F
100
AcDbEntity
  8
0
  6
Continuous
 62
     7
370
    25
100
AcDbLine
 10
13.6774840477
 20
43.3134909007
 30
0.0
 11
13.8542610988
 21
43.4902676586
 31
0.0
  0
ARC
  5
2F7
330
1F
100
AcDbEntity
  8
0
  6
Continuous
 62
     7
370
    25
100
AcDbCircle
 10
13.7658726703
 20
43.2251026246
 30
0.0
 40
0.1250000000000035
100
AcDbArc
 50
135.0
 51
225.0
  0
LINE
  5
2F8
330
1F
100
AcDbEntity
  8
0
  6
Continuous
 62
     7
370
    25
100
AcDbLine
 10
14.1155429872
 20
43.5786560375
 30
0.0
 11
14.292318865
 21
43.4018792796
 31
0.0
  0
ARC
  5
2F9
330
1F
100
AcDbEntity
  8
0
  6
Continuous
 62
     7
370
    25
100
AcDbCircle
 10
14.3807076273
 20
43.4902676675
 30
0.0
 40
0.1250000000000035
100
AcDbArc
 50
225.0
 51
315.0
  0
LINE
  5
2FA
330
1F
100
AcDbEntity
  8
0
  6
Continuous
 62
     7
370
    25
100
AcDbLine
 10
14.4690959162
 20
43.4018792796
 30
0.0
 11
14.6458729674
 21
43.5786560375
 31
0.0
  0
ARC
  5
2FB
330
1F
100
AcDbEntity
  8
0
  6
Continuous
 62
     7
370
    25
100
AcDbCircle
 10
14.5574843226
 20
43.6670443628
 30
0.0
 40
0.1250000000000085
100
AcDbArc
 50
315.0
 51
45.0
  0
LINE
  5
2FC
330
1F
100
AcDbEntity
  8
0
  6
Continuous
 62
     7
370
    25
100
AcDbLine
 10
14.6458729674
 20
43.7554327954
 30
0.0
 11
14.4690959162
 21
43.9322092599
 31
0.0
  0
ARC
  5
2FD
330
1F
100
AcDbEntity
  8
0
  6
Continuous
 62
     7
370
    25
100
AcDbCircle
 10
14.3807076273
 20
43.8438210581
 30
0.0
 40
0.125000000000001
100
AcDbArc
 50
45.0
 51
135.0
  0
LINE
  5
2FE
330
1F
100
AcDbEntity
  8
0
  6
Continuous
 62
     7
370
    25
100
AcDbLine
 10
14.292318865
 20
43.9322092599
 30
0.0
 11
14.1155429872
 21
43.7554327954
 31
0.0
  0
ARC
  5
2FF
330
1F
100
AcDbEntity
  8
0
  6
Continuous
 62
     7
370
    25
100
AcDbCircle
 10
14.203930932
 20
43.6670443628
 30
0.0
 40
0.1249999999999972
100
AcDbArc
 50
135.0
 51
225.0
  0
LINE
  5
300
330
1F
100
AcDbEntity
  8
0
  6
Continuous
 62
     7
370
    25
100
AcDbLine
 10
13.235542593
 20
42.6986560833
 30
0.0
 11
13.4123196442
 21
42.5218793255
 31
0.0
  0
ARC
  5
301
330
1F
100
AcDbEntity
  8
0
  6
Continuous
 62
     7
370
    25
100
AcDbCircle
 10
13.5007076273
 20
42.6102676675
 30
0.0
 40
0.1250000000000035
100
AcDbArc
 50
225.0
 51
315.0
  0
LINE
  5
302
330
1F
100
AcDbEntity
  8
0
  6
Continuous
 62
     7
370
    25
100
AcDbLine
 10
13.5890955221
 20
42.5218793255
 30
0.0
 11
13.7658725733
 21
42.6986560833
 31
0.0
  0
ARC
  5
303
330
1F
100
AcDbEntity
  8
0
  6
Continuous
 62
     7
370
    25
100
AcDbCircle
 10
13.6774843226
 20
42.7870443628
 30
0.0
 40
0.1249999999999998
100
AcDbArc
 50
315.0
 51
45.0
  0
LINE
  5
304
330
1F
100
AcDbEntity
  8
0
  6
Continuous
 62
     7
370
    25
100
AcDbLine
 10
13.7658725733
 20
42.8754326945
 30
0.0
 11
13.5890955221
 21
43.0522094524
 31
0.0
  0
ARC
  5
305
330
1F
100
AcDbEntity
  8
0
  6
Continuous
 62
     7
370
    25
100
AcDbCircle
 10
13.5007076273
 20
42.9638210581
 30
0.0
 40
0.1250000000000023
100
AcDbArc
 50
45.0
 51
135.0
  0
LINE
  5
306
330
1F
100
AcDbEntity
  8
0
  6
Continuous
 62
     7
370
    25
100
AcDbLine
 10
13.4123196442
 20
43.0522094524
 30
0.0
 11
13.235542593
 21
42.8754326945
 31
0.0
  0
ARC
  5
307
330
1F
100
AcDbEntity
  8
0
  6
Continuous
 62
     7
370
    25
100
AcDbCircle
 10
13.323930932
 20
42.7870443628
 30
0.0
 40
0.1249999999999985
100
AcDbArc
 50
135.0
 51
225.0
  0
LINE
  5
308
330
1F
100
AcDbEntity
  8
0
  6
Continuous
 62
     7
370
    25
100
AcDbLine
 10
14.03103815
 20
41.7302676769
 30
0.0
 11
14.2078140279
 21
41.5534909557
 31
0.0
  0
ARC
  5
309
330
1F
100
AcDbEntity
  8
0
  6
Continuous
 62
     7
370
    25
100
AcDbCircle
 10
13.9426493656
 20
41.6418793199
 30
0.0
 40
0.124999999999996
100
AcDbArc
 50
45.0
 51
135.0
  0
LINE
  5
30A
330
1F
100
AcDbEntity
  8
0
  6
Continuous
 62
     7
370
    25
100
AcDbLine
 10
13.6774840477
 20
41.5534909557
 30
0.0
 11
13.8542610988
 21
41.7302676769
 31
0.0
  0
LINE
  5
30B
330
1F
100
AcDbEntity
  8
0
  6
Continuous
 62
     7
370
    25
100
AcDbLine
 10
14.2078140279
 20
41.5534909557
 30
0.0
 11
13.6774840477
 21
41.5534909557
 31
0.0
  0
LINE
  5
30C
330
1F
100
AcDbEntity
  8
0
  6
Continuous
 62
     7
370
    25
100
AcDbLine
 10
13.6774840477
 20
42.256714262
 30
0.0
 11
13.8542610988
 21
42.0799375775
 31
0.0
  0
ARC
  5
30D
330
1F
100
AcDbEntity
  8
0
  6
Continuous
 62
     7
370
    25
100
AcDbCircle
 10
13.9426493656
 20
42.1683259293
 30
0.0
 40
0.1249999999999972
100
AcDbArc
 50
225.0
 51
315.0
  0
LINE
  5
30E
330
1F
100
AcDbEntity
  8
0
  6
Continuous
 62
     7
370
    25
100
AcDbLine
 10
14.03103815
 20
42.0799375775
 30
0.0
 11
14.2078140279
 21
42.256714262
 31
0.0
  0
ARC
  5
30F
330
1F
100
AcDbEntity
  8
0
  6
Continuous
 62
     7
370
    25
100
AcDbCircle
 10
14.1194260609
 20
42.3451026246
 30
0.0
 40
0.1250000000000048
100
AcDbArc
 50
315.0
 51
45.0
  0
LINE
  5
310
330
1F
100
AcDbEntity
  8
0
  6
Continuous
 62
     7
370
    25
100
AcDbLine
 10
14.03103815
 20
42.6102677044
 30
0.0
 11
14.2078140279
 21
42.4334909465
 31
0.0
  0
ARC
  5
311
330
1F
100
AcDbEntity
  8
0
  6
Continuous
 62
     7
370
    25
100
AcDbCircle
 10
13.9426493656
 20
42.5218793199
 30
0.0
 40
0.1250000000000085
100
AcDbArc
 50
45.0
 51
135.0
  0
LINE
  5
312
330
1F
100
AcDbEntity
  8
0
  6
Continuous
 62
     7
370
    25
100
AcDbLine
 10
13.6774840477
 20
42.4334909465
 30
0.0
 11
13.8542610988
 21
42.6102677044
 31
0.0
  0
ARC
  5
313
330
1F
100
AcDbEntity
  8
0
  6
Continuous
 62
     7
370
    25
100
AcDbCircle
 10
13.7658726703
 20
42.3451026246
 30
0.0
 40
0.1249999999999985
100
AcDbArc
 50
135.0
 51
225.0
  0
LINE
  5
314
330
1F
100
AcDbEntity
  8
0
  6
Continuous
 62
     7
370
    25
100
AcDbLine
 10
15.1723192592
 20
43.9322092599
 30
0.0
 11
14.995542208
 21
43.7554327954
 31
0.0
  0
ARC
  5
315
330
1F
100
AcDbEntity
  8
0
  6
Continuous
 62
     7
370
    25
100
AcDbCircle
 10
15.083930932
 20
43.6670443628
 30
0.0
 40
0.1250000000000035
100
AcDbArc
 50
135.0
 51
225.0
  0
LINE
  5
316
330
1F
100
AcDbEntity
  8
0
  6
Continuous
 62
     7
370
    25
100
AcDbLine
 10
14.995542208
 20
43.5786560375
 30
0.0
 11
15.1723192592
 21
43.4018792796
 31
0.0
  0
ARC
  5
317
330
1F
100
AcDbEntity
  8
0
  6
Continuous
 62
     7
370
    25
100
AcDbCircle
 10
15.2607076273
 20
43.4902676675
 30
0.0
 40
0.1250000000000023
100
AcDbArc
 50
225.0
 51
315.0
  0
LINE
  5
318
330
1F
100
AcDbEntity
  8
0
  6
Continuous
 62
     7
370
    25
100
AcDbLine
 10
15.3490963104
 20
43.4018792796
 30
0.0
 11
15.5258721883
 21
43.5786560375
 31
0.0
  0
ARC
  5
319
330
1F
100
AcDbEntity
  8
0
  6
Continuous
 62
     7
370
    25
100
AcDbCircle
 10
15.4374843226
 20
43.6670443628
 30
0.0
 40
0.1250000000000048
100
AcDbArc
 50
315.0
 51
45.0
  0
LINE
  5
31A
330
1F
100
AcDbEntity
  8
0
  6
Continuous
 62
     7
370
    25
100
AcDbLine
 10
15.5258721883
 20
43.7554327954
 30
0.0
 11
15.3490963104
 21
43.9322092599
 31
0.0
  0
ARC
  5
31B
330
1F
100
AcDbEntity
  8
0
  6
Continuous
 62
     7
370
    25
100
AcDbCircle
 10
15.2607076273
 20
43.8438210581
 30
0.0
 40
0.1250000000000023
100
AcDbArc
 50
45.0
 51
135.0
  0
LINE
  5
31C
330
1F
100
AcDbEntity
  8
0
  6
Continuous
 62
     7
370
    25
100
AcDbLine
 10
14.292318865
 20
42.1722094249
 30
0.0
 11
14.1155429872
 21
41.9954327404
 31
0.0
  0
ARC
  5
31D
330
1F
100
AcDbEntity
  8
0
  6
Continuous
 62
     7
370
    25
100
AcDbCircle
 10
14.203930932
 20
41.9070443628
 30
0.0
 40
0.125000000000001
100
AcDbArc
 50
135.0
 51
225.0
  0
LINE
  5
31E
330
1F
100
AcDbEntity
  8
0
  6
Continuous
 62
     7
370
    25
100
AcDbLine
 10
14.1155429872
 20
41.8186559825
 30
0.0
 11
14.292318865
 21
41.6418793346
 31
0.0
  0
ARC
  5
31F
330
1F
100
AcDbEntity
  8
0
  6
Continuous
 62
     7
370
    25
100
AcDbCircle
 10
14.3807076273
 20
41.7302676675
 30
0.0
 40
0.1249999999999998
100
AcDbArc
 50
225.0
 51
315.0
  0
LINE
  5
320
330
1F
100
AcDbEntity
  8
0
  6
Continuous
 62
     7
370
    25
100
AcDbLine
 10
14.4690959162
 20
41.6418793346
 30
0.0
 11
14.6458729674
 21
41.8186559825
 31
0.0
  0
ARC
  5
321
330
1F
100
AcDbEntity
  8
0
  6
Continuous
 62
     7
370
    25
100
AcDbCircle
 10
14.5574843226
 20
41.9070443628
 30
0.0
 40
0.1250000000000035
100
AcDbArc
 50
315.0
 51
45.0
  0
LINE
  5
322
330
1F
100
AcDbEntity
  8
0
  6
Continuous
 62
     7
370
    25
100
AcDbLine
 10
14.6458729674
 20
41.9954327404
 30
0.0
 11
14.4690959162
 21
42.1722094249
 31
0.0
  0
ARC
  5
323
330
1F
100
AcDbEntity
  8
0
  6
Continuous
 62
     7
370
    25
100
AcDbCircle
 10
14.3807076273
 20
42.0838210581
 30
0.0
 40
0.1249999999999972
100
AcDbArc
 50
45.0
 51
135.0
  0
LINE
  5
324
330
1F
100
AcDbEntity
  8
0
  6
Continuous
 62
     7
370
    25
100
AcDbLine
 10
14.5574844418
 20
43.1367142895
 30
0.0
 11
14.734261493
 21
42.9599375317
 31
0.0
  0
ARC
  5
325
330
1F
100
AcDbEntity
  8
0
  6
Continuous
 62
     7
370
    25
100
AcDbCircle
 10
14.8226493656
 20
43.0483259293
 30
0.0
 40
0.1250000000000073
100
AcDbArc
 50
225.0
 51
315.0
  0
LINE
  5
326
330
1F
100
AcDbEntity
  8
0
  6
Continuous
 62
     7
370
    25
100
AcDbLine
 10
14.9110373709
 20
42.9599375317
 30
0.0
 11
15.0878144221
 21
43.1367142895
 31
0.0
  0
ARC
  5
327
330
1F
100
AcDbEntity
  8
0
  6
Continuous
 62
     7
370
    25
100
AcDbCircle
 10
14.9994260609
 20
43.2251026246
 30
0.0
 40
0.1249999999999998
100
AcDbArc
 50
315.0
 51
45.0
  0
LINE
  5
328
330
1F
100
AcDbEntity
  8
0
  6
Continuous
 62
     7
370
    25
100
AcDbLine
 10
14.9110373709
 20
43.4902676586
 30
0.0
 11
15.0878144221
 21
43.3134909007
 31
0.0
  0
ARC
  5
329
330
1F
100
AcDbEntity
  8
0
  6
Continuous
 62
     7
370
    25
100
AcDbCircle
 10
14.8226493656
 20
43.4018793199
 30
0.0
 40
0.125000000000006
100
AcDbArc
 50
45.0
 51
135.0
  0
LINE
  5
32A
330
1F
100
AcDbEntity
  8
0
  6
Continuous
 62
     7
370
    25
100
AcDbLine
 10
14.5574844418
 20
43.3134909007
 30
0.0
 11
14.734261493
 21
43.4902676586
 31
0.0
  0
ARC
  5
32B
330
1F
100
AcDbEntity
  8
0
  6
Continuous
 62
     7
370
    25
100
AcDbCircle
 10
14.6458726703
 20
43.2251026246
 30
0.0
 40
0.1250000000000085
100
AcDbArc
 50
135.0
 51
225.0
  0
LINE
  5
32C
330
1F
100
AcDbEntity
  8
0
  6
Continuous
 62
     7
370
    25
100
AcDbLine
 10
11.6523188559
 20
42.1722094249
 30
0.0
 11
11.475542978
 21
41.9954327404
 31
0.0
  0
ARC
  5
32D
330
1F
100
AcDbEntity
  8
0
  6
Continuous
 62
     7
370
    25
100
AcDbCircle
 10
11.563930932
 20
41.9070443628
 30
0.0
 40
0.125000000000006
100
AcDbArc
 50
135.0
 51
225.0
  0
LINE
  5
32E
330
1F
100
AcDbEntity
  8
0
  6
Continuous
 62
     7
370
    25
100
AcDbLine
 10
11.475542978
 20
41.8186559825
 30
0.0
 11
11.6523188559
 21
41.6418793346
 31
0.0
  0
ARC
  5
32F
330
1F
100
AcDbEntity
  8
0
  6
Continuous
 62
     7
370
    25
100
AcDbCircle
 10
11.7407076273
 20
41.7302676675
 30
0.0
 40
0.1249999999999985
100
AcDbArc
 50
225.0
 51
315.0
  0
LINE
  5
330
330
1F
100
AcDbEntity
  8
0
  6
Continuous
 62
     7
370
    25
100
AcDbLine
 10
11.8290959071
 20
41.6418793346
 30
0.0
 11
12.0058729583
 21
41.8186559825
 31
0.0
  0
ARC
  5
331
330
1F
100
AcDbEntity
  8
0
  6
Continuous
 62
     7
370
    25
100
AcDbCircle
 10
11.9174843226
 20
41.9070443628
 30
0.0
 40
0.1250000000000035
100
AcDbArc
 50
315.0
 51
45.0
  0
LINE
  5
332
330
1F
100
AcDbEntity
  8
0
  6
Continuous
 62
     7
370
    25
100
AcDbLine
 10
12.0058729583
 20
41.9954327404
 30
0.0
 11
11.8290959071
 21
42.1722094249
 31
0.0
  0
ARC
  5
333
330
1F
100
AcDbEntity
  8
0
  6
Continuous
 62
     7
370
    25
100
AcDbCircle
 10
11.7407076273
 20
42.0838210581
 30
0.0
 40
0.1249999999999972
100
AcDbArc
 50
45.0
 51
135.0
  0
LINE
  5
334
330
1F
100
AcDbEntity
  8
0
  6
Continuous
 62
     7
370
    25
100
AcDbLine
 10
12.2710373617
 20
41.7302676769
 30
0.0
 11
12.4478144129
 21
41.5534909557
 31
0.0
  0
ARC
  5
335
330
1F
100
AcDbEntity
  8
0
  6
Continuous
 62
     7
370
    25
100
AcDbCircle
 10
12.1826493656
 20
41.6418793199
 30
0.0
 40
0.124999999999996
100
AcDbArc
 50
45.0
 51
135.0
  0
LINE
  5
336
330
1F
100
AcDbEntity
  8
0
  6
Continuous
 62
     7
370
    25
100
AcDbLine
 10
11.9174844327
 20
41.5534909557
 30
0.0
 11
12.0942614838
 21
41.7302676769
 31
0.0
  0
LINE
  5
337
330
1F
100
AcDbEntity
  8
0
  6
Continuous
 62
     7
370
    25
100
AcDbLine
 10
12.4478144129
 20
41.5534909557
 30
0.0
 11
11.9174844327
 21
41.5534909557
 31
0.0
  0
LINE
  5
338
330
1F
100
AcDbEntity
  8
0
  6
Continuous
 62
     7
370
    25
100
AcDbLine
 10
12.3555421988
 20
43.5786560375
 30
0.0
 11
12.53231925
 21
43.4018792796
 31
0.0
  0
ARC
  5
339
330
1F
100
AcDbEntity
  8
0
  6
Continuous
 62
     7
370
    25
100
AcDbCircle
 10
12.6207076273
 20
43.4902676675
 30
0.0
 40
0.1250000000000073
100
AcDbArc
 50
225.0
 51
315.0
  0
LINE
  5
33A
330
1F
100
AcDbEntity
  8
0
  6
Continuous
 62
     7
370
    25
100
AcDbLine
 10
12.7090963012
 20
43.4018792796
 30
0.0
 11
12.8858721791
 21
43.5786560375
 31
0.0
  0
ARC
  5
33B
330
1F
100
AcDbEntity
  8
0
  6
Continuous
 62
     7
370
    25
100
AcDbCircle
 10
12.7974843226
 20
43.6670443628
 30
0.0
 40
0.1249999999999985
100
AcDbArc
 50
315.0
 51
45.0
  0
LINE
  5
33C
330
1F
100
AcDbEntity
  8
0
  6
Continuous
 62
     7
370
    25
100
AcDbLine
 10
12.8858721791
 20
43.7554327954
 30
0.0
 11
12.7090963012
 21
43.9322092599
 31
0.0
  0
ARC
  5
33D
330
1F
100
AcDbEntity
  8
0
  6
Continuous
 62
     7
370
    25
100
AcDbCircle
 10
12.6207076273
 20
43.8438210581
 30
0.0
 40
0.1250000000000023
100
AcDbArc
 50
45.0
 51
135.0
  0
LINE
  5
33E
330
1F
100
AcDbEntity
  8
0
  6
Continuous
 62
     7
370
    25
100
AcDbLine
 10
12.53231925
 20
43.9322092599
 30
0.0
 11
12.3555421988
 21
43.7554327954
 31
0.0
  0
ARC
  5
33F
330
1F
100
AcDbEntity
  8
0
  6
Continuous
 62
     7
370
    25
100
AcDbCircle
 10
12.443930932
 20
43.6670443628
 30
0.0
 40
0.125000000000001
100
AcDbArc
 50
135.0
 51
225.0
  0
LINE
  5
340
330
1F
100
AcDbEntity
  8
0
  6
Continuous
 62
     7
370
    25
100
AcDbLine
 10
11.475542978
 20
43.5786560375
 30
0.0
 11
11.6523188559
 21
43.4018792796
 31
0.0
  0
ARC
  5
341
330
1F
100
AcDbEntity
  8
0
  6
Continuous
 62
     7
370
    25
100
AcDbCircle
 10
11.7407076273
 20
43.4902676675
 30
0.0
 40
0.1250000000000023
100
AcDbArc
 50
225.0
 51
315.0
  0
LINE
  5
342
330
1F
100
AcDbEntity
  8
0
  6
Continuous
 62
     7
370
    25
100
AcDbLine
 10
11.8290959071
 20
43.4018792796
 30
0.0
 11
12.0058729583
 21
43.5786560375
 31
0.0
  0
ARC
  5
343
330
1F
100
AcDbEntity
  8
0
  6
Continuous
 62
     7
370
    25
100
AcDbCircle
 10
11.9174843226
 20
43.6670443628
 30
0.0
 40
0.1250000000000035
100
AcDbArc
 50
315.0
 51
45.0
  0
LINE
  5
344
330
1F
100
AcDbEntity
  8
0
  6
Continuous
 62
     7
370
    25
100
AcDbLine
 10
12.0058729583
 20
43.7554327954
 30
0.0
 11
11.8290959071
 21
43.9322092599
 31
0.0
  0
ARC
  5
345
330
1F
100
AcDbEntity
  8
0
  6
Continuous
 62
     7
370
    25
100
AcDbCircle
 10
11.7407076273
 20
43.8438210581
 30
0.0
 40
0.1250000000000023
100
AcDbArc
 50
45.0
 51
135.0
  0
LINE
  5
346
330
1F
100
AcDbEntity
  8
0
  6
Continuous
 62
     7
370
    25
100
AcDbLine
 10
11.6523188559
 20
43.9322092599
 30
0.0
 11
11.475542978
 21
43.7554327954
 31
0.0
  0
ARC
  5
347
330
1F
100
AcDbEntity
  8
0
  6
Continuous
 62
     7
370
    25
100
AcDbCircle
 10
11.563930932
 20
43.6670443628
 30
0.0
 40
0.1250000000000035
100
AcDbArc
 50
135.0
 51
225.0
  0
LINE
  5
348
330
1F
100
AcDbEntity
  8
0
  6
Continuous
 62
     7
370
    25
100
AcDbLine
 10
11.9174844327
 20
43.1367142895
 30
0.0
 11
12.0942614838
 21
42.9599375317
 31
0.0
  0
ARC
  5
349
330
1F
100
AcDbEntity
  8
0
  6
Continuous
 62
     7
370
    25
100
AcDbCircle
 10
12.1826493656
 20
43.0483259293
 30
0.0
 40
0.125000000000001
100
AcDbArc
 50
225.0
 51
315.0
  0
LINE
  5
34A
330
1F
100
AcDbEntity
  8
0
  6
Continuous
 62
     7
370
    25
100
AcDbLine
 10
12.2710373617
 20
42.9599375317
 30
0.0
 11
12.4478144129
 21
43.1367142895
 31
0.0
  0
ARC
  5
34B
330
1F
100
AcDbEntity
  8
0
  6
Continuous
 62
     7
370
    25
100
AcDbCircle
 10
12.3594260609
 20
43.2251026246
 30
0.0
 40
0.125000000000001
100
AcDbArc
 50
315.0
 51
45.0
  0
LINE
  5
34C
330
1F
100
AcDbEntity
  8
0
  6
Continuous
 62
     7
370
    25
100
AcDbLine
 10
12.2710373617
 20
43.4902676586
 30
0.0
 11
12.4478144129
 21
43.3134909007
 31
0.0
  0
ARC
  5
34D
330
1F
100
AcDbEntity
  8
0
  6
Continuous
 62
     7
370
    25
100
AcDbCircle
 10
12.1826493656
 20
43.4018793199
 30
0.0
 40
0.1249999999999985
100
AcDbArc
 50
45.0
 51
135.0
  0
LINE
  5
34E
330
1F
100
AcDbEntity
  8
0
  6
Continuous
 62
     7
370
    25
100
AcDbLine
 10
11.9174844327
 20
43.3134909007
 30
0.0
 11
12.0942614838
 21
43.4902676586
 31
0.0
  0
ARC
  5
34F
330
1F
100
AcDbEntity
  8
0
  6
Continuous
 62
     7
370
    25
100
AcDbCircle
 10
12.0058726703
 20
43.2251026246
 30
0.0
 40
0.1249999999999972
100
AcDbArc
 50
135.0
 51
225.0
  0
LINE
  5
350
330
1F
100
AcDbEntity
  8
0
  6
Continuous
 62
     7
370
    25
100
AcDbLine
 10
12.7974848268
 20
44.0167143904
 30
0.0
 11
12.9742607047
 21
43.8399376325
 31
0.0
  0
ARC
  5
351
330
1F
100
AcDbEntity
  8
0
  6
Continuous
 62
     7
370
    25
100
AcDbCircle
 10
13.0626493656
 20
43.9283259293
 30
0.0
 40
0.1249999999999972
100
AcDbArc
 50
225.0
 51
315.0
  0
LINE
  5
352
330
1F
100
AcDbEntity
  8
0
  6
Continuous
 62
     7
370
    25
100
AcDbLine
 10
13.1510377559
 20
43.8399376325
 30
0.0
 11
13.3278148071
 21
44.0167143904
 31
0.0
  0
ARC
  5
353
330
1F
100
AcDbEntity
  8
0
  6
Continuous
 62
     7
370
    25
100
AcDbCircle
 10
13.2394260609
 20
44.1051026246
 30
0.0
 40
0.1250000000000215
100
AcDbArc
 50
315.0000000004
 51
317.4651158035
  0
LINE
  5
354
330
1F
100
AcDbEntity
  8
0
  6
Continuous
 62
     7
370
    25
100
AcDbLine
 10
13.3315342308
 20
44.0205977855
 30
0.0
 11
12.7937642298
 21
44.0205977855
 31
0.0
  0
ARC
  5
355
330
1F
100
AcDbEntity
  8
0
  6
Continuous
 62
     7
370
    25
100
AcDbCircle
 10
12.8858726703
 20
44.1051026246
 30
0.0
 40
0.1249999999999992
100
AcDbArc
 50
222.5348841969
 51
225.0
  0
LINE
  5
356
330
1F
100
AcDbEntity
  8
0
  6
Continuous
 62
     7
370
    25
100
AcDbLine
 10
12.7974848268
 20
43.1367142895
 30
0.0
 11
12.9742607047
 21
42.9599375317
 31
0.0
  0
ARC
  5
357
330
1F
100
AcDbEntity
  8
0
  6
Continuous
 62
     7
370
    25
100
AcDbCircle
 10
13.0626493656
 20
43.0483259293
 30
0.0
 40
0.1250000000000023
100
AcDbArc
 50
225.0
 51
315.0
  0
LINE
  5
358
330
1F
100
AcDbEntity
  8
0
  6
Continuous
 62
     7
370
    25
100
AcDbLine
 10
13.1510377559
 20
42.9599375317
 30
0.0
 11
13.3278148071
 21
43.1367142895
 31
0.0
  0
ARC
  5
359
330
1F
100
AcDbEntity
  8
0
  6
Continuous
 62
     7
370
    25
100
AcDbCircle
 10
13.2394260609
 20
43.2251026246
 30
0.0
 40
0.1250000000000035
100
AcDbArc
 50
315.0
 51
45.0
  0
LINE
  5
35A
330
1F
100
AcDbEntity
  8
0
  6
Continuous
 62
     7
370
    25
100
AcDbLine
 10
13.1510377559
 20
43.4902676586
 30
0.0
 11
13.3278148071
 21
43.3134909007
 31
0.0
  0
ARC
  5
35B
330
1F
100
AcDbEntity
  8
0
  6
Continuous
 62
     7
370
    25
100
AcDbCircle
 10
13.0626493656
 20
43.4018793199
 30
0.0
 40
0.1250000000000035
100
AcDbArc
 50
45.0
 51
135.0
  0
LINE
  5
35C
330
1F
100
AcDbEntity
  8
0
  6
Continuous
 62
     7
370
    25
100
AcDbLine
 10
12.7974848268
 20
43.3134909007
 30
0.0
 11
12.9742607047
 21
43.4902676586
 31
0.0
  0
ARC
  5
35D
330
1F
100
AcDbEntity
  8
0
  6
Continuous
 62
     7
370
    25
100
AcDbCircle
 10
12.8858726703
 20
43.2251026246
 30
0.0
 40
0.1250000000000022
100
AcDbArc
 50
135.0
 51
225.0
  0
LINE
  5
35E
330
1F
100
AcDbEntity
  8
0
  6
Continuous
 62
     7
370
    25
100
AcDbLine
 10
12.53231925
 20
42.1722094249
 30
0.0
 11
12.3555421988
 21
41.9954327404
 31
0.0
  0
ARC
  5
35F
330
1F
100
AcDbEntity
  8
0
  6
Continuous
 62
     7
370
    25
100
AcDbCircle
 10
12.443930932
 20
41.9070443628
 30
0.0
 40
0.1250000000000022
100
AcDbArc
 50
135.0
 51
225.0
  0
LINE
  5
360
330
1F
100
AcDbEntity
  8
0
  6
Continuous
 62
     7
370
    25
100
AcDbLine
 10
12.3555421988
 20
41.8186559825
 30
0.0
 11
12.53231925
 21
41.6418793346
 31
0.0
  0
ARC
  5
361
330
1F
100
AcDbEntity
  8
0
  6
Continuous
 62
     7
370
    25
100
AcDbCircle
 10
12.6207076273
 20
41.7302676675
 30
0.0
 40
0.1250000000000048
100
AcDbArc
 50
225.0
 51
315.0
  0
LINE
  5
362
330
1F
100
AcDbEntity
  8
0
  6
Continuous
 62
     7
370
    25
100
AcDbLine
 10
12.7090963012
 20
41.6418793346
 30
0.0
 11
12.8858721791
 21
41.8186559825
 31
0.0
  0
ARC
  5
363
330
1F
100
AcDbEntity
  8
0
  6
Continuous
 62
     7
370
    25
100
AcDbCircle
 10
12.7974843226
 20
41.9070443628
 30
0.0
 40
0.1249999999999998
100
AcDbArc
 50
315.0
 51
45.0
  0
LINE
  5
364
330
1F
100
AcDbEntity
  8
0
  6
Continuous
 62
     7
370
    25
100
AcDbLine
 10
12.8858721791
 20
41.9954327404
 30
0.0
 11
12.7090963012
 21
42.1722094249
 31
0.0
  0
ARC
  5
365
330
1F
100
AcDbEntity
  8
0
  6
Continuous
 62
     7
370
    25
100
AcDbCircle
 10
12.6207076273
 20
42.0838210581
 30
0.0
 40
0.1249999999999998
100
AcDbArc
 50
45.0
 51
135.0
  0
ARC
  5
366
330
1F
100
AcDbEntity
  8
0
  6
Continuous
 62
     7
370
    25
100
AcDbCircle
 10
11.1258726703
 20
44.1051026246
 30
0.0
 40
0.125000000000001
100
AcDbArc
 50
222.5348841969
 51
225.0
  0
LINE
  5
367
330
1F
100
AcDbEntity
  8
0
  6
Continuous
 62
     7
370
    25
100
AcDbLine
 10
0.6207076273
 20
44.5420442684
 30
0.0
 11
0.6207076273
 21
44.438490878
 31
0.0
  0
LINE
  5
368
330
1F
100
AcDbEntity
  8
0
  6
Continuous
 62
     7
370
    25
100
AcDbLine
 10
16.620707434
 20
44.5420442684
 30
0.0
 11
0.6207076273
 21
44.5420442684
 31
0.0
  0
LINE
  5
369
330
1F
100
AcDbEntity
  8
0
  6
Continuous
 62
     7
370
    25
100
AcDbLine
 10
16.620707434
 20
44.5420442684
 30
0.0
 11
16.620707434
 21
44.3734593359
 31
0.0
  0
LINE
  5
36A
330
1F
100
AcDbEntity
  8
0
  6
Continuous
 62
     7
370
    25
100
AcDbLine
 10
16.3707081886
 20
44.3734593359
 30
0.0
 11
16.620707434
 21
44.3734593359
 31
0.0
  0
LINE
  5
36B
330
1F
100
AcDbEntity
  8
0
  6
Continuous
 62
     7
370
    25
100
AcDbLine
 10
0.8707076243
 20
44.438490878
 30
0.0
 11
0.6207076273
 21
44.438490878
 31
0.0
  0
LINE
  5
36C
330
1F
100
AcDbEntity
  8
0
  6
Continuous
 62
     7
370
    25
100
AcDbLine
 10
0.8707076243
 20
44.438490878
 30
0.0
 11
0.8707076243
 21
44.3349374875
 31
0.0
  0
LINE
  5
36D
330
1F
100
AcDbEntity
  8
0
  6
Continuous
 62
     7
370
    25
100
AcDbLine
 10
16.3707081886
 20
44.3734593359
 30
0.0
 11
16.3707081886
 21
44.3349374875
 31
0.0
  0
LINE
  5
36E
330
1F
100
AcDbEntity
  8
0
  6
Continuous
 62
     7
370
    25
100
AcDbLine
 10
16.620707434
 20
44.3734593359
 30
0.0
 11
16.620707434
 21
41.0320443628
 31
0.0
  0
LINE
  5
36F
330
1F
100
AcDbEntity
  8
0
  6
Continuous
 62
     7
370
    25
100
AcDbLine
 10
16.620707434
 20
41.0320443628
 30
0.0
 11
16.3707081886
 21
41.0320443628
 31
0.0
  0
LINE
  5
370
330
1F
100
AcDbEntity
  8
0
  6
Continuous
 62
     7
370
    25
100
AcDbLine
 10
0.6207076273
 20
41.0320443628
 30
0.0
 11
0.6207076273
 21
44.438490878
 31
0.0
  0
LINE
  5
371
330
1F
100
AcDbEntity
  8
0
  6
Continuous
 62
     7
370
    25
100
AcDbLine
 10
0.6207076273
 20
41.0320443628
 30
0.0
 11
1.1207076213
 21
41.0320443628
 31
0.0
  0
LINE
  5
372
330
1F
100
AcDbEntity
  8
0
  6
Continuous
 62
     7
370
    25
100
AcDbLine
 10
22.9148705257
 20
33.7163656084
 30
0.0
 11
22.9148705257
 21
33.4663656084
 31
0.0
  0
LINE
  5
373
330
1F
100
AcDbEntity
  8
0
  6
Continuous
 62
     7
370
    25
100
AcDbLine
 10
23.1648705257
 20
33.7163656084
 30
0.0
 11
22.9148705257
 21
33.7163656084
 31
0.0
  0
LINE
  5
374
330
1F
100
AcDbEntity
  8
0
  6
Continuous
 62
     7
370
    25
100
AcDbLine
 10
23.1648705257
 20
17.9663656084
 30
0.0
 11
23.1648705257
 21
33.7163656084
 31
0.0
  0
LINE
  5
375
330
1F
100
AcDbEntity
  8
0
  6
Continuous
 62
     7
370
    25
100
AcDbLine
 10
14.5619773069
 20
17.9663656084
 30
0.0
 11
23.1648705257
 21
17.9663656084
 31
0.0
  0
LINE
  5
376
330
1F
100
AcDbEntity
  8
0
  6
Continuous
 62
     7
370
    25
100
AcDbLine
 10
14.5619773069
 20
17.9663656084
 30
0.0
 11
14.5619773069
 21
33.4663656084
 31
0.0
  0
LINE
  5
377
330
1F
100
AcDbEntity
  8
0
  6
Continuous
 62
     7
370
    25
100
AcDbLine
 10
22.9148705257
 20
33.4663656084
 30
0.0
 11
14.5619773069
 21
33.4663656084
 31
0.0
  0
LINE
  5
378
330
1F
100
AcDbEntity
  8
0
  6
Continuous
 62
     7
370
    25
100
AcDbLine
 10
19.1067818727
 20
25.9663656084
 30
0.0
 11
15.6825219928
 21
25.9663656084
 31
0.0
  0
LINE
  5
379
330
1F
100
AcDbEntity
  8
0
  6
Continuous
 62
     7
370
    25
100
AcDbLine
 10
15.6825219928
 20
25.4663656084
 30
0.0
 11
15.6825219928
 21
25.9663656084
 31
0.0
  0
LINE
  5
37A
330
1F
100
AcDbEntity
  8
0
  6
Continuous
 62
     7
370
    25
100
AcDbLine
 10
19.1067818727
 20
25.4663656084
 30
0.0
 11
15.6825219928
 21
25.4663656084
 31
0.0
  0
LINE
  5
37B
330
1F
100
AcDbEntity
  8
0
  6
Continuous
 62
     7
370
    25
100
AcDbLine
 10
19.1067818727
 20
25.4663656084
 30
0.0
 11
19.1067818727
 21
25.9663656084
 31
0.0
  0
LINE
  5
37C
330
1F
100
AcDbEntity
  8
0
  6
Continuous
 62
     7
370
    25
100
AcDbLine
 10
14.5234554455
 20
17.7163656084
 30
0.0
 11
14.5234554455
 21
17.9663656084
 31
0.0
  0
LINE
  5
37D
330
1F
100
AcDbEntity
  8
0
  6
Continuous
 62
     7
370
    25
100
AcDbLine
 10
14.5234554455
 20
17.7163656084
 30
0.0
 11
14.3548705257
 21
17.7163656084
 31
0.0
  0
LINE
  5
37E
330
1F
100
AcDbEntity
  8
0
  6
Continuous
 62
     7
370
    25
100
AcDbLine
 10
14.3548705257
 20
17.7163656084
 30
0.0
 11
14.3548705257
 21
33.7163656084
 31
0.0
  0
LINE
  5
37F
330
1F
100
AcDbEntity
  8
0
  6
Continuous
 62
     7
370
    25
100
AcDbLine
 10
14.4584239163
 20
33.7163656084
 30
0.0
 11
14.4584239163
 21
33.4663656084
 31
0.0
  0
LINE
  5
380
330
1F
100
AcDbEntity
  8
0
  6
Continuous
 62
     7
370
    25
100
AcDbLine
 10
14.4584239163
 20
33.7163656084
 30
0.0
 11
14.3548705257
 21
33.7163656084
 31
0.0
  0
LINE
  5
381
330
1F
100
AcDbEntity
  8
0
  6
Continuous
 62
     7
370
    25
100
AcDbLine
 10
14.4584239163
 20
33.4663656084
 30
0.0
 11
14.5619773069
 21
33.4663656084
 31
0.0
  0
LINE
  5
382
330
1F
100
AcDbEntity
  8
0
  6
Continuous
 62
     7
370
    25
100
AcDbLine
 10
14.5619773069
 20
17.9663656084
 30
0.0
 11
14.5234554455
 21
17.9663656084
 31
0.0
  0
LINE
  5
383
330
1F
100
AcDbEntity
  8
0
  6
Continuous
 62
     7
370
    25
100
AcDbLine
 10
23.1648705257
 20
17.7163656084
 30
0.0
 11
14.5234554455
 21
17.7163656084
 31
0.0
  0
LINE
  5
384
330
1F
100
AcDbEntity
  8
0
  6
Continuous
 62
     7
370
    25
100
AcDbLine
 10
23.1648705257
 20
17.9663656084
 30
0.0
 11
23.1648705257
 21
17.7163656084
 31
0.0
  0
LINE
  5
385
330
1F
100
AcDbEntity
  8
0
  6
Continuous
 62
     7
370
    25
100
AcDbLine
 10
22.9148705257
 20
33.7163656084
 30
0.0
 11
14.4584239163
 21
33.7163656084
 31
0.0
  0
ENDSEC
  0
SECTION
  2
OBJECTS
  0
DICTIONARY
  5
C
330
0
100
AcDbDictionary
281
     1
  3
ACAD_GROUP
350
D
  3
ACAD_LAYOUT
350
1A
  3
ACAD_MLINESTYLE
350
17
  3
ACAD_PLOTSETTINGS
350
19
  3
ACAD_PLOTSTYLENAME
350
E
  3
ACAD_SCALELIST
350
47
  0
DICTIONARY
  5
D
102
{ACAD_REACTORS
330
C
102
}
330
C
100
AcDbDictionary
281
     1
  0
DICTIONARY
  5
1A
102
{ACAD_REACTORS
330
C
102
}
330
C
100
AcDbDictionary
281
     1
  3
Layout1
350
1E
  3
Layout2
350
26
  3
Model
350
22
  0
DICTIONARY
  5
17
102
{ACAD_REACTORS
330
C
102
}
330
C
100
AcDbDictionary
281
     1
  3
Standard
350
18
  0
DICTIONARY
  5
19
102
{ACAD_REACTORS
330
C
102
}
330
C
100
AcDbDictionary
281
     1
  0
ACDBDICTIONARYWDFLT
  5
E
102
{ACAD_REACTORS
330
C
102
}
330
C
100
AcDbDictionary
281
     1
  3
Normal
350
F
100
AcDbDictionaryWithDefault
340
F
  0
DICTIONARY
  5
47
102
{ACAD_REACTORS
330
C
102
}
330
C
100
AcDbDictionary
281
     1
  3
A0
350
48
  3
A1
350
49
  3
A2
350
4A
  3
A3
350
4B
  3
A4
350
4C
  3
A5
350
4D
  3
A6
350
4E
  3
A7
350
4F
  3
A8
350
50
  3
A9
350
51
  3
B0
350
52
  3
B1
350
53
  3
B2
350
54
  3
B3
350
55
  3
B4
350
56
  3
B5
350
57
  3
B6
350
58
  3
B7
350
59
  3
B8
350
5A
  3
B9
350
5B
  3
C0
350
5C
  3
C1
350
5D
  3
C2
350
5E
  3
C3
350
5F
  3
C4
350
60
  3
C5
350
61
  3
C6
350
62
  3
C7
350
63
  3
C8
350
64
  3
C9
350
65
  3
D0
350
66
  3
D1
350
67
  3
D2
350
68
  0
LAYOUT
  5
1E
102
{ACAD_REACTORS
330
1A
102
}
330
1A
100
AcDbPlotSettings
  1

  2
none_device
  4

  6

 40
0.0
 41
0.0
 42
0.0
 43
0.0
 44
0.0
 45
0.0
 46
0.0
 47
0.0
 48
0.0
 49
0.0
140
0.0
141
0.0
142
1.0
143
1.0
 70
   688
 72
     0
 73
     0
 74
     5
  7

 75
    16
147
1.0
148
0.0
149
0.0
100
AcDbLayout
  1
Layout1
 70
     1
 71
     1
 10
0.0
 20
0.0
 11
12.0
 21
9.0
 12
0.0
 22
0.0
 32
0.0
 14
1.0000000000E+20
 24
1.0000000000E+20
 34
1.0000000000E+20
 15
-1.0000000000E+20
 25
-1.0000000000E+20
 35
-1.0000000000E+20
146
0.0
 13
0.0
 23
0.0
 33
0.0
 16
1.0
 26
0.0
 36
0.0
 17
0.0
 27
1.0
 37
0.0
 76
     0
330
1B
  0
LAYOUT
  5
26
102
{ACAD_REACTORS
330
1A
102
}
330
1A
100
AcDbPlotSettings
  1

  2
none_device
  4

  6

 40
0.0
 41
0.0
 42
0.0
 43
0.0
 44
0.0
 45
0.0
 46
0.0
 47
0.0
 48
0.0
 49
0.0
140
0.0
141
0.0
142
1.0
143
1.0
 70
   688
 72
     0
 73
     0
 74
     5
  7

 75
    16
147
1.0
148
0.0
149
0.0
100
AcDbLayout
  1
Layout2
 70
     1
 71
     2
 10
0.0
 20
0.0
 11
0.0
 21
0.0
 12
0.0
 22
0.0
 32
0.0
 14
0.0
 24
0.0
 34
0.0
 15
0.0
 25
0.0
 35
0.0
146
0.0
 13
0.0
 23
0.0
 33
0.0
 16
1.0
 26
0.0
 36
0.0
 17
0.0
 27
1.0
 37
0.0
 76
     0
330
23
  0
LAYOUT
  5
22
102
{ACAD_REACTORS
330
1A
102
}
330
1A
100
AcDbPlotSettings
  1

  2
none_device
  4
Letter_(8.50_x_11.00_Inches)
  6

 40
6.35
 41
6.35
 42
6.35000508
 43
6.35000508
 44
215.9
 45
279.4
 46
0.0
 47
0.0
 48
0.0
 49
0.0
140
0.0
141
0.0
142
1.0
143
1.0
 70
  1712
 72
     0
 73
     0
 74
     0
  7

 75
     0
147
1.0
148
0.0
149
0.0
100
AcDbLayout
  1
Model
 70
     1
 71
     0
 10
0.0
 20
0.0
 11
24.0
 21
48.0
 12
0.0
 22
0.0
 32
0.0
 14
0.0
 24
0.0
 34
0.0
 15
24.0
 25
48.0
 35
0.0
146
0.0
 13
0.0
 23
0.0
 33
0.0
 16
1.0
 26
0.0
 36
0.0
 17
0.0
 27
1.0
 37
0.0
 76
     0
330
1F
331
29
  0
MLINESTYLE
  5
18
102
{ACAD_REACTORS
330
17
102
}
330
17
100
AcDbMlineStyle
  2
Standard
 70
     0
  3

 62
   256
 51
90.0
 52
90.0
 71
     2
 49
0.5
 62
   256
  6
BYLAYER
 49
-0.5
 62
   256
  6
BYLAYER
  0
ACDBPLACEHOLDER
  5
F
102
{ACAD_REACTORS
330
E
102
}
330
E
  0
SCALE
  5
48
102
{ACAD_REACTORS
330
47
102
}
330
47
100
AcDbScale
 70
     0
300
1:1
140
1.0
141
1.0
290
     1
  0
SCALE
  5
49
102
{ACAD_REACTORS
330
47
102
}
330
47
100
AcDbScale
 70
     0
300
1:2
140
1.0
141
2.0
290
     0
  0
SCALE
  5
4A
102
{ACAD_REACTORS
330
47
102
}
330
47
100
AcDbScale
 70
     0
300
1:4
140
1.0
141
4.0
290
     0
  0
SCALE
  5
4B
102
{ACAD_REACTORS
330
47
102
}
330
47
100
AcDbScale
 70
     0
300
1:5
140
1.0
141
5.0
290
     0
  0
SCALE
  5
4C
102
{ACAD_REACTORS
330
47
102
}
330
47
100
AcDbScale
 70
     0
300
1:8
140
1.0
141
8.0
290
     0
  0
SCALE
  5
4D
102
{ACAD_REACTORS
330
47
102
}
330
47
100
AcDbScale
 70
     0
300
1:10
140
1.0
141
10.0
290
     0
  0
SCALE
  5
4E
102
{ACAD_REACTORS
330
47
102
}
330
47
100
AcDbScale
 70
     0
300
1:16
140
1.0
141
16.0
290
     0
  0
SCALE
  5
4F
102
{ACAD_REACTORS
330
47
102
}
330
47
100
AcDbScale
 70
     0
300
1:20
140
1.0
141
20.0
290
     0
  0
SCALE
  5
50
102
{ACAD_REACTORS
330
47
102
}
330
47
100
AcDbScale
 70
     0
300
1:30
140
1.0
141
30.0
290
     0
  0
SCALE
  5
51
102
{ACAD_REACTORS
330
47
102
}
330
47
100
AcDbScale
 70
     0
300
1:40
140
1.0
141
40.0
290
     0
  0
SCALE
  5
52
102
{ACAD_REACTORS
330
47
102
}
330
47
100
AcDbScale
 70
     0
300
1:50
140
1.0
141
50.0
290
     0
  0
SCALE
  5
53
102
{ACAD_REACTORS
330
47
102
}
330
47
100
AcDbScale
 70
     0
300
1:100
140
1.0
141
100.0
290
     0
  0
SCALE
  5
54
102
{ACAD_REACTORS
330
47
102
}
330
47
100
AcDbScale
 70
     0
300
2:1
140
2.0
141
1.0
290
     0
  0
SCALE
  5
55
102
{ACAD_REACTORS
330
47
102
}
330
47
100
AcDbScale
 70
     0
300
4:1
140
4.0
141
1.0
290
     0
  0
SCALE
  5
56
102
{ACAD_REACTORS
330
47
102
}
330
47
100
AcDbScale
 70
     0
300
8:1
140
8.0
141
1.0
290
     0
  0
SCALE
  5
57
102
{ACAD_REACTORS
330
47
102
}
330
47
100
AcDbScale
 70
     0
300
10:1
140
10.0
141
1.0
290
     0
  0
SCALE
  5
58
102
{ACAD_REACTORS
330
47
102
}
330
47
100
AcDbScale
 70
     0
300
100:1
140
100.0
141
1.0
290
     0
  0
SCALE
  5
59
102
{ACAD_REACTORS
330
47
102
}
330
47
100
AcDbScale
 70
     0
300
1/128" = 1'-0"
140
0.0078125
141
12.0
290
     0
  0
SCALE
  5
5A
102
{ACAD_REACTORS
330
47
102
}
330
47
100
AcDbScale
 70
     0
300
1/64" = 1'-0"
140
0.015625
141
12.0
290
     0
  0
SCALE
  5
5B
102
{ACAD_REACTORS
330
47
102
}
330
47
100
AcDbScale
 70
     0
300
1/32" = 1'-0"
140
0.03125
141
12.0
290
     0
  0
SCALE
  5
5C
102
{ACAD_REACTORS
330
47
102
}
330
47
100
AcDbScale
 70
     0
300
1/16" = 1'-0"
140
0.0625
141
12.0
290
     0
  0
SCALE
  5
5D
102
{ACAD_REACTORS
330
47
102
}
330
47
100
AcDbScale
 70
     0
300
3/32" = 1'-0"
140
0.09375
141
12.0
290
     0
  0
SCALE
  5
5E
102
{ACAD_REACTORS
330
47
102
}
330
47
100
AcDbScale
 70
     0
300
1/8" = 1'-0"
140
0.125
141
12.0
290
     0
  0
SCALE
  5
5F
102
{ACAD_REACTORS
330
47
102
}
330
47
100
AcDbScale
 70
     0
300
3/16" = 1'-0"
140
0.1875
141
12.0
290
     0
  0
SCALE
  5
60
102
{ACAD_REACTORS
330
47
102
}
330
47
100
AcDbScale
 70
     0
300
1/4" = 1'-0"
140
0.25
141
12.0
290
     0
  0
SCALE
  5
61
102
{ACAD_REACTORS
330
47
102
}
330
47
100
AcDbScale
 70
     0
300
3/8" = 1'-0"
140
0.375
141
12.0
290
     0
  0
SCALE
  5
62
102
{ACAD_REACTORS
330
47
102
}
330
47
100
AcDbScale
 70
     0
300
1/2" = 1'-0"
140
0.5
141
12.0
290
     0
  0
SCALE
  5
63
102
{ACAD_REACTORS
330
47
102
}
330
47
100
AcDbScale
 70
     0
300
3/4" = 1'-0"
140
0.75
141
12.0
290
     0
  0
SCALE
  5
64
102
{ACAD_REACTORS
330
47
102
}
330
47
100
AcDbScale
 70
     0
300
1" = 1'-0"
140
1.0
141
12.0
290
     0
  0
SCALE
  5
65
102
{ACAD_REACTORS
330
47
102
}
330
47
100
AcDbScale
 70
     0
300
1-1/2" = 1'-0"
140
1.5
141
12.0
290
     0
  0
SCALE
  5
66
102
{ACAD_REACTORS
330
47
102
}
330
47
100
AcDbScale
 70
     0
300
3" = 1'-0"
140
3.0
141
12.0
290
     0
  0
SCALE
  5
67
102
{ACAD_REACTORS
330
47
102
}
330
47
100
AcDbScale
 70
     0
300
6" = 1'-0"
140
6.0
141
12.0
290
     0
  0
SCALE
  5
68
102
{ACAD_REACTORS
330
47
102
}
330
47
100
AcDbScale
 70
     0
300
1'-0" = 1'-0"
140
12.0
141
12.0
290
     0
  0
ENDSEC
  0
EOF
